<svg xmlns="http://www.w3.org/2000/svg" width="313.758" height="313.756" viewBox="0 0 313.758 313.756"><defs><style>.a{fill:#fff;fill-rule:evenodd;}</style></defs><path class="a" d="M347.1,318v40a104.28,104.28,0,1,0-52.24.55V318a65.131,65.131,0,0,1-20-13.71v-.1a65.28,65.28,0,1,1,92.28-92.36v-.05a65.39,65.39,0,0,1,0,92.41v.1a65.291,65.291,0,0,1-20,13.71M319.91,100a156.87,156.87,0,1,1-110.8,46,156.87,156.87,0,0,1,110.8-46Zm0,130.83A26.17,26.17,0,1,1,293.79,257,26.17,26.17,0,0,1,319.91,230.83Z" transform="translate(-163.215 -100)"/></svg>