<svg width="300" height="300" xmlns="http://www.w3.org/2000/svg">
 <style type="text/css">.st0{fill:#989898;}
	.st1{fill:#D0BE8B;}
	.st2{fill:#D7C89D;}
	.st3{fill:#E2D6B7;}
	.st4{fill:#DFD3B1;}
	.st5{fill:#C1A966;}
	.st6{fill:#333333;}
	.st7{fill:#060606;}
	.st8{fill:#FEFEFE;}
	.st9{fill:none;stroke:#333333;stroke-width:4;stroke-miterlimit:10;}</style>

 <g>
  <title>background</title>
  <rect fill="none" id="canvas_background" height="302" width="302" y="-1" x="-1"/>
 </g>
 <g>
  <title>Layer 1</title>
  <g stroke="null" id="svg_1">
   <path stroke="null" id="svg_2" d="m141.88393,252.35455c0,0.04182 0,0.0697 -0.01299,0.09758c-11.71259,0 -23.43816,0 -35.15074,0c0,-0.04182 -0.01299,-0.0697 -0.01299,-0.11152c0.28567,-0.30668 0.64926,-0.2091 0.98687,-0.22304c4.38897,0 8.77795,0 13.16692,0c6.66137,0 13.32274,0 19.98411,0c0.3506,0.01394 0.74015,-0.08364 1.03881,0.23698z" class="st0"/>
   <path stroke="null" id="svg_3" d="m182.6832,252.46607c-11.02437,0 -22.04875,0 -33.07312,0c-0.02597,-0.08364 -0.01299,-0.15334 0.06493,-0.2091c0.27269,-0.15334 0.55836,-0.11152 0.84403,-0.11152c10.41407,0 20.82815,0 31.22923,0c0.28567,0 0.58433,-0.02788 0.84403,0.11152c0.10388,0.04182 0.12985,0.11152 0.0909,0.2091z" class="st1"/>
   <path stroke="null" id="svg_4" d="m135.94973,47.36758c0,-0.04182 0.01299,-0.0697 0.01299,-0.09758c0.76612,0 1.54523,0 2.31135,0c0.01299,0.02788 0.01299,0.0697 0.01299,0.09758c-0.76612,0.3485 -1.55822,0.3485 -2.33732,0z" class="st2"/>
   <path stroke="null" id="svg_5" d="m149.61008,252.34061c0,0.04182 0,0.08364 0,0.12546c-0.27269,0 -0.54538,0 -0.80508,0c0,-0.04182 0,-0.08364 0,-0.11152c0.2597,-0.25092 0.53239,-0.25092 0.80508,-0.01394z" class="st3"/>
   <path stroke="null" id="svg_6" d="m182.6832,252.46607c0,-0.04182 0,-0.08364 0,-0.11152c0.24672,-0.2091 0.48045,-0.22304 0.7012,0.02788c0,0.02788 -0.01299,0.0697 -0.01299,0.09758c-0.22075,-0.01394 -0.45448,-0.01394 -0.68821,-0.01394z" class="st4"/>
   <path stroke="null" id="svg_7" d="m135.94973,47.36758c0.77911,0 1.5712,0 2.35031,0c2.23344,0.08364 4.28509,0.87822 6.31077,1.81219c4.15524,1.90977 7.97287,4.37714 11.20617,7.82031c1.76598,1.88189 3.18136,4.02865 4.16823,6.48208c0.10388,0.25092 0.19478,0.50184 0.16881,0.78064c-0.32463,0.2091 -0.59732,0 -0.87,-0.1394c-0.7012,-0.36244 -1.37642,-0.73882 -2.12956,-0.94792c-0.27269,-0.08364 -0.55836,-0.15334 -0.84403,-0.19516c-0.45448,-0.05576 -0.72717,0.12546 -0.83105,0.6273c-0.12985,0.66912 -0.18179,1.35218 -0.2597,2.02129c-0.18179,1.88189 -0.05194,3.76379 -0.12985,5.63174c-0.07791,1.81219 -0.10388,3.63833 -0.10388,5.45052c0,0.16728 -0.01299,0.33456 -0.07791,0.4879c-0.32463,0.33456 -0.66224,0.0697 -0.9609,-0.04182c-1.23359,-0.47396 -2.37628,-1.1849 -3.50598,-1.86795c-1.16866,-0.71094 -2.33732,-1.43581 -3.41509,-2.31403c-0.50642,-0.40426 -0.74015,-0.30668 -0.85702,0.36244c-0.28567,1.68673 0.05194,3.28983 0.62329,4.83716c0.45448,1.21278 0.81806,2.43949 0.79209,3.77773c-0.02597,0.96186 -0.22075,1.88189 -0.53239,2.77405c-0.27269,0.80852 -0.53239,1.64491 -0.75314,2.46737c-0.28567,1.0455 -0.33761,2.11887 -0.02597,3.17831c0.05194,0.19516 0.11687,0.39032 0.10388,0.59942c0,0.05576 -0.01299,0.12546 -0.02597,0.18122c-0.42851,1.33824 -0.38955,1.46369 0.63627,2.35585c0.32463,0.2788 0.7012,0.50184 0.97388,0.86428c0.31164,0.68306 0.57135,1.38006 0.90896,2.06311c0.07791,0.15334 0.18179,0.33456 0.02597,0.51578c-0.49343,0.18122 -1.01284,0.23698 -1.51926,0.3485c-0.20776,0.04182 -0.41552,0.08364 -0.62329,0.15334c-0.44149,0.15334 -0.75314,0.40426 -0.79209,0.94792c-0.02597,0.4879 0.24672,0.9758 0.7012,1.17096c0.53239,0.23698 1.10374,0.32062 1.68807,0.33456c0.64926,0.01394 1.3115,-0.02788 1.93478,0.23698c0.58433,0.8364 0.93493,1.78431 1.11672,2.81587c-0.10388,0.22304 -0.32463,0.2788 -0.50642,0.37638c-0.81806,0.4182 -1.62314,0.86428 -2.42822,1.29642c-0.46746,0.25092 -0.88299,0.59942 -1.11672,1.1152c-0.12985,0.29274 -0.16881,0.59942 0.01299,0.87822c0.19478,0.30668 0.49343,0.29274 0.77911,0.2091c1.03881,-0.30668 2.02568,-0.7667 3.03852,-1.15702c0.36358,-0.1394 0.74015,-0.40426 1.14269,-0.08364c0.48045,1.53339 0.68821,3.12255 0.90896,4.7117c0.23373,1.79825 0.32463,3.61045 0.74015,5.38082c0.15582,0.66912 0.37657,1.29642 0.64926,1.90977c0.62329,1.43581 1.25956,2.87163 1.77896,4.3632c0.01299,1.28248 -0.48045,2.42555 -0.9609,3.54075c-1.07777,2.49525 -1.77896,5.11596 -2.28538,7.79243c-0.36358,1.88189 -0.77911,3.74985 -0.99985,5.65962c-0.11687,1.01762 -0.3506,2.03523 -0.06493,3.06679c0,0.26486 -0.11687,0.47396 -0.31164,0.61336c-0.33761,0.12546 -0.68821,0.12546 -1.03881,0.01394c-0.19478,-1.22672 -1.06478,-1.97947 -1.76598,-2.82981c-2.50613,-3.02497 -5.54465,-5.35294 -8.72601,-7.48575c-1.85687,-1.24066 -3.92151,-1.84007 -6.10301,-1.77037c-1.70105,0.05576 -3.36315,0.46002 -4.9733,1.0455c-0.67523,0.23698 -1.37642,0.4182 -2.01269,0.7667c-3.32419,1.84007 -5.27196,4.7814 -5.94719,8.71247c-0.33761,1.93765 -0.02597,3.79167 0.75314,5.5481c0.7012,1.54733 1.36344,3.10861 1.99971,4.68382c0.80508,1.97947 2.07762,3.61045 3.35016,5.25536c2.37628,3.09467 5.01226,5.95236 7.70018,8.74035c1.70105,1.77037 3.53195,3.38741 5.31092,5.0602c1.75299,1.64491 3.50598,3.28983 5.1551,5.07414c1.20762,1.31036 2.42822,2.59283 3.93449,3.54075c0.11687,0.0697 0.20776,0.18122 0.28567,0.29274c0.33761,0.94792 0.46746,1.95159 0.7012,2.92739c0.59732,2.45343 1.76598,4.55836 3.16837,6.53784c0.23373,0.33456 0.6103,0.59942 0.55836,1.10126c-3.06449,2.32797 -6.06405,4.75352 -9.50511,6.42632c-1.37642,0.66912 -2.8827,0.86428 -4.32405,1.26854c-1.44135,0.40426 -2.83076,0.96186 -4.05136,1.90977c-1.33747,1.03156 -2.86971,1.35218 -4.44091,1.57521c-2.42822,0.33456 -4.84345,0.66912 -7.28466,0.7667c-0.10388,0 -0.22075,0.0697 -0.32463,0.11152c-0.7012,-0.16728 -1.32448,-0.5576 -1.96075,-0.87822c-4.0124,-2.09099 -8.05078,-4.14017 -12.07617,-6.21722c-3.51897,-1.82613 -7.05092,-3.61045 -10.56989,-5.42264c-1.81792,-0.93398 -3.66181,-1.84007 -5.46674,-2.81587c-0.18179,-0.09758 -0.42851,-0.11152 -0.48045,-0.39032c0.20776,-0.25092 -0.01299,-0.47396 -0.07791,-0.68306c-1.76598,-5.81296 -3.5839,-11.59804 -5.05121,-17.50858c-0.71418,-2.85769 -1.03881,-5.79902 -1.35045,-8.72641c-0.51941,-4.7814 -0.71418,-9.59069 -0.7012,-14.41391c0,-4.34926 0.11687,-8.68459 1.18165,-12.90839c0.66224,-2.62071 1.4803,-5.21354 2.19449,-7.82031c1.09075,-3.97289 1.93478,-8.02941 3.31121,-11.91866c1.16866,-3.28983 2.50613,-6.48208 3.90852,-9.66039c1.55822,-3.54075 2.46717,-7.22089 2.66195,-11.13802c0.12985,-2.69041 -0.24672,-5.31112 -0.67523,-7.93183c-0.37657,-2.34191 -0.77911,-4.66988 -1.36344,-6.96998c-0.28567,-1.14308 -0.68821,-2.23039 -1.25956,-3.24801c-0.40254,-0.697 -0.50642,-0.71094 -1.02583,-0.0697c-0.59732,0.73882 -0.97388,1.63097 -1.3115,2.53707c-0.6103,1.63097 -0.76612,3.35953 -0.89597,5.08808c-0.19478,2.43949 -0.46746,4.8511 -1.61016,7.03967c-1.5712,3.01103 -5.02524,4.40502 -7.81705,3.09467c-1.28553,-0.59942 -2.11658,-1.75643 -2.96061,-2.88557c-1.18165,-1.61703 -1.63613,-3.54075 -2.01269,-5.49234c-0.76612,-4.04259 -0.63627,-8.04335 0.62329,-11.97442c0.89597,-2.80193 2.35031,-5.22748 4.24614,-7.37423c3.53195,-4.00077 7.5054,-7.34635 12.19304,-9.67433c1.41538,-0.697 2.73986,-1.60309 4.1942,-2.20251c2.7918,-1.15702 5.62256,-1.3243 8.49227,-0.4182c2.20747,0.697 4.31106,0.59942 6.33674,-0.697c1.36344,-0.87822 2.93464,-0.93398 4.47987,-0.94792c2.14255,-0.02788 4.27211,-0.01394 6.41465,0.02788c1.20762,0.02788 2.41523,0.2091 3.62285,-0.02788c0.85702,-0.16728 1.64911,-0.54366 2.46717,-0.86428c1.33747,-0.51578 2.66195,-0.98974 4.09032,-1.0455z" class="st5"/>
   <path stroke="null" id="svg_8" d="m152.25905,105.62263c-0.87,0.02788 -1.61016,0.52972 -2.40225,0.80852c-0.57135,0.19516 -1.12971,0.43214 -1.68807,0.61336c-0.33761,0.11152 -0.7012,0.15334 -0.93493,-0.22304c-0.23373,-0.36244 -0.22075,-0.73882 -0.03896,-1.1152c0.27269,-0.5576 0.7012,-0.93398 1.20762,-1.19884c0.98687,-0.51578 1.97374,-1.01762 2.96061,-1.53339c0.15582,-0.19516 0.37657,-0.2788 0.58433,-0.36244c1.68807,-0.64124 3.28524,-1.46369 4.73957,-2.49525c0.11687,-0.05576 0,-0.15334 0.03896,-0.08364c0.01299,0.01394 0,0.02788 -0.01299,0.04182c-0.15582,0.16728 -0.3506,0.11152 -0.54538,0.12546c-1.81792,0.02788 -3.64882,-0.08364 -5.45375,0.19516c-0.14284,0.02788 -0.2597,-0.01394 -0.38955,-0.08364c-0.94791,-0.26486 -1.94777,-0.09758 -2.90867,-0.2788c-0.50642,-0.09758 -1.02583,-0.2091 -1.37642,-0.68306c-0.55836,-0.78064 -0.28567,-1.72855 0.59732,-2.00735c0.74015,-0.22304 1.49329,-0.36244 2.25941,-0.43214c0.14284,-0.1394 0.31164,-0.1394 0.48045,-0.15334c1.62314,-0.02788 3.24628,0.04182 4.68763,-0.0697c-0.71418,-0.11152 -1.51926,-0.4879 -2.37628,-0.75276c-1.0518,-0.33456 -2.07762,-0.7667 -3.12942,-1.07338c-0.2597,-0.08364 -0.50642,-0.18122 -0.7012,-0.40426c-0.44149,-0.36244 -0.89597,-0.697 -1.3115,-1.07338c-0.81806,-0.72488 -0.84403,-1.05944 -0.28567,-2.30009c0.20776,-0.22304 0.46746,-0.26486 0.74015,-0.2788c1.29851,-0.0697 2.57106,0.05576 3.81763,0.4879c1.86986,0.64124 3.72673,1.31036 5.60958,1.93765c0.19478,0.0697 0.41552,0.22304 0.59732,0.04182c0.18179,-0.19516 0.03896,-0.43214 -0.03896,-0.64124c-1.2206,-3.55469 -1.84389,-7.24877 -2.14255,-11.01256c-0.0909,-1.17096 -0.12985,-2.34191 -0.20776,-3.52681c-0.01299,-0.26486 -0.05194,-0.54366 0.14284,-0.7667c0.03896,-3.17831 0.0909,-6.35662 0.12985,-9.52099c0.02597,-1.38006 0.12985,-2.76011 0.3506,-4.12623c0.14284,-0.9061 0.31164,-1.0455 1.15568,-0.87822c0.94791,0.19516 1.84389,0.5576 2.68792,1.05944c0.32463,0.18122 0.63627,0.39032 1.01284,0.4182c1.12971,1.12914 2.41523,2.03523 3.51897,3.20619c2.11658,2.23039 3.94748,4.68382 5.29793,7.54151c0.07791,0.16728 0.16881,0.32062 0.24672,0.4879c0.23373,0.5576 0.58433,0.68306 1.12971,0.47396c2.11658,-0.80852 4.27211,-1.54733 6.49256,-1.95159c4.40196,-0.80852 8.80392,-0.98974 13.16692,0.32062c0.85702,0.25092 1.67508,0.59942 2.48016,1.00368c0.93493,0.46002 1.28553,0.36244 1.93478,-0.51578c2.22046,-3.01103 4.42793,-6.04994 6.68734,-9.03309c1.25956,-1.67279 2.61001,-3.26195 3.92151,-4.87898c0.3506,-0.44608 0.67523,-0.44608 1.09075,-0.05576c0.45448,0.43214 0.76612,0.9758 1.06478,1.53339c2.67494,5.01838 3.60987,10.44102 3.31121,16.1564c-0.24672,4.73958 -1.4803,9.17249 -3.68778,13.28477c-0.06493,0.12546 -0.11687,0.26486 -0.18179,0.39032c-0.07791,0.16728 -0.14284,0.3485 -0.01299,0.51578c0.14284,0.18122 0.31164,0.19516 0.51941,0.1394c1.12971,-0.33456 2.25941,-0.65518 3.4021,-0.9758c0.89597,-0.25092 1.77896,-0.51578 2.67494,-0.75276c0.38955,-0.11152 0.79209,-0.1394 1.19463,0c0.83105,0.29274 1.03881,0.98974 0.50642,1.72855c-0.37657,0.52972 -0.89597,0.82246 -1.44135,1.10126c-1.62314,0.8364 -3.37613,1.2546 -5.11614,1.70067c-1.33747,0.33456 -2.70091,0.6273 -4.03837,1.3243c1.16866,0.2788 2.28538,0.4182 3.38912,0.32062c2.01269,-0.18122 4.03837,-0.11152 6.06405,-0.1394c0.48045,-0.01394 0.9609,0.09758 1.37642,0.37638c0.38955,0.25092 0.53239,0.6273 0.49343,1.10126c-0.03896,0.46002 -0.29866,0.71094 -0.67523,0.8364c-1.06478,0.33456 -2.15553,0.39032 -3.25927,0.39032c-1.98672,-0.01394 -3.96046,0 -6.0251,0c0.40254,0.51578 0.87,0.75276 1.35045,1.00368c1.53225,0.78064 3.09046,1.47763 4.55778,2.38373c0.9609,0.58548 1.80493,1.33824 2.623,2.11887c0.38955,0.36244 0.62329,0.80852 0.3506,1.36612c-0.27269,0.54366 -0.72717,0.6273 -1.23359,0.54366c-1.35045,-0.23698 -2.67494,-0.58548 -3.94748,-1.14308c-2.10359,-0.9061 -4.1942,-1.84007 -6.25883,-2.82981c-0.85702,-0.4182 -0.98687,-0.32062 -1.25956,0.64124c-1.29851,4.60018 -0.84403,9.04703 0.87,13.43811c1.24657,3.20619 2.68792,6.30086 3.97345,9.47917c1.41538,3.51287 2.15553,7.17907 2.46717,10.97074c0.19478,2.41161 0.32463,4.82322 0.71418,7.20695c0.15582,0.18122 0.14284,0.4182 0.14284,0.64124c0.01299,2.34191 0.3506,4.642 0.53239,6.96998c0.11687,1.47763 0.2597,2.95527 0.27269,4.44684c0.01299,1.42187 0.18179,2.84375 0.14284,4.26562c-0.01299,0.59942 -0.15582,1.1849 -0.11687,1.78431c0.01299,0.19516 -0.02597,0.44608 0.18179,0.54366c0.18179,0.08364 0.32463,-0.09758 0.45448,-0.19516c0.98687,-0.72488 1.90881,-1.53339 2.623,-2.59283c0.12985,-0.18122 0.2597,-0.36244 0.46746,-0.44608c0.75314,-0.75276 1.36344,-1.64491 1.99971,-2.50919c1.45433,-2.23039 3.05151,-4.34926 4.31106,-6.733c1.86986,-3.52681 3.24628,-7.24877 3.70076,-11.31924c0.18179,-1.65885 0,-3.28983 -0.50642,-4.87898c-0.15582,-0.50184 -0.51941,-0.86428 -0.79209,-1.28248c-1.44135,-2.67647 -3.68778,-3.58257 -6.44062,-3.38741c-1.53225,0.11152 -2.93464,0.6273 -4.18121,1.58915c-0.12985,0.09758 -0.2597,0.18122 -0.38955,0.26486c-1.67508,1.01762 -3.07748,0.47396 -3.55793,-1.51945c-1.07777,-4.41896 0.57135,-8.58701 5.18107,-10.45496c2.25941,-0.9061 4.57077,-0.73882 6.8951,-0.30668c2.05165,0.39032 3.99942,1.15702 5.94719,1.95159c0.71418,0.19516 1.20762,0.7667 1.77896,1.21278c1.71404,1.3243 3.19434,2.88557 4.27211,4.86504c0.14284,0.26486 0.31164,0.51578 0.31164,0.85034c0.16881,0.72488 0.28567,1.46369 0.7012,2.09099c0.15582,0.1394 0.19478,0.3485 0.23373,0.5576c0.33761,1.95159 0.55836,3.93107 0.58433,5.91054c0.03896,2.78799 -0.33761,5.52022 -1.18165,8.16881c-0.89597,2.81587 -1.90881,5.58992 -2.96061,8.35003c-0.94791,2.48131 -2.45419,4.58624 -3.92151,6.70512c-0.46746,0.68306 -0.9609,1.35218 -1.40239,2.04917c-0.11687,0.19516 -0.2597,0.36244 -0.48045,0.4182c-0.71418,0.43214 -1.10374,1.1849 -1.54523,1.88189c-0.18179,0.29274 -0.37657,0.57154 -0.55836,0.86428c-0.15582,0.39032 -0.45448,0.65518 -0.72717,0.93398c-0.53239,0.51578 -0.94791,1.10126 -1.2206,1.81219c-1.94777,2.43949 -3.92151,4.8511 -6.27182,6.8724c-1.06478,0.9061 -2.06464,1.90977 -2.7918,3.17831c0.02597,0.30668 -0.16881,0.4879 -0.33761,0.68306c-1.02583,1.28248 -2.1815,2.45343 -3.29822,3.65227c-1.42836,1.53339 -2.61001,3.24801 -3.50598,5.1996c-1.07777,2.32797 -2.36329,4.5026 -4.03837,6.39844c-1.71404,1.93765 -3.77867,3.15043 -6.16794,3.81955c-2.37628,0.65518 -4.77853,1.03156 -7.2457,1.14308c-2.92165,0.12546 -5.84331,0.26486 -8.73899,0.79458c-2.11658,0.39032 -4.22017,0.19516 -6.27182,-0.57154c-0.50642,-0.19516 -1.06478,-0.22304 -1.53225,-0.52972c-2.10359,-0.80852 -4.23315,-1.53339 -6.21988,-2.60677c-2.24643,-1.21278 -4.47987,-2.48131 -6.70033,-3.73591c-1.0518,-0.59942 -1.86986,-1.50551 -2.72688,-2.36979c-0.20776,-0.2091 -0.42851,-0.40426 -0.64926,-0.61336c-0.64926,-0.98974 -1.32448,-1.96553 -1.96075,-2.96921c-1.33747,-2.10493 -1.94777,-4.5026 -2.42822,-6.9421c-0.03896,-0.22304 -0.0909,-0.44608 -0.14284,-0.66912c0.06493,-0.30668 0.3506,-0.36244 0.55836,-0.4879c1.58419,-0.9061 3.2333,-1.64491 4.86942,-2.43949c2.29837,-1.1152 4.29808,-2.74617 6.36271,-4.25168c3.11643,-2.30009 5.80435,-5.10202 8.40138,-8.02941c4.20718,-4.75352 6.62242,-10.4689 7.60929,-16.88128c0.42851,-2.84375 0.28567,-5.6875 -0.68821,-8.43367c-1.03881,-2.94133 -2.96061,-4.94868 -5.63555,-6.11964c-2.68792,-1.17096 -5.42778,-1.33824 -8.18063,-0.23698c-1.62314,0.65518 -2.99956,1.75643 -4.40196,2.81587c-2.37628,1.78431 -4.41494,3.93107 -6.03808,6.50996c-0.10388,0.16728 -0.20776,0.3485 -0.42851,0.37638c-0.23373,-0.22304 -0.18179,-0.52972 -0.18179,-0.80852c0,-1.82613 0.3506,-3.59651 0.67523,-5.38082c0.50642,-2.78799 1.01284,-5.57598 1.96075,-8.25245c0.33761,-0.96186 0.74015,-1.89583 1.11672,-2.84375c0.36358,-0.92004 0.64926,-1.85401 0.71418,-2.85769c0.51941,-1.33824 1.02583,-2.66253 1.59717,-3.97289c1.20762,-2.74617 2.48016,-5.46446 3.46703,-8.30821c0.57135,-1.64491 1.14269,-3.28983 1.0518,-5.10202c-0.02597,-0.65518 -0.16881,-1.26854 -0.44149,-1.84007c-0.37657,-0.80852 -0.89597,-1.08732 -1.70105,-0.8364c-1.49329,0.46002 -2.94762,1.08732 -4.35002,1.81219c-1.03881,0.52972 -2.07762,1.08732 -3.07748,1.70067c-0.15582,0.0697 -0.32463,0.25092 -0.57135,0.16728z" class="st6"/>
   <path stroke="null" id="svg_9" d="m170.42524,199.20152c0.79209,0 1.49329,0.39032 2.22046,0.59942c2.2724,0.68306 4.57077,0.54366 6.86913,0.1394c2.09061,-0.37638 4.20718,-0.46002 6.32376,-0.51578c3.24628,-0.09758 6.44062,-0.5576 9.54407,-1.61703c2.20747,-0.75276 3.93449,-2.21645 5.42778,-4.04259c1.2206,-1.47763 2.25941,-3.09467 3.03852,-4.87898c1.27254,-2.89951 3.11643,-5.29718 5.25898,-7.47181c0.87,-0.87822 1.68807,-1.81219 2.42822,-2.81587c0.20776,0.23698 0.36358,0 0.49343,-0.08364c2.40225,-1.42187 4.46688,-3.30377 6.32376,-5.45052c4.1033,-4.75352 8.54421,-9.08885 13.93304,-12.12776c2.68792,-1.51945 5.51868,-2.53707 8.59615,-2.53707c1.74001,0 3.38912,0.4879 4.89539,1.44975c1.38941,0.87822 1.9218,2.23039 1.58419,3.95895c-0.33761,1.77037 -1.16866,3.26195 -2.23344,4.62806c-1.6621,2.11887 -3.46703,4.09835 -5.22002,6.13358c-2.10359,2.42555 -4.14226,4.89292 -6.25883,7.29059c-2.33732,2.63465 -5.07719,4.73958 -7.90794,6.733c-3.18136,2.23039 -6.18092,4.72564 -9.08959,7.33241c-0.99985,0.89216 -1.84389,1.93765 -2.55807,3.09467c-1.28553,2.09099 -2.72688,4.05653 -3.63584,6.39844c-0.11687,0.32062 -0.37657,0.7667 -0.05194,0.94792c0.31164,0.18122 0.51941,-0.29274 0.7012,-0.57154c1.12971,-1.79825 2.15553,-3.66621 3.31121,-5.45052c1.33747,-2.04917 3.15539,-3.55469 4.89539,-5.14384c3.42807,-3.10861 7.06391,-5.92448 10.88154,-8.48943c0.83105,-0.5576 1.38941,-1.42187 2.06464,-2.16069c2.46717,-2.70435 4.93435,-5.4087 7.37555,-8.14093c2.31135,-2.59283 4.7136,-5.11596 6.70033,-8.02941c0.89597,-1.31036 1.59717,-2.71829 2.15553,-4.2238c0.63627,-1.71461 0.2597,-3.13649 -0.87,-4.4329c-1.19463,-1.36612 -2.64897,-2.24433 -4.363,-2.63465c-0.37657,-0.08364 -0.75314,-0.16728 -1.12971,-0.2788c-0.9609,-0.26486 -1.06478,-0.47396 -0.62329,-1.40793c0.62329,-1.31036 1.27254,-2.60677 1.9218,-3.88925c2.35031,-4.62806 4.90838,-9.13067 7.92093,-13.31265c2.4412,-3.38741 5.10316,-6.50996 8.4663,-8.89369c2.23344,-1.57521 4.68763,-2.13281 7.32361,-1.88189c0.0909,0.01394 0.19478,0.02788 0.28567,0.05576c1.85687,0.47396 2.12956,0.93398 1.63613,2.91345c-0.7012,2.80193 -1.89583,5.36688 -3.27225,7.83425c-4.8045,8.55913 -8.76496,17.53646 -11.99826,26.9041c-0.79209,2.28615 -1.99971,4.33532 -3.2333,6.34268c-3.1424,5.10202 -6.44062,10.09252 -9.34929,15.36183c-1.49329,2.70435 -2.7918,5.52022 -3.86957,8.44761c-1.50627,4.09835 -3.89554,7.52757 -6.94704,10.45496c-4.73957,4.54442 -9.95959,8.39185 -15.06275,12.4205c-6.29779,4.97656 -12.67349,9.82767 -18.82844,15.01333c-2.83076,2.39767 -5.54465,4.93474 -8.03779,7.73667c-2.31135,2.59283 -3.50598,5.72932 -3.83061,9.28401c-0.02597,0.33456 -0.06493,0.65518 -0.11687,0.9758c-0.14284,0.82246 -0.3506,1.03156 -1.14269,1.1152c-0.23373,-0.01394 -0.46746,-0.01394 -0.7012,-0.02788c-11.02437,0 -22.04875,0 -33.08611,0c-0.27269,0 -0.54538,0 -0.80508,0c-0.53239,-0.09758 -0.6103,-0.51578 -0.57135,-0.9758c0.11687,-1.29642 0.24672,-2.59283 0.38955,-3.87531c0.37657,-3.48499 0.81806,-6.95604 1.35045,-10.41314c1.09075,-7.10937 2.35031,-14.17693 4.83047,-20.92387c1.02583,-2.80193 2.57106,-5.18566 4.50584,-7.34635c3.09046,-3.45711 6.60943,-6.3148 10.33616,-8.89369c0.29866,-0.12546 0.63627,-0.26486 0.80508,-0.6273z" class="st5"/>
   <path stroke="null" id="svg_10" d="m224.67711,163.06917c1.18165,-1.72855 2.37628,-3.45711 3.55793,-5.18566c1.72702,-2.53707 2.66195,-5.4784 3.70076,-8.36397c0.84403,-2.34191 1.70105,-4.68382 2.14255,-7.17907c0.50642,-2.87163 0.49343,-5.74326 0.12985,-8.61489c-0.11687,-0.93398 -0.2597,-1.86795 -0.38955,-2.81587c0.48045,-1.24066 0.77911,-2.53707 1.14269,-3.81955c1.0518,-3.72197 2.22046,-7.38817 3.85658,-10.87316c0.84403,-1.79825 1.84389,-3.51287 3.41509,-4.69776c2.80479,-2.10493 5.75241,-2.16069 8.67407,-0.33456c0.46746,0.29274 0.51941,0.6273 0.20776,1.28248c-0.88299,1.82613 -1.54523,3.73591 -2.10359,5.70144c-1.38941,4.9208 -2.41523,9.93918 -3.31121,14.98545c-0.64926,3.69409 -1.19463,7.40211 -1.67508,11.12408c-0.14284,1.05944 -0.28567,2.11887 -0.40254,3.19225c-0.18179,1.58915 -0.89597,2.92739 -1.6621,4.25168c-0.63627,1.1152 -1.2206,2.25827 -1.68807,3.45711c-0.45448,1.15702 -1.23359,1.72855 -2.35031,1.90977c-4.76554,0.79458 -8.86884,3.03891 -12.37483,6.57966c-0.24672,0.25092 -0.51941,0.47396 -0.81806,0.75276c-0.18179,-0.47396 0.01299,-0.92004 -0.05194,-1.35218z" class="st5"/>
   <path stroke="null" id="svg_11" d="m214.57468,160.49028c-0.81806,1.53339 -2.11658,2.53707 -3.42807,3.51287c-0.19478,0.15334 -0.27269,0.1394 -0.36358,-0.12546c-0.14284,-0.43214 -0.0909,-0.86428 -0.06493,-1.28248c0.15582,-2.87163 -0.06493,-5.72932 -0.23373,-8.58701c-0.15582,-2.69041 -0.55836,-5.36688 -0.63627,-8.07123c-0.01299,-0.29274 0.01299,-0.57154 0.02597,-0.86428c0.55836,-1.53339 1.11672,-3.08073 1.98672,-4.44684c1.20762,-1.88189 3.22031,-2.69041 5.25898,-2.10493c1.01284,0.29274 1.29851,0.82246 1.10374,1.92371c-0.28567,1.51945 -0.36358,3.06679 -0.42851,4.61412c-0.0909,1.81219 0,3.63833 -0.18179,5.45052c-0.14284,1.394 -0.7012,2.64859 -1.14269,3.94501c-0.59732,1.74249 -1.33747,3.42923 -1.79195,5.22748c-0.06493,0.25092 -0.23373,0.50184 -0.10388,0.80852z" class="st5"/>
   <path stroke="null" id="svg_12" d="m233.10445,128.83265c-1.45433,-3.01103 -3.83061,-5.04626 -6.36271,-6.92816c0.71418,-0.94792 1.33747,-1.96553 2.16852,-2.80193c1.62314,-1.61703 3.51897,-2.55101 5.71346,-2.80193c0.50642,-0.05576 0.99985,0.02788 1.4803,0.15334c0.58433,0.16728 0.77911,0.52972 0.62329,1.15702c-0.29866,1.1849 -0.75314,2.30009 -1.16866,3.42923c-0.92194,2.49525 -1.85687,4.97656 -2.37628,7.61121c0,0.08364 -0.05194,0.12546 -0.07791,0.18122z" class="st5"/>
   <path stroke="null" id="svg_13" d="m223.2877,133.76739c0.63627,0.29274 0.84403,0.92004 1.02583,1.56127c0.74015,2.50919 0.50642,5.01838 -0.07791,7.51363c-1.10374,4.76746 -3.22031,9.00521 -5.98614,12.88051c-0.54538,0.7667 -0.92194,1.67279 -1.68807,2.25827c0.79209,-2.78799 1.8309,-5.46446 2.68792,-8.22457c1.55822,-5.00444 2.85673,-10.09252 3.88255,-15.26425c0.06493,-0.25092 0.11687,-0.4879 0.15582,-0.72488z" class="st5"/>
   <path stroke="null" id="svg_14" d="m220.61276,168.56151c0,-0.50184 0.20776,-0.92004 0.51941,-1.2546c0.45448,-0.51578 0.94791,-0.98974 1.42836,-1.49157" class="st7"/>
   <path stroke="null" id="svg_15" d="m93.64418,186.20949c3.41509,1.75643 6.83018,3.51287 10.25825,5.25536c6.55749,3.37347 13.12796,6.733 19.68545,10.10646c0.20776,0.11152 0.40254,0.25092 0.59732,0.37638c0.18179,0.46002 0.55836,0.72488 0.90896,1.00368c3.29822,2.56495 6.27182,5.46446 8.70004,9.00521c1.33747,1.96553 2.12956,4.19593 2.85673,6.4542c1.88284,5.85478 3.01255,11.90472 3.93449,17.99648c0.71418,4.68382 1.29851,9.39553 1.80493,14.12117c0.03896,0.36244 0.03896,0.73882 0.02597,1.1152c-0.01299,0.37638 -0.12985,0.697 -0.55836,0.72488c-11.72557,0 -23.45114,0 -35.17671,0c-0.32463,-0.15334 -0.37657,-0.4879 -0.42851,-0.82246c-0.19478,-1.15702 -0.3506,-2.32797 -0.58433,-3.47105c-0.55836,-2.87163 -1.88284,-5.31112 -3.77867,-7.38817c-3.76569,-4.14017 -8.02481,-7.66697 -12.29692,-11.1659c-6.75227,-5.52022 -13.7123,-10.7477 -20.50352,-16.19822c-3.1424,-2.52313 -6.32376,-4.9905 -9.23243,-7.84819c-3.18136,-3.15043 -5.47972,-6.90028 -6.97301,-11.2356c-1.23359,-3.58257 -3.11643,-6.8027 -4.99927,-10.02282c-2.67494,-4.61412 -5.55763,-9.07491 -8.38839,-13.57751c-1.5712,-2.49525 -2.63598,-5.25536 -3.62285,-8.05729c-2.92165,-8.23851 -6.51853,-16.11458 -10.72572,-23.67004c-1.50627,-2.69041 -2.83076,-5.49234 -3.60987,-8.54519c-0.0909,-0.33456 -0.14284,-0.68306 -0.20776,-1.03156c0.03896,-1.00368 0.29866,-1.33824 1.28553,-1.58915c2.623,-0.66912 5.12913,-0.2788 7.46645,1.15702c2.84374,1.75643 5.18107,4.14017 7.28466,6.8027c4.20718,5.32506 7.5963,11.22166 10.59586,17.39706c0.33761,0.697 0.75314,1.33824 1.11672,2.02129c0.57135,1.07338 0.2597,1.77037 -0.87,1.90977c-2.31135,0.26486 -4.16823,1.38006 -5.60958,3.30377c-0.76612,1.01762 -0.9609,2.16069 -0.6103,3.44317c0.54538,1.97947 1.5712,3.66621 2.75285,5.25536c2.20747,2.98315 4.67465,5.71538 7.18078,8.41973c2.29837,2.48131 4.58375,4.96262 6.7263,7.59727c0.74015,0.9061 1.63613,1.61703 2.58404,2.27221c4.40196,3.03891 8.5572,6.39844 12.46572,10.1204c1.32448,1.26854 2.45419,2.67647 3.38912,4.27956c0.68821,1.19884 1.38941,2.38373 2.09061,3.56863c0.27269,0.47396 0.57135,0.92004 1.01284,1.28248c0.27269,-0.57154 0.0909,-1.05944 -0.12985,-1.50551c-1.88284,-3.83349 -4.1942,-7.31847 -7.2457,-10.1901c-2.66195,-2.49525 -5.68749,-4.46078 -8.53123,-6.67724c-1.29851,-1.00368 -2.64897,-1.92371 -3.96046,-2.88557c-1.23359,-0.9061 -2.16852,-2.16069 -3.16837,-3.33165c-3.53195,-4.07047 -7.06391,-8.14093 -10.55691,-12.23928c-1.33747,-1.57521 -2.57106,-3.23407 -3.16837,-5.339c-0.62329,-2.20251 -0.16881,-3.52681 1.68807,-4.68382c1.94777,-1.21278 4.07733,-1.394 6.25883,-1.17096c2.85673,0.2788 5.4148,1.49157 7.88197,2.98315c4.07733,2.45343 7.63526,5.63174 10.92049,9.18643c1.6621,1.78431 3.19434,3.69409 5.01226,5.31112c2.37628,2.11887 5.07719,3.65227 7.72615,5.29718c1.51926,0.93398 2.94762,2.04917 4.60972,2.67647c2.03867,0.75276 4.07733,1.46369 6.116,2.20251z" class="st6"/>
   <path stroke="null" id="svg_16" d="m66.15466,164.56074c-1.16866,-1.03156 -2.19449,-2.02129 -3.29822,-2.92739c-2.93464,-2.39767 -6.24585,-3.87531 -9.88168,-4.5026c-1.23359,-0.2091 -2.09061,-0.78064 -2.58404,-2.04917c-0.48045,-1.24066 -1.06478,-2.43949 -1.76598,-3.54075c-1.06478,-1.67279 -1.46732,-3.52681 -1.72702,-5.50628c-0.87,-6.56572 -1.8309,-13.10355 -3.18136,-19.58563c-0.87,-4.19593 -1.88284,-8.33609 -3.38912,-12.32292c-0.20776,-0.5576 -0.45448,-1.08732 -0.68821,-1.63097c-0.33761,-0.80852 -0.22075,-1.14308 0.50642,-1.53339c3.66181,-1.95159 7.40152,-1.07338 9.99855,2.32797c1.54523,2.03523 2.49314,4.39108 3.36315,6.8027c2.25941,6.27298 3.80464,12.76899 5.19405,19.30683c0.88299,4.14017 1.49329,8.35003 2.8827,12.3508c1.20762,3.47105 2.58404,6.88634 3.88255,10.31556c0.32463,0.7667 0.64926,1.51945 0.68821,2.49525z" class="st6"/>
   <path stroke="null" id="svg_17" d="m78.19188,176.36788c-1.98672,-1.05944 -3.62285,-2.43949 -5.01226,-4.19593c-1.3115,-1.64491 -2.71389,-3.22013 -4.24614,-4.642c-0.50642,-0.47396 -0.75314,-1.08732 -0.94791,-1.74249c-0.98687,-3.40135 -1.9218,-6.8724 -3.50598,-10.00888c-2.623,-5.1996 -3.55793,-10.91498 -4.81748,-16.54672c-0.92194,-4.11229 -1.54523,-8.29427 -2.55807,-12.39262c-0.68821,-2.77405 -1.88284,-5.36688 -2.80479,-8.05729c-0.11687,-0.3485 -0.24672,-0.697 -0.3506,-1.0455c-0.18179,-0.64124 -0.02597,-0.96186 0.55836,-1.21278c0.83105,-0.3485 1.6621,-0.23698 2.50613,-0.0697c3.03852,0.6273 5.18107,2.57889 6.80421,5.29718c1.68807,2.81587 2.54509,5.95236 3.09046,9.20037c1.4803,8.90763 3.85658,17.53646 6.93406,25.95619c1.71404,4.66988 3.12942,9.45129 3.90852,14.41391c0.24672,1.65885 0.32463,3.31771 0.44149,5.04626z" class="st6"/>
   <path stroke="null" id="svg_18" d="m72.94588,148.8086c0.03896,-0.5576 0.10388,-1.35218 0.12985,-2.13281c0.07791,-1.86795 -0.29866,-3.69409 -0.53239,-5.53416c-0.29866,-2.36979 0.44149,-2.81587 2.24643,-2.80193c1.85687,0.01394 3.19434,0.86428 4.18121,2.49525c1.29851,2.13281 1.93478,4.53048 2.28538,7.0118c0.62329,4.4329 1.09075,8.87975 1.76598,13.29871c0.75314,4.96262 2.25941,9.66039 4.32405,14.17693c0.85702,1.88189 1.6621,3.80561 2.24643,5.8269c0.15582,0.54366 0.37657,1.19884 -0.02597,1.58915c-0.3506,0.3485 -0.87,-0.0697 -1.25956,-0.2788c-2.46717,-1.29642 -4.99927,-2.45343 -7.42749,-3.81955c-0.80508,-0.44608 -1.24657,-1.1152 -1.36344,-2.07705c-0.9609,-8.15487 -2.85673,-16.03094 -5.84331,-23.61428c-0.48045,-1.2546 -0.74015,-2.55101 -0.72717,-4.14017z" class="st6"/>
   <path stroke="null" id="svg_19" d="m151.81755,142.5635c3.89554,0.33456 5.70047,3.22013 5.77838,6.91422c0.02597,1.14308 -0.07791,2.27221 -0.42851,3.35953c-0.72717,2.23039 -2.16852,3.59651 -4.33703,4.08441c-1.29851,0.29274 -2.61001,0.25092 -3.88255,-0.16728c-1.79195,-0.58548 -3.02553,-1.84007 -3.66181,-3.73591c-0.66224,-1.96553 -0.7012,-3.97289 -0.15582,-5.9663c0.76612,-2.76011 2.76583,-4.33532 5.54465,-4.47472c0.37657,-0.01394 0.76612,-0.01394 1.14269,-0.01394z" class="st5"/>
   <path stroke="null" id="svg_20" d="m150.33725,100.29757c0.71418,-0.18122 1.45433,-0.22304 2.16852,-0.23698c1.45433,-0.04182 2.92165,-0.01394 4.49285,-0.01394" class="st8"/>
   <path stroke="null" id="svg_21" d="m147.87007,94.44279c2.16852,0.72488 4.33703,1.46369 6.49256,2.18857c0,0.04182 -0.01299,0.09758 -0.01299,0.1394" class="st8"/>
   <path stroke="null" id="svg_22" d="m150.75277,96.93804" class="st8"/>
   <path stroke="null" id="svg_23" d="m169.63315,142.54956c0.99985,0.02788 1.94777,0.23698 2.80479,0.82246c0.77911,0.52972 1.35045,1.22672 1.54523,2.21645c0.18179,0.94792 -0.37657,1.72855 -1.18165,1.72855c-0.3506,0 -0.63627,-0.12546 -0.84403,-0.44608c-0.15582,-0.25092 -0.31164,-0.51578 -0.45448,-0.79458c-0.76612,-1.46369 -2.46717,-1.96553 -3.81763,-1.1152c-1.0518,0.66912 -1.0518,1.84007 0,2.48131c0.64926,0.40426 1.37642,0.52972 2.07762,0.72488c0.89597,0.25092 1.77896,0.50184 2.63598,0.89216c3.05151,1.38006 2.50613,5.31112 0.83105,6.76088c-1.97374,1.70067 -5.89525,1.70067 -7.75212,-0.09758c-0.74015,-0.71094 -1.24657,-1.57521 -1.28553,-2.67647c-0.02597,-0.697 0.31164,-1.1849 0.88299,-1.35218c0.54538,-0.15334 1.03881,0.09758 1.33747,0.697c0.19478,0.40426 0.37657,0.80852 0.54538,1.22672c0.81806,1.88189 3.81763,1.57521 4.64868,0.3485c0.58433,-0.86428 0.42851,-1.92371 -0.45448,-2.50919c-0.67523,-0.46002 -1.46732,-0.58548 -2.23344,-0.79458c-0.90896,-0.23698 -1.8309,-0.50184 -2.66195,-0.9758c-1.18165,-0.68306 -1.84389,-1.72855 -1.8309,-3.19225c0.01299,-1.47763 0.66224,-2.56495 1.85687,-3.24801c1.03881,-0.59942 2.19449,-0.71094 3.35016,-0.697z" class="st5"/>
   <path stroke="null" id="svg_24" d="m132.59956,142.54956c1.55822,-0.02788 3.03852,0.22304 4.18121,1.50551c0.48045,0.54366 0.79209,1.17096 0.77911,1.93765c0,0.59942 -0.3506,1.12914 -0.83105,1.28248c-0.53239,0.18122 -0.97388,-0.01394 -1.32448,-0.58548c-0.11687,-0.19516 -0.22075,-0.39032 -0.32463,-0.58548c-0.76612,-1.50551 -2.49314,-2.00735 -3.85658,-1.12914c-0.45448,0.29274 -0.77911,0.697 -0.76612,1.29642c0.02597,0.57154 0.36358,0.92004 0.81806,1.1849c0.79209,0.46002 1.67508,0.59942 2.51911,0.8364c0.7012,0.2091 1.40239,0.4182 2.07762,0.72488c1.3115,0.59942 2.15553,1.58915 2.24643,3.16437c0.10388,1.64491 -0.44149,2.99709 -1.75299,3.93107c-0.99985,0.71094 -2.12956,0.94792 -3.29822,0.96186c-1.67508,0.01394 -3.27225,-0.29274 -4.44091,-1.78431c-0.51941,-0.65518 -0.89597,-1.394 -0.90896,-2.28615c-0.01299,-0.66912 0.29866,-1.14308 0.85702,-1.31036c0.53239,-0.15334 1.01284,0.04182 1.32448,0.61336c0.16881,0.29274 0.27269,0.64124 0.41552,0.94792c0.79209,1.75643 3.11643,2.28615 4.51882,1.03156c0.94791,-0.85034 0.87,-2.14675 -0.16881,-2.85769c-0.54538,-0.37638 -1.18165,-0.50184 -1.79195,-0.66912c-0.97388,-0.26486 -1.94777,-0.4879 -2.85673,-0.96186c-1.36344,-0.697 -2.11658,-1.79825 -2.05165,-3.47105c0.06493,-1.57521 0.84403,-2.60677 2.14255,-3.24801c0.80508,-0.36244 1.63613,-0.50184 2.49314,-0.52972z" class="st5"/>
   <path stroke="null" id="svg_25" d="m147.935,165.71776c0,-0.82246 -0.01299,-1.65885 0,-2.48131c0.01299,-0.73882 0.16881,-0.94792 0.83105,-0.96186c1.11672,-0.02788 2.23344,-0.01394 3.35016,0c0.3506,0 0.67523,0.08364 0.66224,0.57154c-0.01299,0.4879 -0.33761,0.54366 -0.68821,0.54366c-0.80508,0.01394 -1.62314,0.01394 -2.42822,0c-0.33761,-0.01394 -0.41552,0.11152 -0.41552,0.44608c-0.01299,1.21278 -0.02597,1.21278 1.09075,1.21278c0.53239,0 1.07777,0 1.61016,0c0.32463,0 0.55836,0.1394 0.55836,0.54366c0,0.40426 -0.24672,0.52972 -0.57135,0.52972c-0.76612,0 -1.54523,0.01394 -2.31135,0c-0.29866,-0.01394 -0.38955,0.08364 -0.38955,0.4182c-0.03896,1.51945 -0.05194,1.51945 1.32448,1.51945c0.55836,0 1.11672,0 1.67508,0c0.36358,0 0.66224,0.15334 0.64926,0.59942c-0.01299,0.4182 -0.28567,0.52972 -0.63627,0.52972c-1.16866,0 -2.35031,0 -3.51897,0c-0.6103,0 -0.79209,-0.19516 -0.79209,-0.85034c-0.01299,-0.87822 0,-1.74249 0,-2.62071z" class="st5"/>
   <path stroke="null" id="svg_26" d="m141.96184,165.74564c0,-0.82246 0,-1.65885 0,-2.48131c0,-0.7667 0.16881,-0.9758 0.87,-0.98974c0.76612,-0.01394 1.54523,0 2.31135,0.04182c1.02583,0.0697 1.6621,0.75276 1.71404,1.78431c0.06493,1.31036 -0.44149,2.09099 -1.51926,2.31403c-0.46746,0.09758 -0.9609,0.16728 -1.42836,0.09758c-0.55836,-0.0697 -0.68821,0.18122 -0.63627,0.72488c0.03896,0.43214 0.01299,0.86428 0,1.29642c-0.01299,0.44608 -0.19478,0.7667 -0.66224,0.75276c-0.46746,0 -0.64926,-0.32062 -0.64926,-0.7667c0,-0.9061 0,-1.84007 0,-2.77405z" class="st5"/>
   <path stroke="null" id="svg_27" d="m155.37548,166.20566c0,-0.73882 -0.01299,-1.49157 0.01299,-2.23039c0.01299,-0.39032 -0.06493,-0.57154 -0.46746,-0.52972c-0.33761,0.04182 -0.68821,0.01394 -1.03881,0c-0.33761,0 -0.55836,-0.16728 -0.57135,-0.54366c-0.02597,-0.37638 0.18179,-0.59942 0.51941,-0.59942c1.4803,-0.01394 2.96061,-0.01394 4.44091,0c0.33761,0 0.51941,0.23698 0.50642,0.61336c-0.02597,0.3485 -0.23373,0.51578 -0.53239,0.52972c-0.36358,0.01394 -0.72717,0.02788 -1.09075,0c-0.36358,-0.02788 -0.45448,0.09758 -0.45448,0.4879c0.02597,1.46369 0.01299,2.94133 0.01299,4.40502c0,0.26486 0.01299,0.54366 -0.16881,0.7667c-0.19478,0.23698 -0.44149,0.25092 -0.68821,0.18122c-0.32463,-0.09758 -0.44149,-0.37638 -0.44149,-0.71094c-0.03896,-0.79458 -0.03896,-1.58915 -0.03896,-2.36979z" class="st5"/>
   <path stroke="null" id="svg_28" d="m142.46826,155.63917c0,0.8364 -0.58433,1.46369 -1.35045,1.44975c-0.80508,-0.01394 -1.36344,-0.6273 -1.35045,-1.50551c0.01299,-0.8364 0.59732,-1.44975 1.36344,-1.42187c0.76612,0.02788 1.33747,0.66912 1.33747,1.47763z" class="st5"/>
   <path stroke="null" id="svg_29" d="m158.99833,155.62523c0,-0.82246 0.58433,-1.46369 1.33747,-1.46369c0.77911,0 1.37642,0.64124 1.36344,1.50551c-0.01299,0.82246 -0.6103,1.44975 -1.36344,1.43581c-0.76612,-0.01394 -1.33747,-0.64124 -1.33747,-1.47763z" class="st5"/>
  </g>
  <circle stroke="null" id="svg_30" r="130.42" cy="149.26" cx="146.50001" class="st9"/>
 </g>
</svg>