<svg width="750" height="130" xmlns="http://www.w3.org/2000/svg">
 <!-- Created with Method Draw - http://github.com/duopixel/Method-Draw/ -->

 <g>
  <title>background</title>
  <rect fill="#fff" id="canvas_background" height="132" width="752" y="-1" x="-1"/>
  <g display="none" overflow="visible" y="0" x="0" height="100%" width="100%" id="canvasGrid">
   <rect fill="url(#gridpattern)" stroke-width="0" y="0" x="0" height="100%" width="100%"/>
  </g>
 </g>
 <g>
  <title>Layer 1</title>
  <style transform="matrix(0.10679653799616862,0,0,0.10679653799616862,0,0) " type="text/css">.st0{fill:#333333;}
	.st1{fill:#FFFFFF;}
	.st2{fill:#C2AA66;}
	.st3{fill:#030303;}</style>
  <path stroke="null" id="svg_5" d="m205.34102,271.837" class="st0"/>
  <g stroke="null" transform="matrix(0.5866964929335423,0,0,0.519250801325798,-2005.2971871931402,-1218.7202238312036) " id="svg_6">
   <g stroke="null" id="svg_7">
    <path stroke="null" id="svg_8" d="m3673.93266,2489.01582c0.89,-1.15 1.46,-2.58 2.8,-3.36c0.01,0.54 -0.3,1.07 -0.09,1.75c1.19,-1.03 2.26,-2.04 3.41,-2.93c4.01,-3.14 8.58,-5.04 13.59,-5.84c1.25,-0.2 2.03,-0.66 2.59,-1.88c0.96,-2.09 2.1,-4.11 3.3,-6.07c0.7,-1.14 0.96,-2.34 1.15,-3.61c0.69,-4.74 1.25,-9.5 2.16,-14.19c0.91,-4.75 1.75,-9.52 2.99,-14.21c1.17,-4.39 2.27,-8.79 4.38,-12.86c0.33,-0.63 0.32,-1.08 -0.32,-1.44c-1.83,-1.01 -3.82,-1.7 -5.87,-1.5c-3.19,0.32 -5.78,1.87 -7.68,4.55c-1.8,2.53 -2.95,5.37 -4.08,8.23c-1.59,3.99 -2.7,8.14 -4,12.22c-0.51,-0.76 -0.75,-1.62 -0.92,-2.51c0.12,-0.49 0.23,-0.98 0.35,-1.47c0.97,-3.84 2.66,-7.42 4,-11.13c0.57,-1.59 0.36,-2.1 -1.3,-2.28c-1.22,-0.13 -2.41,0.08 -3.58,0.45c-3.35,1.03 -5.69,3.29 -7.51,6.18c-2.74,-1.1 -5.51,-2.07 -8.44,-2.5c-4.78,-0.71 -9.04,-0.16 -12.67,3.68c-2.06,2.18 -2.95,6.68 -1.6,9.86c0.66,1.55 2.11,2.07 3.65,1.41c0.41,-0.18 0.81,-0.39 1.17,-0.66c2.07,-1.5 4.39,-1.99 6.91,-1.85c2.92,0.16 5.09,1.5 6.56,4c-1.17,5.88 -2.78,11.65 -4.58,17.38c-1.2,3.81 -2.77,7.49 -3.95,11.31c-0.85,1.13 -1.71,2.25 -2.77,3.2c0.55,-2.57 1.68,-4.94 2.59,-7.38c0.59,-1.61 1.34,-3.14 1.48,-4.92c0.3,-3.94 -0.06,-7.92 0.79,-11.84c0.27,-1.26 -0.32,-1.83 -1.62,-2.15c-2.52,-0.61 -5.03,0.4 -6.5,2.62c-1.13,1.71 -1.92,3.59 -2.55,5.53c0.05,-1.29 -0.38,-2.52 -0.47,-3.81c-0.21,-3.06 -0.48,-6.13 -0.93,-9.17c-0.66,-4.42 -2.36,-8.51 -4.25,-12.53c-1.7,-3.6 -3.41,-7.19 -4.59,-11c-1.26,-4.1 -1.11,-8.22 0.02,-12.32c0.4,-1.45 0.52,-1.47 1.86,-0.9c1.59,0.68 3.14,1.47 4.76,2.07c2.28,0.85 4.46,1.98 6.9,2.36c0.98,0.15 2.25,0.66 2.74,-0.53c0.42,-1.01 -0.71,-1.64 -1.42,-2.27c-2.2,-1.95 -4.92,-2.98 -7.52,-4.23c-0.77,-0.37 -1.61,-0.62 -2.51,-1.54c3.08,0 5.76,-0.01 8.44,0.01c0.97,0.01 1.92,-0.08 2.86,-0.28c0.72,-0.15 1.45,-0.36 1.48,-1.24c0.03,-0.94 -0.68,-1.31 -1.46,-1.53c-0.3,-0.08 -0.64,-0.09 -0.95,-0.08c-2.31,0.04 -4.62,-0.09 -6.93,0.11c-1.57,0.14 -3.14,0.05 -5.18,-0.34c1.53,-0.72 2.74,-1.01 3.94,-1.3c2.61,-0.64 5.27,-1.12 7.73,-2.29c0.7,-0.33 1.38,-0.7 1.88,-1.31c0.72,-0.87 0.45,-1.71 -0.64,-2.06c-0.5,-0.16 -1,-0.09 -1.52,0.02c-1.2,0.24 -2.36,0.57 -3.53,0.93c-1.34,0.42 -2.72,0.74 -4.09,1.09c-0.25,0.06 -0.52,0.14 -0.73,-0.08c-0.28,-0.29 -0.09,-0.59 0.04,-0.88c0.05,-0.12 0.12,-0.23 0.18,-0.34c3.64,-6.35 5.12,-13.17 4.64,-20.48c-0.28,-4.29 -1.16,-8.37 -3.13,-12.19c-0.67,-1.3 -1.21,-2.69 -2.24,-3.8c-0.55,-0.59 -1.05,-0.68 -1.58,-0.01c-1.71,2.17 -3.7,4.08 -5.39,6.27c-2.66,3.45 -5.46,6.8 -8.13,10.24c-0.68,0.88 -1.26,1.03 -2.25,0.56c-4.97,-2.36 -10.28,-2.58 -15.63,-2.21c-4.12,0.29 -8.09,1.31 -11.98,2.68c-1.63,0.58 -1.65,0.54 -2.38,-0.88c-2.18,-4.3 -5.29,-7.85 -8.96,-10.93c-0.73,-0.61 -1.61,-1.05 -2.24,-1.79c-0.1,-0.78 -0.51,-1.45 -0.84,-2.14c-1.83,-3.88 -4.8,-6.79 -8.06,-9.44c-3.77,-3.06 -8.1,-5.16 -12.56,-7c-2.94,-1.21 -5.99,-1.7 -9.2,-1.5c-2.37,0.15 -4.51,0.96 -6.66,1.78c-1.35,0.52 -2.73,0.76 -4.14,0.67c-3.4,-0.24 -6.8,-0.1 -10.2,-0.12c-2.13,-0.01 -4.34,0.15 -6.17,1.23c-2.59,1.54 -5.06,1.48 -7.86,0.68c-4.43,-1.27 -8.76,-0.67 -12.85,1.51c-1.19,0.63 -2.39,1.25 -3.61,1.83c-5.65,2.67 -10.48,6.45 -14.78,10.92c-1.96,2.04 -3.67,4.28 -4.85,6.9c-2.78,6.2 -2.83,12.55 -1,18.98c0.71,2.47 2.21,4.51 4.07,6.21c2.96,2.71 8.38,1.79 10.88,-1.71c1.91,-2.68 2.35,-5.79 2.61,-8.93c0.21,-2.5 0.43,-4.99 1.58,-7.28c0.51,-1.02 0.95,-2.08 2.11,-2.78c1.3,1.81 1.95,3.8 2.44,5.86c0.79,3.31 1.35,6.66 1.91,10.01c0.63,3.74 0.43,7.41 -0.18,11.09c-0.65,3.9 -2.35,7.45 -4,11c-2.24,4.84 -4.32,9.74 -5.77,14.88c-1.32,4.69 -2.48,9.43 -4.06,14.04c-1.51,4.41 -2.26,8.98 -2.41,13.6c-0.33,9.95 0.15,19.88 1.87,29.71c1.41,8.05 3.48,15.91 7.3,23.22c0.18,0.35 0.62,0.73 0.09,1.22c-2.28,-0.77 -4.57,-1.57 -6.87,-2.33c-0.97,-0.32 -1.95,-0.62 -2.84,-1.13c-2.99,-1.73 -5.99,-3.45 -8.98,-5.2c-3,-1.76 -5.73,-3.88 -8.12,-6.41c-4.45,-4.72 -9.07,-9.23 -14.61,-12.71c-4.54,-2.85 -9.19,-5.28 -14.78,-5.13c-2.3,0.06 -4.45,0.59 -6.33,1.89c-1.46,1.01 -2.17,2.42 -1.69,4.34c0.34,1.33 0.82,2.54 1.57,3.68c1.21,1.83 2.66,3.44 4.15,5.04c4.25,4.54 8.43,9.12 12.69,13.65c1.05,1.11 2.04,2.32 3.33,3.16c4.24,2.77 8.32,5.76 12.48,8.64c5.31,3.68 9.19,8.48 12.23,14.06c0.38,0.71 0.92,1.48 0.54,2.55c-1.12,-0.87 -1.56,-2.03 -2.22,-3.02c-1.6,-2.39 -2.94,-4.99 -5.09,-6.96c-5.35,-4.91 -11.13,-9.26 -17.24,-13.17c-1.15,-0.74 -2.18,-1.59 -3.04,-2.58c-3.29,-3.77 -6.87,-7.26 -10.37,-10.82c-2.56,-2.6 -5.04,-5.29 -7.3,-8.15c-1.51,-1.9 -2.83,-3.94 -3.46,-6.37c-0.37,-1.45 -0.04,-2.67 0.82,-3.78c1.41,-1.84 3.29,-3.01 5.49,-3.68c1.06,-0.32 2.68,-0.03 3.05,-1.05c0.35,-0.96 -0.78,-2.06 -1.31,-3.08c-3.3,-6.38 -6.98,-12.53 -11.35,-18.24c-3.09,-4.03 -6.47,-7.79 -10.79,-10.58c-3.16,-2.04 -6.54,-2.85 -10.24,-2c-1.74,0.4 -2.05,1.05 -1.62,2.77c0.47,1.87 1.19,3.64 2,5.39c2.17,4.65 5.05,8.92 7.43,13.45c3.3,6.29 6.24,12.72 8.77,19.36c1.26,3.29 2.54,6.58 4.52,9.53c4.14,6.16 8.39,12.26 12.24,18.61c1.79,2.95 3.56,5.93 4.78,9.18c1.7,4.55 3.99,8.73 7.46,12.19c2.23,2.22 4.57,4.31 7.08,6.21c5.31,4.02 10.69,7.95 16.06,11.88c7.03,5.14 14.14,10.18 20.94,15.62c3.7,2.96 7.37,5.95 10.7,9.33c3.08,3.12 4.95,6.77 5.38,11.16c0.07,0.7 0.33,1.37 0.41,2.07c0.08,0.77 0.53,0.93 1.18,0.89c0.32,-0.02 0.64,0 0.96,0c13.8,0 27.6,0 41.41,0c0.39,0 0.77,-0.03 1.16,0c0.96,0.07 1.24,-0.44 1.17,-1.29c-0.02,-0.26 0,-0.51 -0.03,-0.77c-0.22,-2.03 -0.46,-4.07 -0.74,-6.08c-0.91,-6.51 -1.73,-13.04 -3.18,-19.47c-0.83,-3.68 -1.6,-7.37 -2.81,-10.94c-1.07,-3.15 -2.06,-6.35 -4.05,-9.1c-3.03,-4.2 -6.8,-7.65 -10.96,-10.7c-0.52,-0.38 -1.15,-0.68 -1.49,-1.48c3.51,-0.2 6.81,-0.56 10.1,-1.01c1.79,-0.25 3.59,-0.63 5.07,-1.68c2.27,-1.62 4.82,-2.35 7.48,-2.87c1.65,-0.32 3.21,-0.87 4.71,-1.64c3.83,-1.99 7.28,-4.56 10.82,-7c0.64,0.61 1.29,1.21 1.93,1.83c2.12,2.04 4.92,2.94 7.4,4.38c3.6,2.09 7.49,3.56 11.44,4.85c-0.42,0.51 -1,0.79 -1.53,1.14c-4.69,3.05 -9.11,6.42 -12.95,10.52c-1.67,1.79 -3.3,3.64 -4.34,5.85c-2.53,5.41 -4.1,11.14 -5.36,16.96c-0.95,4.37 -1.68,8.78 -2.36,13.2c-0.37,2.46 -0.71,4.93 -1.03,7.4c-0.23,1.84 -0.37,3.69 -0.62,5.52c-0.31,2.28 -0.24,2.4 2.04,2.4c13.61,0 27.21,0 40.82,0c3.03,0 3.03,0 3.33,-3.1c0.21,-2.19 0.89,-4.23 1.82,-6.21c1.32,-2.78 3.53,-4.84 5.69,-6.9c4.78,-4.56 10.05,-8.52 15.33,-12.46c7.75,-5.78 15.62,-11.4 23.41,-17.13c4.33,-3.19 8.66,-6.39 12.6,-10.07c3.48,-3.25 6.18,-7.02 7.96,-11.4c0.9,-2.2 1.78,-4.39 2.9,-6.48c3.72,-6.96 8.27,-13.4 12.65,-19.95c2.1,-3.13 4.25,-6.24 5.59,-9.81c1.19,-3.17 2.45,-6.31 3.76,-9.43c3.11,-7.39 6.83,-14.46 10.91,-21.36c1.95,-3.31 3.75,-6.69 4.74,-10.45c0.45,-1.73 0.17,-2.36 -1.5,-2.85c-0.25,-0.07 -0.49,-0.18 -0.74,-0.21c-3.5,-0.46 -6.71,0.28 -9.67,2.24c-3.79,2.51 -6.88,5.72 -9.7,9.24c-5.23,6.53 -9.38,13.73 -13.23,21.12c-0.9,1.73 -0.86,1.75 1.11,2.23c0.37,0.09 0.75,0.17 1.13,0.25c2.27,0.51 4.15,1.69 5.63,3.45c1.03,1.23 1.52,2.59 0.97,4.26c-0.51,1.54 -1.16,2.97 -2.04,4.32c-2.04,3.13 -4.63,5.81 -7.18,8.49c-4.4,4.62 -8.98,9.08 -13.31,13.78c-0.3,0.33 -0.64,0.59 -1.03,0.83c-5.03,3.1 -9.78,6.6 -14.27,10.42c-1.55,1.32 -3.18,2.57 -4.52,4.15c-1.92,2.26 -3.33,4.86 -4.97,7.3c-0.38,0.56 -0.64,1.2 -1.31,1.46c-0.27,-0.32 -0.25,-0.53 -0.16,-0.8c0.45,-1.28 1.06,-2.48 1.82,-3.59c1.93,-2.86 3.59,-5.94 6.29,-8.2c3.68,-3.09 7.5,-6.02 11.51,-8.66c4.08,-2.68 7.96,-5.54 11.23,-9.23c3.94,-4.46 8.14,-8.7 12.13,-13.13c1.88,-2.09 3.68,-4.29 4.18,-7.22c0.31,-1.83 -0.31,-3.34 -1.84,-4.29c-3.04,-1.89 -6.39,-2.18 -9.78,-1.54c-4.73,0.89 -8.9,3.17 -12.8,5.9c-4.75,3.33 -8.92,7.3 -12.85,11.55c-2.47,2.67 -5.3,4.88 -8.53,6.54c0.42,-0.94 1.12,-1.67 1.82,-2.41c1.35,-1.42 2.96,-2.54 4.37,-3.86c1.98,-1.86 3.72,-3.98 5.56,-5.99c0.51,-0.46 1,-0.95 1.54,-1.37c0.7,-0.52 1.02,-1.15 1,-1.96zm-198.76,-1.44c-0.21,-1.73 -0.92,-2.89 -1.4,-4.14c-1.67,-4.29 -3.61,-8.47 -5.05,-12.84c-1.3,-3.95 -1.98,-8.05 -2.89,-12.1c-1.75,-7.8 -3.7,-15.55 -6.55,-23.03c-1.16,-3.05 -2.39,-6.09 -4.51,-8.64c-3.41,-4.11 -7.89,-4.93 -12.57,-2.76c-1.09,0.51 -1.17,0.88 -0.66,1.94c1.57,3.24 2.59,6.67 3.57,10.11c1.25,4.42 2.12,8.93 3.01,13.43c0.65,3.31 1.11,6.66 1.67,9.99c0.45,2.71 0.93,5.41 1.2,8.15c0.1,1.01 0.47,1.95 1,2.85c1.18,1.98 2.33,3.99 3.3,6.07c0.58,1.25 1.37,1.82 2.71,2.02c3.64,0.54 7.03,1.81 10.25,3.6c2.5,1.4 4.53,3.35 6.92,5.35zm15.27,13.96c-0.27,-2.57 -0.34,-4.68 -0.72,-6.73c-1.1,-5.86 -2.94,-11.48 -5.12,-17.04c-3.78,-9.65 -6.66,-19.58 -8.5,-29.8c-0.74,-4.12 -1.9,-8.11 -4.31,-11.62c-2.16,-3.14 -5.02,-5.27 -8.88,-5.83c-0.76,-0.11 -1.54,-0.14 -2.29,0.08c-1.03,0.3 -1.28,0.72 -0.92,1.7c0.64,1.74 1.33,3.45 2.01,5.18c0.91,2.32 1.89,4.63 2.39,7.08c0.48,2.37 1.07,4.71 1.54,7.08c0.9,4.5 1.91,8.98 3.05,13.43c0.92,3.58 1.73,7.22 3.63,10.48c0.64,1.1 1.09,2.31 1.6,3.48c1.44,3.36 2.58,6.83 3.7,10.3c0.2,0.62 0.47,1.16 0.98,1.6c2.43,2.1 4.53,4.52 6.69,6.89c1.34,1.49 3.02,2.49 5.15,3.72zm14.45,7.68c0.51,-0.84 0.18,-1.6 -0.05,-2.3c-0.4,-1.21 -0.86,-2.4 -1.38,-3.57c-1.24,-2.81 -2.6,-5.56 -3.76,-8.4c-1.77,-4.33 -2.73,-8.88 -3.45,-13.5c-0.68,-4.35 -1.19,-8.72 -1.82,-13.07c-0.46,-3.19 -1.27,-6.28 -3.08,-9.02c-1.13,-1.71 -2.69,-2.73 -4.76,-2.83c-3.11,-0.15 -3.69,0.65 -3.24,3.73c0.35,2.45 0.86,4.88 0.53,7.43c-0.26,2.01 -0.01,4.06 0.82,6.02c3.82,8.99 6.24,18.37 7.47,28.05c0.16,1.24 0.75,1.96 1.81,2.46c2.25,1.08 4.43,2.33 6.75,3.22c1.41,0.56 2.63,1.56 4.16,1.78z" class="st1"/>
    <path stroke="null" id="svg_9" d="m3587.01266,2517.48582c-3.53,2.45 -6.98,5.02 -10.81,7c-1.49,0.77 -3.06,1.32 -4.71,1.64c-2.66,0.52 -5.22,1.25 -7.48,2.87c-1.48,1.06 -3.28,1.44 -5.07,1.68c-3.29,0.45 -6.59,0.81 -10.1,1.01c0.33,0.8 0.97,1.1 1.49,1.48c4.16,3.05 7.93,6.5 10.96,10.7c1.98,2.75 2.97,5.95 4.05,9.1c1.22,3.57 1.98,7.26 2.81,10.94c1.45,6.43 2.27,12.96 3.18,19.47c0.28,2.02 0.52,4.05 0.74,6.08c0.03,0.25 0.01,0.51 0.03,0.77c0.07,0.85 -0.22,1.36 -1.17,1.29c-0.38,-0.03 -0.77,0 -1.16,0c-13.8,0 -27.6,0 -41.41,0c-0.32,0 -0.64,-0.02 -0.96,0c-0.65,0.04 -1.1,-0.12 -1.18,-0.89c-0.08,-0.7 -0.34,-1.37 -0.41,-2.07c-0.42,-4.39 -2.3,-8.04 -5.38,-11.16c-3.34,-3.38 -7,-6.37 -10.7,-9.33c-6.81,-5.44 -13.92,-10.48 -20.94,-15.62c-5.37,-3.93 -10.75,-7.86 -16.06,-11.88c-2.51,-1.9 -4.85,-3.99 -7.08,-6.21c-3.47,-3.45 -5.76,-7.64 -7.46,-12.19c-1.22,-3.26 -2.99,-6.23 -4.78,-9.18c-3.86,-6.35 -8.1,-12.44 -12.24,-18.61c-1.98,-2.95 -3.27,-6.24 -4.52,-9.53c-2.53,-6.63 -5.47,-13.07 -8.77,-19.36c-2.38,-4.54 -5.26,-8.8 -7.43,-13.45c-0.81,-1.74 -1.54,-3.51 -2,-5.39c-0.43,-1.72 -0.12,-2.37 1.62,-2.77c3.7,-0.86 7.08,-0.04 10.24,2c4.32,2.79 7.7,6.54 10.79,10.58c4.38,5.71 8.05,11.86 11.35,18.24c0.52,1.01 1.66,2.12 1.31,3.08c-0.37,1.02 -1.99,0.73 -3.05,1.05c-2.2,0.67 -4.08,1.85 -5.49,3.68c-0.86,1.12 -1.19,2.33 -0.82,3.78c0.63,2.43 1.95,4.47 3.46,6.37c2.26,2.86 4.74,5.54 7.3,8.15c3.5,3.56 7.08,7.05 10.37,10.82c0.87,0.99 1.89,1.84 3.04,2.58c6.11,3.91 11.89,8.27 17.24,13.17c2.15,1.97 3.48,4.57 5.09,6.96c0.66,0.99 1.1,2.15 2.22,3.02c0.38,-1.07 -0.16,-1.85 -0.54,-2.55c-3.04,-5.58 -6.92,-10.38 -12.23,-14.06c-4.16,-2.88 -8.24,-5.88 -12.48,-8.64c-1.3,-0.85 -2.29,-2.05 -3.33,-3.16c-4.25,-4.53 -8.44,-9.12 -12.69,-13.65c-1.49,-1.59 -2.94,-3.21 -4.15,-5.04c-0.75,-1.14 -1.23,-2.35 -1.57,-3.68c-0.48,-1.91 0.23,-3.33 1.69,-4.34c1.87,-1.3 4.03,-1.83 6.33,-1.89c5.58,-0.15 10.23,2.28 14.78,5.13c5.54,3.48 10.16,7.99 14.61,12.71c2.39,2.54 5.12,4.65 8.12,6.41c2.98,1.75 5.98,3.47 8.98,5.2c0.89,0.51 1.87,0.81 2.84,1.13c2.3,0.76 4.6,1.55 6.87,2.33c0,0 -0.15,-0.45 -0.4,-1.22c-1.43,-4.3 -6.19,-18.72 -6.98,-23.22c-1.72,-9.82 -2.21,-19.76 -1.87,-29.71c0.15,-4.61 0.9,-9.18 2.41,-13.6c1.58,-4.61 2.74,-9.35 4.06,-14.04c1.44,-5.14 3.53,-10.04 5.77,-14.88c1.64,-3.55 3.35,-7.1 4,-11c0.61,-3.68 0.81,-7.36 0.18,-11.09c-0.57,-3.35 -1.13,-6.7 -1.91,-10.01c-0.49,-2.06 -1.14,-4.05 -2.44,-5.86c-1.16,0.69 -1.61,1.76 -2.11,2.78c-1.14,2.29 -1.36,4.78 -1.58,7.28c-0.27,3.14 -0.7,6.25 -2.61,8.93c-2.5,3.5 -7.92,4.42 -10.88,1.71c-1.86,-1.71 -3.36,-3.74 -4.07,-6.21c-1.84,-6.43 -1.79,-12.78 1,-18.98c1.17,-2.62 2.89,-4.86 4.85,-6.9c4.3,-4.47 9.13,-8.26 14.78,-10.92c1.22,-0.58 2.42,-1.19 3.61,-1.83c4.09,-2.18 8.42,-2.77 12.85,-1.51c2.79,0.8 5.26,0.85 7.86,-0.68c1.83,-1.08 4.03,-1.24 6.17,-1.23c3.4,0.02 6.8,-0.11 10.2,0.12c1.41,0.1 2.79,-0.15 4.14,-0.67c2.15,-0.82 4.29,-1.63 6.66,-1.78c3.21,-0.2 6.27,0.29 9.2,1.5c4.46,1.84 8.79,3.94 12.56,7c3.26,2.64 6.23,5.56 8.06,9.44c0.33,0.69 0.73,1.36 0.84,2.14c-0.58,-0.09 -1.07,-0.4 -1.57,-0.66c-0.96,-0.51 -1.99,-0.86 -3.05,-1.09c-1.25,-0.27 -1.38,-0.14 -1.59,1.11c-0.35,2.02 -0.41,4.05 -0.45,6.09c-0.06,3.31 -0.08,6.62 -0.11,9.93c-0.72,-0.26 -1.47,-0.45 -2.16,-0.78c-2.41,-1.17 -4.74,-2.51 -6.98,-4c-0.54,-0.36 -1.03,-0.94 -1.74,-0.89c-0.3,0.34 -0.34,0.65 -0.37,0.97c-0.22,2.14 0.05,4.2 0.94,6.17c1.12,2.46 1.17,4.93 0.15,7.43c-0.24,0.59 -0.4,1.21 -0.62,1.81c-0.67,1.87 -0.8,3.74 -0.08,5.62c-0.71,1.31 -0.72,1.63 0.16,2.51c0.54,0.54 1.2,0.95 1.8,1.43c0.45,0.97 0.89,1.94 1.34,2.91c-0.81,0.14 -1.62,0.26 -2.42,0.44c-0.77,0.17 -1.51,0.44 -1.5,1.41c0.01,0.96 0.58,1.48 1.48,1.72c0.55,0.15 1.11,0.26 1.68,0.23c0.89,-0.04 1.76,0.08 2.64,0.24c0.43,1.06 0.87,2.12 1.3,3.18c-1.1,0.52 -2.21,1.02 -3.29,1.57c-0.63,0.32 -1.26,0.65 -1.71,1.21c-0.42,0.52 -0.72,1.13 -0.29,1.75c0.35,0.52 0.94,0.33 1.42,0.19c0.86,-0.26 1.7,-0.57 2.54,-0.89c0.78,-0.3 1.51,-0.71 2.37,-0.71c0.56,2.1 0.94,4.23 1.21,6.39c0.34,2.71 0.44,5.47 1.71,8c0.83,1.66 1.53,3.38 2.28,5.07c-0.09,1.71 -0.85,3.21 -1.53,4.72c-1.91,4.26 -2.68,8.81 -3.58,13.32c-0.38,1.93 -0.68,3.91 -0.46,5.91c-0.32,0.82 -0.67,0.8 -1.16,0.1c-3,-4.35 -7,-7.62 -11.35,-10.51c-1.33,-0.89 -2.64,-1.81 -4.13,-2.44c-4.86,-2.05 -9.49,-0.94 -14.19,0.74c-5.83,2.08 -10.93,10.63 -7.26,17.62c1.6,3.05 2.57,6.4 4.77,9.17c4.59,5.8 9.69,11.1 15.26,15.94c3.48,3.03 6.98,6.02 10.26,9.28c1.48,1.47 2.98,2.97 4.89,3.93c0.27,1.57 0.69,3.11 1.15,4.63c0.83,3.04 2.67,5.49 4.55,7.9z" class="st2"/>
    <path stroke="null" id="svg_10" d="m3584.51266,2417.75582c-0.86,0 -1.6,0.42 -2.37,0.71c-0.84,0.32 -1.68,0.63 -2.54,0.89c-0.48,0.15 -1.06,0.33 -1.42,-0.19c-0.43,-0.63 -0.12,-1.23 0.29,-1.75c0.45,-0.56 1.09,-0.9 1.71,-1.21c1.09,-0.55 2.19,-1.05 3.29,-1.57c2.54,-0.87 4.98,-1.92 7.17,-3.52c-2.87,0.06 -5.68,-0.06 -8.47,0.34c-0.87,-0.16 -1.75,-0.28 -2.64,-0.24c-0.57,0.03 -1.13,-0.08 -1.68,-0.23c-0.89,-0.24 -1.47,-0.76 -1.48,-1.72c-0.01,-0.97 0.74,-1.24 1.5,-1.41c0.8,-0.18 1.61,-0.29 2.42,-0.43c0.99,0.16 6.37,0.04 7.12,-0.2c-2.89,-0.93 -5.67,-1.82 -8.46,-2.72c-0.6,-0.47 -1.26,-0.89 -1.8,-1.43c-0.88,-0.87 -0.86,-1.2 -0.16,-2.51c1.93,-0.41 3.82,-0.16 5.67,0.42c2.38,0.75 4.75,1.53 7.12,2.29c0.4,0.13 0.8,0.48 1.25,0.09c0.14,-0.62 -0.25,-1.1 -0.44,-1.63c-0.64,-1.88 -1.13,-3.79 -1.54,-5.73c-0.81,-3.89 -1.17,-7.82 -1.22,-11.79c0.03,-3.31 0.05,-6.62 0.11,-9.93c0.04,-2.04 0.1,-4.07 0.45,-6.09c0.22,-1.25 0.35,-1.38 1.59,-1.11c1.06,0.23 2.09,0.59 3.05,1.09c0.51,0.27 0.99,0.57 1.57,0.66c0.63,0.74 1.51,1.18 2.24,1.8c3.67,3.08 6.77,6.63 8.96,10.93c0.72,1.43 0.75,1.46 2.38,0.88c3.89,-1.37 7.86,-2.39 11.98,-2.68c5.36,-0.38 10.66,-0.16 15.63,2.21c0.99,0.47 1.57,0.32 2.25,-0.56c2.67,-3.45 5.47,-6.79 8.13,-10.24c1.69,-2.19 3.68,-4.1 5.39,-6.27c0.53,-0.67 1.03,-0.58 1.58,0.01c1.03,1.1 1.57,2.49 2.24,3.8c1.96,3.82 2.85,7.9 3.13,12.19c0.48,7.31 -1,14.13 -4.64,20.48c-0.06,0.11 -0.13,0.22 -0.18,0.34c-0.13,0.29 -0.32,0.59 -0.04,0.88c0.2,0.21 0.48,0.14 0.73,0.08c1.37,-0.35 2.74,-0.67 4.09,-1.09c1.16,-0.37 2.33,-0.69 3.53,-0.93c0.51,-0.11 1.01,-0.18 1.52,-0.02c1.09,0.35 1.35,1.18 0.64,2.06c-0.5,0.61 -1.18,0.97 -1.88,1.31c-2.46,1.17 -5.12,1.65 -7.73,2.29c-1.2,0.29 -2.41,0.58 -3.94,1.3c2.04,0.4 3.61,0.48 5.18,0.34c2.31,-0.2 4.62,-0.08 6.93,-0.11c0.32,-0.01 0.65,0 0.95,0.08c0.78,0.21 1.49,0.59 1.46,1.53c-0.03,0.88 -0.76,1.09 -1.48,1.24c-0.95,0.2 -1.9,0.29 -2.86,0.28c-2.68,-0.02 -5.36,-0.01 -8.44,-0.01c0.9,0.93 1.74,1.18 2.51,1.54c2.6,1.24 5.32,2.28 7.52,4.23c0.71,0.63 1.83,1.26 1.42,2.27c-0.49,1.19 -1.76,0.68 -2.74,0.53c-2.44,-0.37 -4.62,-1.51 -6.9,-2.36c-1.62,-0.6 -3.17,-1.4 -4.76,-2.07c-1.34,-0.57 -1.46,-0.55 -1.86,0.9c-1.13,4.1 -1.28,8.22 -0.02,12.32c1.17,3.81 2.89,7.41 4.59,11c1.9,4.01 3.6,8.11 4.25,12.53c0.45,3.04 0.72,6.1 0.93,9.17c0.09,1.29 0.52,2.51 0.47,3.8c0.06,2.82 0.44,5.61 0.69,8.41c0.39,4.34 0.62,8.7 0.42,13.07c-0.01,0.17 0.08,0.34 0.21,0.8c1.75,-1.26 3.45,-2.32 4.5,-4.14c1.06,-0.95 1.91,-2.08 2.77,-3.2c0.84,-0.7 1.33,-1.68 1.98,-2.53c3.74,-4.86 6.56,-10.16 7.91,-16.19c0.53,-2.39 0.73,-4.8 0.15,-7.2c-0.25,-1.04 -0.48,-2.13 -1.5,-2.77c-1.47,-2.51 -3.64,-3.85 -6.56,-4c-2.51,-0.13 -4.84,0.36 -6.91,1.85c-0.36,0.26 -0.76,0.48 -1.17,0.66c-1.54,0.67 -3,0.15 -3.65,-1.41c-1.34,-3.18 -0.46,-7.69 1.6,-9.86c3.63,-3.83 7.89,-4.38 12.67,-3.68c2.93,0.43 5.71,1.41 8.44,2.5c3.26,2.18 6.31,4.57 8.04,8.25c0.16,0.89 0.41,1.74 0.92,2.5c0.14,0.88 0.3,1.76 0.42,2.64c0.57,4.02 0.59,8 -0.37,12c-0.79,3.26 -2.13,6.3 -3.29,9.42c-1.03,2.76 -2.19,5.47 -3.96,7.86c-1.45,1.95 -2.89,3.91 -4.33,5.86c-1.34,0.78 -1.91,2.2 -2.8,3.36c-0.91,1.05 -2.29,1.74 -2.48,3.32c-1.84,2.01 -3.57,4.13 -5.56,5.99c-1.41,1.32 -3.02,2.45 -4.37,3.86c-0.7,0.74 -1.4,1.46 -1.82,2.41c-1.46,1.52 -2.86,3.09 -4.39,4.53c-1.89,1.79 -3.36,3.85 -4.53,6.16c-1.1,2.17 -2.3,4.3 -3.87,6.18c-1.91,2.28 -4.04,4.31 -6.94,5.29c-3.35,1.13 -6.79,1.81 -10.33,2c-3.64,0.2 -7.29,0.19 -10.91,0.79c-3.19,0.54 -6.37,0.54 -9.47,-0.64c-0.47,-0.18 -0.99,-0.24 -1.49,-0.35c-3.95,-1.29 -7.84,-2.76 -11.44,-4.85c-2.48,-1.44 -5.28,-2.34 -7.4,-4.38c-0.64,-0.61 -1.29,-1.22 -1.93,-1.83c-1.89,-2.42 -3.72,-4.86 -4.63,-7.86c-0.46,-1.53 -0.88,-3.06 -1.15,-4.63c0.84,-0.59 1.8,-0.97 2.72,-1.42c2.3,-1.13 4.74,-1.94 6.92,-3.33c4.22,-2.69 8.35,-5.51 11.97,-8.99c4.46,-4.27 8.67,-8.75 11.02,-14.62c1.87,-4.67 3.4,-9.41 3.02,-14.54c-0.25,-3.39 -1.16,-6.55 -3.51,-9.15c-3.88,-4.29 -11.5,-6.13 -17.29,-2.67c-3.61,2.16 -7.06,4.67 -9.77,7.99c-0.77,0.94 -1.45,1.94 -2.18,2.91c-0.22,-2 0.08,-3.98 0.46,-5.91c0.89,-4.51 1.67,-9.07 3.58,-13.32c0.67,-1.5 1.43,-3.01 1.53,-4.72c0.2,-0.32 0.47,-0.62 0.61,-0.97c1.33,-3.4 3.06,-6.61 4.53,-9.95c1.01,-2.28 1.98,-4.58 2.57,-7.01c0.39,-1.57 0.51,-3.17 -0.12,-4.71c-0.58,-1.42 -1.44,-1.87 -2.88,-1.38c-3.46,1.17 -6.78,2.66 -9.9,4.54z" class="st0"/>
    <path stroke="null" id="svg_11" d="m3607.78266,2528.54582c0.5,0.11 1.02,0.17 1.49,0.35c3.09,1.18 6.28,1.17 9.47,0.64c3.62,-0.61 7.27,-0.6 10.91,-0.79c3.54,-0.19 6.98,-0.87 10.33,-2c2.9,-0.98 5.03,-3 6.94,-5.29c1.57,-1.88 2.77,-4 3.87,-6.18c1.17,-2.31 2.64,-4.37 4.53,-6.16c1.52,-1.45 2.93,-3.02 4.39,-4.53c3.24,-1.67 6.06,-3.87 8.53,-6.54c3.93,-4.25 8.1,-8.22 12.85,-11.55c3.9,-2.73 8.07,-5.01 12.8,-5.9c3.38,-0.64 6.74,-0.35 9.78,1.54c1.53,0.95 2.15,2.46 1.84,4.29c-0.5,2.93 -2.3,5.13 -4.18,7.22c-3.99,4.42 -8.19,8.66 -12.13,13.13c-3.27,3.7 -7.15,6.55 -11.23,9.23c-4.02,2.64 -7.83,5.57 -11.51,8.66c-2.7,2.27 -4.36,5.34 -6.29,8.2c-0.75,1.12 -1.36,2.32 -1.82,3.59c-0.1,0.27 -0.11,0.48 0.16,0.8c0.67,-0.26 0.93,-0.9 1.31,-1.46c1.64,-2.44 3.05,-5.03 4.97,-7.3c1.34,-1.58 2.97,-2.83 4.52,-4.15c4.49,-3.82 9.24,-7.32 14.27,-10.42c0.39,-0.24 0.73,-0.5 1.03,-0.83c4.32,-4.7 8.91,-9.15 13.31,-13.78c2.55,-2.68 5.14,-5.36 7.18,-8.49c0.88,-1.35 1.54,-2.78 2.04,-4.32c0.55,-1.67 0.06,-3.04 -0.97,-4.26c-1.48,-1.76 -3.36,-2.94 -5.63,-3.45c-0.38,-0.08 -0.75,-0.16 -1.13,-0.25c-1.97,-0.48 -2.01,-0.51 -1.11,-2.23c3.85,-7.39 8,-14.59 13.23,-21.12c2.82,-3.52 5.91,-6.73 9.7,-9.24c2.97,-1.96 6.17,-2.7 9.67,-2.24c0.25,0.03 0.49,0.14 0.74,0.21c1.68,0.49 1.95,1.12 1.5,2.85c-0.99,3.76 -2.79,7.14 -4.74,10.45c-4.08,6.9 -7.79,13.97 -10.91,21.36c-1.31,3.12 -2.57,6.26 -3.76,9.43c-1.35,3.57 -3.5,6.68 -5.59,9.81c-4.38,6.55 -8.92,12.99 -12.65,19.95c-1.12,2.09 -2,4.28 -2.9,6.48c-1.79,4.38 -4.48,8.16 -7.96,11.4c-3.95,3.68 -8.27,6.88 -12.6,10.07c-7.79,5.73 -15.66,11.36 -23.41,17.13c-5.28,3.94 -10.55,7.9 -15.33,12.46c-2.16,2.06 -4.38,4.12 -5.69,6.9c-0.93,1.98 -1.61,4.02 -1.82,6.21c-0.3,3.1 -0.3,3.1 -3.33,3.1c-13.61,0 -27.21,0 -40.82,0c-2.28,0 -2.35,-0.12 -2.04,-2.4c0.25,-1.83 0.39,-3.68 0.62,-5.52c0.32,-2.47 0.65,-4.94 1.03,-7.4c0.67,-4.42 1.41,-8.83 2.36,-13.2c1.26,-5.82 2.83,-11.55 5.36,-16.96c1.04,-2.21 2.67,-4.06 4.34,-5.85c3.83,-4.1 8.26,-7.47 12.95,-10.52c0.54,-0.33 1.12,-0.62 1.53,-1.13z" class="st2"/>
    <path stroke="null" id="svg_12" d="m3475.17266,2487.57582c-2.39,-2 -4.43,-3.95 -6.91,-5.33c-3.22,-1.79 -6.62,-3.06 -10.25,-3.6c-1.35,-0.2 -2.13,-0.77 -2.71,-2.02c-0.97,-2.08 -2.13,-4.09 -3.3,-6.07c-0.54,-0.91 -0.9,-1.85 -1,-2.85c-0.28,-2.74 -0.75,-5.44 -1.2,-8.15c-0.55,-3.33 -1.02,-6.68 -1.67,-9.99c-0.88,-4.5 -1.75,-9.01 -3.01,-13.43c-0.98,-3.45 -2,-6.88 -3.57,-10.11c-0.52,-1.06 -0.43,-1.44 0.66,-1.94c4.68,-2.18 9.16,-1.35 12.57,2.76c2.12,2.55 3.35,5.59 4.51,8.64c2.85,7.49 4.8,15.23 6.55,23.03c0.91,4.04 1.59,8.15 2.89,12.1c1.44,4.37 3.38,8.55 5.05,12.84c0.48,1.22 1.18,2.39 1.39,4.12z" class="st0"/>
    <path stroke="null" id="svg_13" d="m3676.73266,2485.65582c1.44,-1.95 2.88,-3.91 4.33,-5.86c1.78,-2.39 2.93,-5.1 3.96,-7.86c1.16,-3.11 2.5,-6.16 3.29,-9.42c0.97,-4 0.94,-7.98 0.37,-12c-0.13,-0.88 -0.28,-1.76 -0.42,-2.64c1.3,-4.08 2.41,-8.23 4,-12.22c1.13,-2.86 2.28,-5.69 4.08,-8.23c1.9,-2.67 4.5,-4.23 7.68,-4.55c2.05,-0.21 4.04,0.49 5.87,1.5c0.64,0.36 0.65,0.8 0.32,1.44c-2.11,4.06 -3.21,8.47 -4.38,12.86c-1.24,4.69 -2.08,9.46 -2.99,14.21c-0.9,4.7 -1.47,9.46 -2.16,14.19c-0.19,1.27 -0.45,2.47 -1.15,3.61c-1.2,1.97 -2.34,3.98 -3.3,6.07c-0.56,1.22 -1.34,1.68 -2.59,1.88c-5.01,0.8 -9.58,2.71 -13.59,5.84c-1.15,0.9 -2.21,1.9 -3.41,2.93c-0.21,-0.68 0.1,-1.21 0.09,-1.75z" class="st2"/>
    <path stroke="null" id="svg_14" d="m3490.44266,2501.53582c-2.13,-1.23 -3.81,-2.23 -5.16,-3.71c-2.16,-2.37 -4.26,-4.79 -6.69,-6.89c-0.52,-0.45 -0.78,-0.98 -0.98,-1.6c-1.12,-3.48 -2.26,-6.94 -3.7,-10.3c-0.5,-1.17 -0.96,-2.38 -1.6,-3.48c-1.9,-3.26 -2.71,-6.9 -3.63,-10.48c-1.14,-4.45 -2.15,-8.93 -3.05,-13.43c-0.47,-2.37 -1.06,-4.71 -1.54,-7.08c-0.5,-2.45 -1.48,-4.76 -2.39,-7.08c-0.67,-1.72 -1.37,-3.44 -2.01,-5.18c-0.36,-0.98 -0.1,-1.4 0.92,-1.7c0.75,-0.22 1.53,-0.19 2.29,-0.08c3.86,0.56 6.72,2.68 8.88,5.83c2.41,3.51 3.57,7.5 4.31,11.62c1.84,10.22 4.72,20.15 8.5,29.8c2.18,5.56 4.03,11.18 5.12,17.04c0.4,2.04 0.47,4.15 0.73,6.72z" class="st0"/>
    <path stroke="null" id="svg_15" d="m3504.89266,2509.21582c-1.53,-0.22 -2.75,-1.22 -4.15,-1.76c-2.32,-0.9 -4.5,-2.15 -6.75,-3.22c-1.06,-0.51 -1.65,-1.22 -1.81,-2.46c-1.23,-9.68 -3.65,-19.06 -7.47,-28.05c-0.83,-1.96 -1.08,-4.01 -0.82,-6.02c0.33,-2.55 -0.18,-4.98 -0.53,-7.43c-0.44,-3.08 0.13,-3.88 3.24,-3.73c2.08,0.1 3.63,1.11 4.76,2.83c1.81,2.74 2.62,5.84 3.08,9.02c0.63,4.35 1.14,8.72 1.82,13.07c0.72,4.62 1.68,9.17 3.45,13.5c1.16,2.84 2.52,5.59 3.76,8.4c0.51,1.17 0.98,2.36 1.38,3.57c0.21,0.68 0.55,1.44 0.04,2.28z" class="st0"/>
    <path stroke="null" id="svg_16" d="m3663.59266,2482.94582c-1.05,1.82 -2.75,2.88 -4.5,4.14c-0.12,-0.46 -0.22,-0.63 -0.21,-0.8c0.2,-4.37 -0.03,-8.73 -0.42,-13.07c-0.25,-2.8 -0.64,-5.59 -0.69,-8.41c0.63,-1.94 1.42,-3.82 2.55,-5.53c1.47,-2.22 3.99,-3.23 6.5,-2.62c1.3,0.31 1.89,0.89 1.62,2.15c-0.85,3.91 -0.49,7.89 -0.79,11.84c-0.13,1.78 -0.88,3.31 -1.48,4.92c-0.91,2.44 -2.04,4.81 -2.58,7.38z" class="st2"/>
    <path stroke="null" id="svg_17" d="m3687.35266,2445.36582c-1.73,-3.68 -4.78,-6.07 -8.04,-8.25c1.82,-2.89 4.16,-5.15 7.51,-6.18c1.17,-0.36 2.36,-0.57 3.58,-0.45c1.66,0.17 1.87,0.69 1.3,2.28c-1.34,3.71 -3.03,7.29 -4,11.13c-0.13,0.49 -0.24,0.98 -0.35,1.47z" class="st2"/>
    <path stroke="null" id="svg_18" d="m3674.89266,2451.05582c1.02,0.64 1.25,1.73 1.5,2.77c0.58,2.41 0.39,4.81 -0.15,7.2c-1.34,6.03 -4.17,11.33 -7.91,16.19c-0.65,0.85 -1.13,1.83 -1.98,2.53c1.18,-3.82 2.75,-7.5 3.95,-11.31c1.81,-5.73 3.41,-11.5 4.59,-17.38z" class="st2"/>
    <path stroke="null" id="svg_19" d="m3671.44266,2492.33582c0.19,-1.58 1.58,-2.27 2.48,-3.32c0.02,0.81 -0.3,1.44 -0.94,1.95c-0.54,0.42 -1.02,0.91 -1.54,1.37z" class="st3"/>
    <path stroke="null" id="svg_20" d="m3584.13266,2461.17582c0.72,-0.97 1.41,-1.97 2.18,-2.91c2.71,-3.32 6.16,-5.83 9.77,-7.99c5.79,-3.47 13.41,-1.62 17.29,2.67c2.36,2.6 3.26,5.76 3.51,9.15c0.38,5.13 -1.15,9.87 -3.02,14.54c-2.35,5.87 -6.56,10.35 -11.02,14.62c-3.62,3.47 -7.75,6.29 -11.97,8.99c-2.18,1.39 -4.62,2.2 -6.92,3.33c-0.92,0.45 -1.87,0.83 -2.72,1.42c-1.91,-0.96 -3.41,-2.46 -4.9,-3.93c-3.28,-3.25 -6.77,-6.25 -10.26,-9.28c-5.57,-4.84 -10.67,-10.14 -15.26,-15.94c-2.2,-2.78 -3.17,-6.13 -4.77,-9.17c-3.67,-6.99 1.43,-15.53 7.26,-17.62c4.7,-1.68 9.33,-2.79 14.19,-0.74c1.49,0.63 2.8,1.55 4.13,2.44c4.35,2.89 8.35,6.17 11.35,10.51c0.49,0.71 0.84,0.73 1.16,-0.09z" class="st1"/>
    <path stroke="null" id="svg_21" d="m3587.85266,2384.21582c0.04,3.97 0.41,7.9 1.22,11.79c0.4,1.94 0.89,3.86 1.54,5.73c0.18,0.53 0.57,1.01 0.44,1.63c-0.45,0.39 -0.85,0.03 -1.25,-0.09c-2.38,-0.76 -4.74,-1.54 -7.12,-2.29c-1.85,-0.58 -3.74,-0.83 -5.67,-0.42c-0.71,-1.88 -0.59,-3.76 0.08,-5.62c0.22,-0.6 0.38,-1.22 0.62,-1.81c1.03,-2.5 0.97,-4.98 -0.15,-7.43c-0.9,-1.97 -1.17,-4.03 -0.94,-6.17c0.03,-0.32 0.07,-0.64 0.37,-0.97c0.71,-0.05 1.2,0.53 1.74,0.89c2.24,1.49 4.56,2.82 6.98,4c0.67,0.31 1.42,0.51 2.14,0.76z" class="st1"/>
    <path stroke="null" id="svg_22" d="m3584.51266,2417.75582c3.13,-1.88 6.44,-3.37 9.9,-4.54c1.44,-0.49 2.3,-0.04 2.88,1.38c0.64,1.54 0.51,3.14 0.12,4.71c-0.6,2.43 -1.57,4.73 -2.57,7.01c-1.47,3.33 -3.19,6.55 -4.53,9.95c-0.14,0.35 -0.4,0.65 -0.61,0.97c-0.76,-1.69 -1.45,-3.42 -2.28,-5.07c-1.27,-2.53 -1.37,-5.3 -1.71,-8c-0.27,-2.18 -0.64,-4.31 -1.2,-6.41z" class="st1"/>
    <path stroke="null" id="svg_23" d="m3582.17266,2411.44582c2.79,-0.4 5.61,-0.28 8.47,-0.34c-2.18,1.61 -4.63,2.65 -7.17,3.52c-0.43,-1.06 -0.87,-2.12 -1.3,-3.18z" class="st1"/>
    <path stroke="null" id="svg_24" d="m3578.96266,2404.49582c2.79,0.89 5.57,1.79 8.46,2.72c-0.75,0.24 -6.13,0.36 -7.12,0.2c-0.45,-0.98 -0.89,-1.95 -1.34,-2.92z" class="st1"/>
   </g>
   <path stroke="null" id="svg_25" d="m3535.07266,2490.60582" class="st2"/>
   <path stroke="null" id="svg_26" d="m3534.99266,2491.58582" class="st2"/>
   <path stroke="null" id="svg_27" d="m3548.79266,2531.70582c0.33,0.8 0.97,1.1 1.49,1.48c4.16,3.05 7.93,6.5 10.96,10.7c1.98,2.75 2.97,5.95 4.05,9.1c1.22,3.57 1.98,7.26 2.81,10.94c1.45,6.43 2.27,12.96 3.18,19.47c0.28,2.02 0.52,4.05 0.74,6.08c0.03,0.25 0.01,0.51 0.03,0.77c0.07,0.85 -0.22,1.36 -1.17,1.29c-0.38,-0.03 -0.77,0 -1.16,0c-13.8,0 -27.6,0 -41.41,0c-0.32,0 -0.64,-0.02 -0.96,0c-0.65,0.04 -1.1,-0.12 -1.18,-0.89c-0.08,-0.7 -0.34,-1.37 -0.41,-2.07c-0.42,-4.39 -2.3,-8.04 -5.38,-11.16c-3.34,-3.38 -7,-6.37 -10.7,-9.33c-6.81,-5.44 -13.92,-10.48 -20.94,-15.62c-5.37,-3.93 -10.75,-7.86 -16.06,-11.88c-2.51,-1.9 -4.85,-3.99 -7.08,-6.21c-3.47,-3.45 -5.76,-7.64 -7.46,-12.19c-1.22,-3.26 -2.99,-6.23 -4.78,-9.18c-3.86,-6.35 -8.1,-12.44 -12.24,-18.61c-1.98,-2.95 -3.27,-6.24 -4.52,-9.53c-2.53,-6.63 -5.47,-13.07 -8.77,-19.36c-2.38,-4.54 -5.26,-8.8 -7.43,-13.45c-0.81,-1.74 -1.54,-3.51 -2,-5.39c-0.43,-1.72 -0.12,-2.37 1.62,-2.77c3.7,-0.86 7.08,-0.04 10.24,2c4.32,2.79 7.7,6.54 10.79,10.58c4.38,5.71 8.05,11.86 11.35,18.24c0.52,1.01 1.66,2.12 1.31,3.08c-0.37,1.02 -1.99,0.73 -3.05,1.05c-2.2,0.67 -4.08,1.85 -5.49,3.68c-0.86,1.12 -1.19,2.33 -0.82,3.78c0.63,2.43 1.95,4.47 3.46,6.37c2.26,2.86 4.74,5.54 7.3,8.15c3.5,3.56 7.08,7.05 10.37,10.82c0.87,0.99 1.89,1.84 3.04,2.58c6.11,3.91 11.89,8.27 17.24,13.17c2.15,1.97 3.48,4.57 5.09,6.96c0.66,0.99 1.1,2.15 2.22,3.02c0.38,-1.07 -0.16,-1.85 -0.54,-2.55c-3.04,-5.58 -6.92,-10.38 -12.23,-14.06c-4.16,-2.88 -8.24,-5.88 -12.48,-8.64c-1.3,-0.85 -2.29,-2.05 -3.33,-3.16c-4.25,-4.53 -8.44,-9.12 -12.69,-13.65c-1.49,-1.59 -2.94,-3.21 -4.15,-5.04c-0.75,-1.14 -1.23,-2.35 -1.57,-3.68c-0.48,-1.91 0.23,-3.33 1.69,-4.34c1.87,-1.3 4.03,-1.83 6.33,-1.89c5.58,-0.15 10.23,2.28 14.78,5.13c5.54,3.48 10.16,7.99 14.61,12.71c2.39,2.54 5.12,4.65 8.12,6.41c2.98,1.75 5.98,3.47 8.98,5.2c0.89,0.51 1.87,0.81 2.84,1.13c2.3,0.76 4.6,1.55 6.87,2.33" class="st0"/>
  </g>
  <g stroke="null" transform="matrix(1.6785047992466018,0,0,2.473594240839021,-5929.18885155988,-6514.873703701682) " id="svg_28">
   <path stroke="null" id="svg_29" d="m3678.88005,2670.95833c0,2.6 -0.67,4.93 -2.01,7s-3.3,3.69 -5.87,4.86s-5.63,1.76 -9.17,1.76c-4.24,0 -7.73,-0.8 -10.49,-2.4c-1.95,-1.15 -3.54,-2.69 -4.76,-4.61s-1.83,-3.79 -1.83,-5.61c0,-1.05 0.37,-1.96 1.1,-2.71s1.67,-1.13 2.8,-1.13c0.92,0 1.69,0.29 2.33,0.88s1.18,1.46 1.63,2.61c0.55,1.37 1.14,2.51 1.77,3.43s1.53,1.67 2.68,2.27s2.67,0.89 4.54,0.89c2.58,0 4.67,-0.6 6.28,-1.8s2.42,-2.7 2.42,-4.5c0,-1.43 -0.43,-2.58 -1.3,-3.47s-1.99,-1.57 -3.37,-2.04s-3.22,-0.97 -5.52,-1.49c-3.09,-0.72 -5.67,-1.57 -7.75,-2.53s-3.73,-2.29 -4.95,-3.96s-1.83,-3.75 -1.83,-6.23c0,-2.36 0.64,-4.46 1.93,-6.3s3.15,-3.25 5.6,-4.23s5.31,-1.48 8.61,-1.48c2.64,0 4.92,0.33 6.84,0.98s3.52,1.52 4.79,2.61s2.2,2.22 2.78,3.41s0.88,2.35 0.88,3.49c0,1.04 -0.37,1.97 -1.1,2.8s-1.65,1.25 -2.74,1.25c-1,0 -1.75,-0.25 -2.27,-0.75s-1.08,-1.31 -1.68,-2.45c-0.78,-1.62 -1.72,-2.89 -2.81,-3.79s-2.85,-1.36 -5.27,-1.36c-2.25,0 -4.06,0.49 -5.43,1.48s-2.07,2.17 -2.07,3.56c0,0.86 0.23,1.6 0.7,2.23s1.11,1.16 1.93,1.61s1.65,0.8 2.49,1.05s2.23,0.63 4.16,1.11c2.42,0.57 4.61,1.19 6.58,1.88s3.63,1.51 5.01,2.49s2.45,2.21 3.22,3.71s1.15,3.31 1.15,5.48z" class="st0"/>
   <path stroke="null" id="svg_30" d="m3688.73005,2684.57833c-1.21,0 -2.26,-0.39 -3.13,-1.17s-1.32,-1.88 -1.32,-3.28c0,-1.19 0.42,-2.22 1.26,-3.08s1.88,-1.29 3.11,-1.29s2.28,0.42 3.15,1.27s1.3,1.88 1.3,3.09c0,1.39 -0.43,2.48 -1.3,3.27s-1.9,1.19 -3.07,1.19z" class="st0"/>
   <path stroke="null" id="svg_31" d="m3721.66005,2640.15833c4.45,0 8.28,0.9 11.47,2.71s5.61,4.38 7.25,7.71s2.46,7.24 2.46,11.73c0,3.32 -0.45,6.34 -1.35,9.05s-2.25,5.07 -4.04,7.06s-4,3.52 -6.62,4.57s-5.62,1.58 -8.99,1.58c-3.36,0 -6.37,-0.54 -9.02,-1.63s-4.87,-2.61 -6.65,-4.58s-3.12,-4.35 -4.03,-7.12s-1.36,-5.77 -1.36,-8.99c0,-3.3 0.47,-6.33 1.42,-9.08s2.32,-5.1 4.12,-7.03s3.98,-3.41 6.56,-4.44s5.5,-1.54 8.78,-1.54zm12.36,22.09c0,-3.14 -0.51,-5.87 -1.52,-8.17s-2.47,-4.05 -4.35,-5.23s-4.05,-1.77 -6.49,-1.77c-1.74,0 -3.34,0.33 -4.82,0.98s-2.74,1.61 -3.81,2.86s-1.9,2.85 -2.52,4.79s-0.92,4.13 -0.92,6.55c0,2.44 0.31,4.65 0.92,6.62s1.48,3.61 2.61,4.91s2.41,2.27 3.87,2.92s3.05,0.97 4.79,0.97c2.23,0 4.27,-0.56 6.14,-1.67s3.35,-2.83 4.45,-5.16s1.65,-5.2 1.65,-8.6z" class="st0"/>
   <path stroke="null" id="svg_32" d="m3751.98005,2684.57833c-1.21,0 -2.26,-0.39 -3.13,-1.17s-1.32,-1.88 -1.32,-3.28c0,-1.19 0.42,-2.22 1.26,-3.08s1.88,-1.29 3.11,-1.29s2.28,0.42 3.15,1.27s1.3,1.88 1.3,3.09c0,1.39 -0.43,2.48 -1.3,3.27s-1.9,1.19 -3.07,1.19z" class="st0"/>
   <path stroke="null" id="svg_33" d="m3798.65005,2670.95833c0,2.6 -0.67,4.93 -2.01,7s-3.3,3.69 -5.87,4.86s-5.63,1.76 -9.17,1.76c-4.24,0 -7.73,-0.8 -10.49,-2.4c-1.95,-1.15 -3.54,-2.69 -4.76,-4.61s-1.83,-3.79 -1.83,-5.61c0,-1.05 0.37,-1.96 1.1,-2.71s1.67,-1.13 2.8,-1.13c0.92,0 1.69,0.29 2.33,0.88s1.18,1.46 1.63,2.61c0.55,1.37 1.14,2.51 1.77,3.43s1.53,1.67 2.68,2.27s2.67,0.89 4.54,0.89c2.58,0 4.67,-0.6 6.28,-1.8s2.42,-2.7 2.42,-4.5c0,-1.43 -0.43,-2.58 -1.3,-3.47s-1.99,-1.57 -3.37,-2.04s-3.22,-0.97 -5.52,-1.49c-3.09,-0.72 -5.67,-1.57 -7.75,-2.53s-3.73,-2.29 -4.95,-3.96s-1.83,-3.75 -1.83,-6.23c0,-2.36 0.64,-4.46 1.93,-6.3s3.15,-3.25 5.6,-4.23s5.31,-1.48 8.61,-1.48c2.64,0 4.92,0.33 6.84,0.98s3.52,1.52 4.79,2.61s2.2,2.22 2.78,3.41s0.88,2.35 0.88,3.49c0,1.04 -0.37,1.97 -1.1,2.8s-1.65,1.25 -2.74,1.25c-1,0 -1.75,-0.25 -2.27,-0.75s-1.08,-1.31 -1.68,-2.45c-0.78,-1.62 -1.72,-2.89 -2.81,-3.79s-2.85,-1.36 -5.27,-1.36c-2.25,0 -4.06,0.49 -5.43,1.48s-2.07,2.17 -2.07,3.56c0,0.86 0.23,1.6 0.7,2.23s1.11,1.16 1.93,1.61s1.65,0.8 2.49,1.05s2.23,0.63 4.16,1.11c2.42,0.57 4.61,1.19 6.58,1.88s3.63,1.51 5.01,2.49s2.45,2.21 3.22,3.71s1.15,3.31 1.15,5.48z" class="st0"/>
   <path stroke="null" id="svg_34" d="m3830.99005,2671.77833l-9.26,0c-1.41,0 -2.48,-0.33 -3.21,-0.98s-1.1,-1.5 -1.1,-2.53c0,-1.05 0.36,-1.91 1.07,-2.56s1.79,-0.98 3.24,-0.98l9.26,0c1.45,0 2.52,0.33 3.24,0.98s1.07,1.51 1.07,2.56c0,1.04 -0.35,1.88 -1.05,2.53s-1.79,0.98 -3.26,0.98z" class="st0"/>
   <path stroke="null" id="svg_35" d="m3872.68005,2667.11833l-7.97,0l0,12.16c0,1.74 -0.41,3.06 -1.23,3.96s-1.86,1.35 -3.11,1.35c-1.31,0 -2.36,-0.44 -3.16,-1.33s-1.2,-2.19 -1.2,-3.91l0,-33.11c0,-1.91 0.44,-3.28 1.32,-4.1s2.28,-1.23 4.19,-1.23l11.16,0c3.3,0 5.84,0.25 7.62,0.76c1.76,0.49 3.28,1.3 4.56,2.43s2.25,2.52 2.92,4.16s1,3.49 1,5.54c0,4.38 -1.35,7.69 -4.04,9.95s-6.73,3.37 -12.06,3.37zm-2.11,-19.69l-5.86,0l0,13.13l5.86,0c2.05,0 3.76,-0.21 5.14,-0.64s2.43,-1.13 3.15,-2.11s1.08,-2.26 1.08,-3.84c0,-1.89 -0.56,-3.44 -1.67,-4.63c-1.24,-1.28 -3.81,-1.91 -7.7,-1.91z" class="st0"/>
   <path stroke="null" id="svg_36" d="m3924.33005,2647.60833l-19.6,0l0,10.55l18.05,0c1.33,0 2.32,0.3 2.97,0.89s0.98,1.38 0.98,2.36s-0.32,1.77 -0.97,2.39s-1.64,0.92 -2.99,0.92l-18.05,0l0,12.22l20.27,0c1.37,0 2.4,0.32 3.09,0.95s1.04,1.48 1.04,2.53c0,1.02 -0.35,1.84 -1.04,2.48s-1.72,0.95 -3.09,0.95l-23.64,0c-1.89,0 -3.26,-0.42 -4.09,-1.26s-1.25,-2.2 -1.25,-4.07l0,-32.29c0,-1.25 0.19,-2.27 0.56,-3.06s0.95,-1.37 1.74,-1.73s1.8,-0.54 3.03,-0.54l22.97,0c1.39,0 2.42,0.31 3.09,0.92s1.01,1.42 1.01,2.42c0,1.02 -0.34,1.83 -1.01,2.45s-1.68,0.92 -3.07,0.92z" class="st0"/>
   <path stroke="null" id="svg_37" d="m3963.94005,2648.06833l-9.49,0l0,31.2c0,1.8 -0.4,3.13 -1.2,4s-1.84,1.3 -3.11,1.3c-1.29,0 -2.34,-0.44 -3.15,-1.32s-1.22,-2.21 -1.22,-3.98l0,-31.2l-9.49,0c-1.48,0 -2.59,-0.33 -3.31,-0.98s-1.08,-1.52 -1.08,-2.59c0,-1.11 0.38,-1.99 1.13,-2.64s1.84,-0.97 3.27,-0.97l27.66,0c1.5,0 2.62,0.33 3.35,1s1.1,1.53 1.1,2.61s-0.37,1.94 -1.11,2.59s-1.86,0.98 -3.35,0.98z" class="st0"/>
  </g>
 </g>
</svg>