<svg id="Camada_1" data-name="Camada 1" xmlns="http://www.w3.org/2000/svg" viewBox="0 0 792.01 449.1"><defs><style>.cls-1{fill:#c2aa66;}.cls-2,.cls-6{fill:#333;}.cls-3{font-size:2.28px;}.cls-3,.cls-6{font-family:MyriadPro-Regular, Myriad Pro;}.cls-4{fill:#fff;}.cls-5{fill:#030303;}.cls-6{font-size:74.61px;}.cls-7{letter-spacing:0.02em;}.cls-8{letter-spacing:0em;}</style></defs><title>login</title><rect class="cls-1" y="433.28" width="18.3" height="15.82"/><rect class="cls-2" x="21.41" y="433.28" width="18.3" height="15.82"/><text class="cls-3" transform="translate(0 432.15)">#C2AA66</text><text class="cls-3" transform="translate(21.74 432.15)">#333333</text><path class="cls-2" d="M195,674.33" transform="translate(188.78 -256.04)"/><path class="cls-4" d="M342.25,434.2c1.13-1.46,1.86-3.27,3.56-4.26,0,.68-.38,1.35-.11,2.22,1.52-1.31,2.87-2.59,4.33-3.73A37.09,37.09,0,0,1,367.29,421a3.79,3.79,0,0,0,3.29-2.39,74.76,74.76,0,0,1,4.2-7.71,11.64,11.64,0,0,0,1.45-4.58c.88-6,1.6-12.06,2.74-18s2.22-12.09,3.8-18c1.48-5.58,2.88-11.17,5.56-16.33.42-.8.41-1.37-.4-1.82a12.79,12.79,0,0,0-7.46-1.9,13.2,13.2,0,0,0-9.75,5.77,48.27,48.27,0,0,0-5.19,10.45c-2,5.07-3.42,10.33-5.07,15.52a8.43,8.43,0,0,1-1.17-3.18c.15-.62.29-1.25.45-1.87,1.23-4.87,3.38-9.42,5.08-14.13.73-2,.46-2.67-1.65-2.89a11.14,11.14,0,0,0-4.54.56c-4.26,1.31-7.23,4.18-9.54,7.85a47.8,47.8,0,0,0-10.73-3.18c-6.07-.89-11.48-.2-16.09,4.67-2.62,2.77-3.74,8.49-2,12.53a3.27,3.27,0,0,0,4.63,1.78,7.47,7.47,0,0,0,1.49-.83,13.23,13.23,0,0,1,8.78-2.35,9.71,9.71,0,0,1,8.33,5.08,210.11,210.11,0,0,1-5.82,22.07c-1.52,4.84-3.52,9.52-5,14.36a27.8,27.8,0,0,1-3.51,4.07c.69-3.26,2.13-6.27,3.28-9.38a22.53,22.53,0,0,0,1.87-6.24c.38-5-.08-10.06,1-15,.35-1.59-.41-2.33-2.06-2.72a7.63,7.63,0,0,0-8.26,3.32,28.53,28.53,0,0,0-3.23,7c.07-1.64-.49-3.2-.6-4.84-.26-3.89-.61-7.78-1.18-11.64-.84-5.61-3-10.81-5.4-15.9a106,106,0,0,1-5.83-14,27.48,27.48,0,0,1,0-15.64c.51-1.84.66-1.87,2.36-1.15,2,.86,4,1.87,6.05,2.64,2.89,1.08,5.66,2.51,8.76,3,1.24.19,2.86.84,3.48-.67.53-1.29-.91-2.09-1.8-2.89-2.8-2.47-6.25-3.79-9.55-5.37a8.83,8.83,0,0,1-3.19-2c3.92,0,7.32,0,10.72,0a17.08,17.08,0,0,0,3.64-.35c.91-.2,1.84-.46,1.87-1.58s-.86-1.67-1.85-1.94a4.47,4.47,0,0,0-1.21-.1c-2.94,0-5.87-.12-8.8.14a22.36,22.36,0,0,1-6.58-.44,23.76,23.76,0,0,1,5-1.65c3.32-.81,6.7-1.43,9.82-2.91a6.77,6.77,0,0,0,2.39-1.66c.91-1.11.57-2.17-.81-2.61a3.72,3.72,0,0,0-1.93,0,43.46,43.46,0,0,0-4.48,1.19c-1.71.53-3.46.93-5.19,1.38-.31.08-.67.17-.93-.1s-.11-.75.06-1.11a3.55,3.55,0,0,1,.23-.43,45.09,45.09,0,0,0,5.89-26,38.73,38.73,0,0,0-4-15.48,19.7,19.7,0,0,0-2.85-4.82c-.7-.75-1.34-.87-2,0-2.17,2.75-4.7,5.18-6.85,8-3.37,4.38-6.93,8.63-10.32,13a2,2,0,0,1-2.86.71c-6.32-3-13-3.28-19.86-2.8a57.7,57.7,0,0,0-15.21,3.41c-2.06.73-2.1.69-3-1.12a44.43,44.43,0,0,0-11.38-13.89,20.71,20.71,0,0,1-2.84-2.28,9.32,9.32,0,0,0-1.06-2.72c-2.32-4.92-6.09-8.62-10.23-12C225.46,263,220,260.33,214.3,258a26,26,0,0,0-11.69-1.91,28.79,28.79,0,0,0-8.45,2.26,12.28,12.28,0,0,1-5.26.85c-4.32-.31-8.64-.13-13-.16-2.71,0-5.51.19-7.83,1.56-3.3,1.95-6.44,1.88-10,.87a21.27,21.27,0,0,0-16.32,1.91c-1.51.81-3,1.59-4.58,2.32a63.79,63.79,0,0,0-18.77,13.88,31,31,0,0,0-6.16,8.76c-3.53,7.88-3.59,15.94-1.26,24.11a17.17,17.17,0,0,0,5.17,7.89c3.76,3.44,10.64,2.28,13.81-2.18,2.43-3.4,3-7.34,3.32-11.34.27-3.17.55-6.33,2-9.24a7.45,7.45,0,0,1,2.69-3.53,20.46,20.46,0,0,1,3.09,7.45c1,4.2,1.71,8.45,2.43,12.71a42.37,42.37,0,0,1-.23,14.08c-.83,5-3,9.46-5.08,14a127.1,127.1,0,0,0-7.32,18.9c-1.67,6-3.15,12-5.15,17.83a59,59,0,0,0-3.06,17.27A182,182,0,0,0,125.09,434c1.78,10.22,4.42,20.21,9.26,29.49.24.45.79.93.11,1.55-2.89-1-5.8-2-8.73-3a19.32,19.32,0,0,1-3.6-1.44c-3.8-2.2-7.61-4.38-11.4-6.6a46.2,46.2,0,0,1-10.31-8.15c-5.65-6-11.52-11.73-18.56-16.14-5.77-3.62-11.67-6.7-18.76-6.52a14.46,14.46,0,0,0-8,2.4,4.82,4.82,0,0,0-2.14,5.52,15.06,15.06,0,0,0,2,4.66,49.8,49.8,0,0,0,5.27,6.4c5.4,5.76,10.72,11.59,16.12,17.34a24.4,24.4,0,0,0,4.23,4c5.39,3.51,10.57,7.32,15.85,11a50.28,50.28,0,0,1,15.54,17.86c.49.89,1.16,1.88.69,3.24-1.43-1.11-2-2.59-2.83-3.84-2-3-3.73-6.33-6.46-8.83a159.23,159.23,0,0,0-21.89-16.73A17.84,17.84,0,0,1,77.56,463c-4.17-4.79-8.72-9.22-13.16-13.74a127.77,127.77,0,0,1-9.28-10.34,21.84,21.84,0,0,1-4.39-8.09,5.3,5.3,0,0,1,1-4.81,13.47,13.47,0,0,1,7-4.68c1.35-.41,3.4,0,3.88-1.34s-1-2.61-1.67-3.9a154.29,154.29,0,0,0-14.42-23.17c-3.93-5.12-8.21-9.89-13.7-13.43a16.38,16.38,0,0,0-13-2.54c-2.21.51-2.6,1.34-2.06,3.52a37.29,37.29,0,0,0,2.55,6.84c2.75,5.91,6.4,11.32,9.43,17.08A224.44,224.44,0,0,1,40.88,429a59.1,59.1,0,0,0,5.75,12.1c5.26,7.83,10.65,15.57,15.55,23.63a70.9,70.9,0,0,1,6.07,11.66,42,42,0,0,0,9.47,15.48,87.52,87.52,0,0,0,9,7.88c6.74,5.1,13.57,10.09,20.4,15.09,8.92,6.53,17.95,12.92,26.59,19.83a151.75,151.75,0,0,1,13.6,11.86,22.78,22.78,0,0,1,6.83,14.17c.08.89.42,1.75.52,2.63s.67,1.18,1.5,1.14c.41,0,.81,0,1.22,0H210c.49,0,1,0,1.47,0,1.21.09,1.57-.57,1.49-1.65,0-.32,0-.65,0-1-.29-2.58-.59-5.16-.95-7.73-1.15-8.27-2.2-16.56-4-24.73a134.68,134.68,0,0,0-3.57-13.89c-1.36-4-2.62-8.07-5.14-11.56a62.33,62.33,0,0,0-13.92-13.59,4.43,4.43,0,0,1-1.89-1.88c4.46-.25,8.65-.71,12.83-1.29a14.08,14.08,0,0,0,6.45-2.14,23.58,23.58,0,0,1,9.5-3.64,22.38,22.38,0,0,0,6-2.09c4.86-2.52,9.24-5.79,13.73-8.89.82.77,1.64,1.54,2.45,2.32,2.7,2.59,6.25,3.73,9.4,5.56a75.3,75.3,0,0,0,14.53,6.16,7.68,7.68,0,0,1-1.95,1.45,87.24,87.24,0,0,0-16.44,13.36,29.76,29.76,0,0,0-5.51,7.43,100.66,100.66,0,0,0-6.8,21.54c-1.21,5.55-2.14,11.15-3,16.76q-.7,4.69-1.3,9.4c-.3,2.34-.47,4.69-.79,7-.39,2.9-.3,3.06,2.59,3.06h51.84c3.85,0,3.85,0,4.23-3.94a23.91,23.91,0,0,1,2.31-7.89c1.67-3.53,4.48-6.14,7.23-8.77A208.11,208.11,0,0,1,310.13,528c9.85-7.34,19.84-14.48,29.73-21.76a175.54,175.54,0,0,0,16-12.79A40.67,40.67,0,0,0,366,479a87.83,87.83,0,0,1,3.68-8.23c4.73-8.84,10.49-17,16.06-25.34,2.66-4,5.39-7.92,7.1-12.46q2.28-6,4.78-12a224.06,224.06,0,0,1,13.85-27.13,52.47,52.47,0,0,0,6-13.27c.58-2.19.22-3-1.9-3.62a6.64,6.64,0,0,0-.94-.27,17.41,17.41,0,0,0-12.29,2.85A54.63,54.63,0,0,0,390,391.24c-6.65,8.29-11.91,17.45-16.8,26.83-1.15,2.19-1.09,2.22,1.4,2.83.48.12.95.22,1.43.32a12.83,12.83,0,0,1,7.15,4.38,5.33,5.33,0,0,1,1.23,5.42,23.21,23.21,0,0,1-2.6,5.49,77.63,77.63,0,0,1-9.12,10.78c-5.59,5.87-11.41,11.53-16.9,17.5a6,6,0,0,1-1.31,1,146.21,146.21,0,0,0-18.12,13.24,46.82,46.82,0,0,0-5.74,5.27c-2.44,2.87-4.22,6.17-6.31,9.27-.48.71-.82,1.52-1.66,1.86a.88.88,0,0,1-.2-1,20.76,20.76,0,0,1,2.3-4.56c2.46-3.63,4.56-7.54,8-10.42a159.53,159.53,0,0,1,14.62-11,69.11,69.11,0,0,0,14.26-11.72c5-5.67,10.34-11.06,15.4-16.67,2.39-2.65,4.68-5.45,5.32-9.17a5,5,0,0,0-2.34-5.45,16.88,16.88,0,0,0-12.42-2c-6,1.13-11.3,4-16.26,7.5A102.35,102.35,0,0,0,335,445.68a38.84,38.84,0,0,1-10.84,8.3,10.93,10.93,0,0,1,2.31-3.05c1.71-1.8,3.76-3.23,5.55-4.91,2.52-2.36,4.72-5,7.06-7.6.65-.59,1.27-1.21,1.95-1.75A2.86,2.86,0,0,0,342.25,434.2ZM89.83,432.37a19.45,19.45,0,0,0-1.78-5.25c-2.11-5.44-4.58-10.75-6.41-16.31-1.65-5-2.51-10.22-3.67-15.36a211.59,211.59,0,0,0-8.32-29.25c-1.47-3.88-3-7.73-5.73-11-4.33-5.21-10-6.26-16-3.5-1.38.64-1.49,1.12-.83,2.47A77.71,77.71,0,0,1,51.66,367c1.59,5.61,2.69,11.34,3.81,17.05.83,4.21,1.42,8.47,2.12,12.7.57,3.44,1.18,6.87,1.53,10.35a8.71,8.71,0,0,0,1.28,3.62c1.49,2.52,3,5.07,4.19,7.71A4,4,0,0,0,68,421a38.4,38.4,0,0,1,13,4.57C84.21,427.36,86.79,429.84,89.83,432.37Zm19.4,17.74c-.34-3.27-.43-5.94-.92-8.55a119.22,119.22,0,0,0-6.51-21.64A201.75,201.75,0,0,1,91,382.07c-.93-5.23-2.4-10.3-5.47-14.75-2.75-4-6.37-6.69-11.28-7.4a6.81,6.81,0,0,0-2.91.1c-1.3.39-1.63.92-1.17,2.16.81,2.21,1.69,4.39,2.55,6.58a55.15,55.15,0,0,1,3,9c.61,3,1.36,6,2,9q1.71,8.58,3.88,17.06c1.16,4.55,2.19,9.17,4.61,13.31a40.38,40.38,0,0,1,2,4.43c1.82,4.26,3.28,8.67,4.7,13.08a4.19,4.19,0,0,0,1.25,2,101.63,101.63,0,0,1,8.5,8.74A25.79,25.79,0,0,0,109.23,450.11Zm18.34,9.75a3.22,3.22,0,0,0-.07-2.92,46,46,0,0,0-1.75-4.53c-1.57-3.57-3.3-7.06-4.77-10.67a75.93,75.93,0,0,1-4.38-17.15c-.86-5.52-1.51-11.07-2.31-16.59a27.27,27.27,0,0,0-3.91-11.46,7.37,7.37,0,0,0-6-3.59c-4-.19-4.68.82-4.12,4.74.45,3.1,1.1,6.19.68,9.43a14.61,14.61,0,0,0,1,7.65,133.69,133.69,0,0,1,9.48,35.63,3.67,3.67,0,0,0,2.3,3.12c2.86,1.37,5.63,3,8.58,4.1C124.08,458.31,125.63,459.58,127.57,459.86Z" transform="translate(188.78 -256.04)"/><path class="cls-1" d="M231.87,470.37c-4.49,3.1-8.87,6.37-13.73,8.89a22.38,22.38,0,0,1-6,2.09,23.58,23.58,0,0,0-9.5,3.64,14.08,14.08,0,0,1-6.45,2.14c-4.18.58-8.37,1-12.83,1.29a4.43,4.43,0,0,0,1.89,1.88,62.33,62.33,0,0,1,13.92,13.59c2.52,3.49,3.78,7.56,5.14,11.56a134.68,134.68,0,0,1,3.57,13.89c1.84,8.17,2.89,16.46,4,24.73.36,2.57.66,5.15.95,7.73,0,.32,0,.65,0,1,.08,1.08-.28,1.74-1.49,1.65-.49,0-1,0-1.47,0H157.38c-.41,0-.81,0-1.22,0-.83,0-1.4-.16-1.5-1.14s-.44-1.74-.52-2.63a22.78,22.78,0,0,0-6.83-14.17,151.75,151.75,0,0,0-13.6-11.86c-8.64-6.91-17.67-13.3-26.59-19.83-6.83-5-13.66-10-20.4-15.09a87.52,87.52,0,0,1-9-7.88,42,42,0,0,1-9.47-15.48,70.9,70.9,0,0,0-6.07-11.66c-4.9-8.06-10.29-15.8-15.55-23.63A59.1,59.1,0,0,1,40.88,429a224.44,224.44,0,0,0-11.14-24.59c-3-5.76-6.68-11.17-9.43-17.08a37.29,37.29,0,0,1-2.55-6.84c-.54-2.18-.15-3,2.06-3.52a16.38,16.38,0,0,1,13,2.54c5.49,3.54,9.77,8.31,13.7,13.43A154.29,154.29,0,0,1,61,416.06c.67,1.29,2.11,2.69,1.67,3.9s-2.53.93-3.88,1.34a13.47,13.47,0,0,0-7,4.68,5.3,5.3,0,0,0-1,4.81,21.84,21.84,0,0,0,4.39,8.09,127.77,127.77,0,0,0,9.28,10.34c4.44,4.52,9,8.95,13.16,13.74a17.84,17.84,0,0,0,3.87,3.28A159.23,159.23,0,0,1,103.32,483c2.73,2.5,4.42,5.8,6.46,8.83.85,1.25,1.4,2.73,2.83,3.84.47-1.36-.2-2.35-.69-3.24a50.28,50.28,0,0,0-15.54-17.86c-5.28-3.66-10.46-7.47-15.85-11a24.4,24.4,0,0,1-4.23-4C70.9,453.79,65.58,448,60.18,442.2a49.8,49.8,0,0,1-5.27-6.4,15.06,15.06,0,0,1-2-4.66,4.82,4.82,0,0,1,2.14-5.52,14.46,14.46,0,0,1,8-2.4c7.09-.18,13,2.9,18.76,6.52,7,4.41,12.91,10.14,18.56,16.14A46.2,46.2,0,0,0,110.73,454c3.79,2.22,7.6,4.4,11.4,6.6a19.32,19.32,0,0,0,3.6,1.44c2.93,1,5.84,2,8.73,3l-.51-1.55c-1.82-5.46-7.86-23.77-8.86-29.49a182,182,0,0,1-2.38-37.73A59,59,0,0,1,125.77,379c2-5.85,3.48-11.87,5.15-17.83a127.1,127.1,0,0,1,7.32-18.9c2.09-4.51,4.25-9,5.08-14a42.37,42.37,0,0,0,.23-14.08c-.72-4.26-1.43-8.51-2.43-12.71a20.46,20.46,0,0,0-3.09-7.45,7.45,7.45,0,0,0-2.69,3.53c-1.45,2.91-1.73,6.07-2,9.24-.34,4-.89,7.94-3.32,11.34-3.17,4.46-10.05,5.62-13.81,2.18a17.17,17.17,0,0,1-5.17-7.89c-2.33-8.17-2.27-16.23,1.26-24.11a31,31,0,0,1,6.16-8.76,63.79,63.79,0,0,1,18.77-13.88c1.54-.73,3.07-1.51,4.58-2.32a21.27,21.27,0,0,1,16.32-1.91c3.54,1,6.68,1.08,10-.87,2.32-1.37,5.12-1.58,7.83-1.56,4.32,0,8.64-.15,13,.16a12.28,12.28,0,0,0,5.26-.85,28.79,28.79,0,0,1,8.45-2.26A26,26,0,0,1,214.3,258c5.66,2.33,11.16,5,15.95,8.89,4.14,3.36,7.91,7.06,10.23,12a9.32,9.32,0,0,1,1.06,2.72,6.4,6.4,0,0,1-2-.84,15.3,15.3,0,0,0-3.87-1.39c-1.59-.34-1.75-.17-2,1.41a51.37,51.37,0,0,0-.57,7.73c-.07,4.21-.09,8.41-.14,12.61a25.33,25.33,0,0,1-2.73-1,76.31,76.31,0,0,1-8.87-5.07c-.68-.46-1.31-1.2-2.2-1.13a2,2,0,0,0-.48,1.24,14.94,14.94,0,0,0,1.2,7.83,11.39,11.39,0,0,1,.19,9.44c-.31.75-.51,1.54-.78,2.3a10,10,0,0,0-.11,7.14c-.89,1.66-.91,2.08.2,3.19a25.3,25.3,0,0,0,2.29,1.81c.57,1.23,1.13,2.46,1.7,3.7-1,.18-2.06.33-3.07.55s-1.93.56-1.91,1.8a2.18,2.18,0,0,0,1.87,2.18,6.75,6.75,0,0,0,2.14.29,15.08,15.08,0,0,1,3.35.3l1.65,4c-1.39.67-2.8,1.3-4.18,2a6.15,6.15,0,0,0-2.17,1.54c-.53.66-.92,1.43-.37,2.23.45.65,1.19.42,1.8.24,1.09-.33,2.16-.72,3.22-1.13a8.45,8.45,0,0,1,3-.9,60.24,60.24,0,0,1,1.54,8.12c.43,3.43.55,6.95,2.17,10.16,1.05,2.1,1.93,4.29,2.89,6.44a17,17,0,0,1-1.94,6c-2.42,5.41-3.41,11.19-4.54,16.92a24.56,24.56,0,0,0-.59,7.51c-.4,1-.85,1-1.47.12-3.81-5.52-8.89-9.68-14.41-13.35a32.09,32.09,0,0,0-5.24-3.1c-6.17-2.6-12.05-1.19-18,.94-7.41,2.64-13.88,13.5-9.22,22.37,2,3.87,3.26,8.13,6.05,11.66a152.11,152.11,0,0,0,19.39,20.24c4.42,3.84,8.86,7.65,13,11.78a25,25,0,0,0,6.21,5,49.66,49.66,0,0,0,1.46,5.89C227.14,464.2,229.48,467.3,231.87,470.37Z" transform="translate(188.78 -256.04)"/><path class="cls-2" d="M228.68,343.71a8.45,8.45,0,0,0-3,.9c-1.06.41-2.13.8-3.22,1.13-.61.18-1.35.41-1.8-.24-.55-.8-.16-1.57.37-2.23a6.15,6.15,0,0,1,2.17-1.54c1.38-.7,2.79-1.33,4.18-2a33.07,33.07,0,0,0,9.1-4.47,91.23,91.23,0,0,0-10.75.43,15.08,15.08,0,0,0-3.35-.3,6.75,6.75,0,0,1-2.14-.29,2.18,2.18,0,0,1-1.87-2.18c0-1.24.93-1.59,1.91-1.8s2-.37,3.07-.55a52.66,52.66,0,0,0,9-.25l-10.74-3.45a25.3,25.3,0,0,1-2.29-1.81c-1.11-1.11-1.09-1.53-.2-3.19a14,14,0,0,1,7.2.54c3,.95,6,1.94,9.05,2.9.5.16,1,.61,1.58.12.18-.78-.32-1.4-.55-2.06a59.35,59.35,0,0,1-2-7.29,77.61,77.61,0,0,1-1.55-15c0-4.2.07-8.4.14-12.61a51.37,51.37,0,0,1,.57-7.73c.28-1.58.44-1.75,2-1.41a15.3,15.3,0,0,1,3.87,1.39,6.4,6.4,0,0,0,2,.84,20.71,20.71,0,0,0,2.84,2.28,44.43,44.43,0,0,1,11.38,13.89c.91,1.81.95,1.85,3,1.12A57.7,57.7,0,0,1,274,295.47c6.81-.48,13.54-.2,19.86,2.8a2,2,0,0,0,2.86-.71c3.39-4.38,6.95-8.63,10.32-13,2.15-2.78,4.68-5.21,6.85-8,.67-.86,1.31-.74,2,0a19.7,19.7,0,0,1,2.85,4.82,38.73,38.73,0,0,1,4,15.48,45.09,45.09,0,0,1-5.89,26,3.55,3.55,0,0,0-.23.43c-.17.36-.41.74-.06,1.11s.62.18.93.1c1.73-.45,3.48-.85,5.19-1.38a43.46,43.46,0,0,1,4.48-1.19,3.72,3.72,0,0,1,1.93,0c1.38.44,1.72,1.5.81,2.61a6.77,6.77,0,0,1-2.39,1.66c-3.12,1.48-6.5,2.1-9.82,2.91a23.76,23.76,0,0,0-5,1.65,22.36,22.36,0,0,0,6.58.44c2.93-.26,5.86-.1,8.8-.14a4.47,4.47,0,0,1,1.21.1c1,.27,1.9.75,1.85,1.94s-1,1.38-1.87,1.58a17.08,17.08,0,0,1-3.64.35c-3.4,0-6.8,0-10.72,0a8.83,8.83,0,0,0,3.19,2c3.3,1.58,6.75,2.9,9.55,5.37.89.8,2.33,1.6,1.8,2.89-.62,1.51-2.24.86-3.48.67-3.1-.48-5.87-1.91-8.76-3-2.06-.77-4-1.78-6.05-2.64-1.7-.72-1.85-.69-2.36,1.15a27.48,27.48,0,0,0,0,15.64,106,106,0,0,0,5.83,14c2.4,5.09,4.56,10.29,5.4,15.9.57,3.86.92,7.75,1.18,11.64.11,1.64.67,3.2.6,4.84.07,3.58.56,7.12.88,10.68a124.14,124.14,0,0,1,.53,16.59,5.35,5.35,0,0,0,.26,1c2.23-1.6,4.38-2.95,5.72-5.26a27.8,27.8,0,0,0,3.51-4.07,17.78,17.78,0,0,0,2.51-3.21,52,52,0,0,0,10-20.56,19.89,19.89,0,0,0,.19-9.14c-.32-1.32-.61-2.7-1.9-3.52a9.71,9.71,0,0,0-8.33-5.08,13.23,13.23,0,0,0-8.78,2.35,7.47,7.47,0,0,1-1.49.83,3.27,3.27,0,0,1-4.63-1.78c-1.71-4-.59-9.76,2-12.53,4.61-4.87,10-5.56,16.09-4.67a47.8,47.8,0,0,1,10.73,3.18c4.13,2.78,8,5.81,10.2,10.48a8.43,8.43,0,0,0,1.17,3.18c.18,1.12.38,2.23.53,3.35a40,40,0,0,1-.47,15.25,104.49,104.49,0,0,1-4.18,12,39.88,39.88,0,0,1-5,10c-1.84,2.47-3.67,5-5.5,7.44-1.7,1-2.43,2.8-3.56,4.26s-2.91,2.21-3.15,4.22c-2.34,2.55-4.54,5.24-7.06,7.6-1.79,1.68-3.84,3.11-5.55,4.91a10.93,10.93,0,0,0-2.31,3.05c-1.85,1.93-3.63,3.92-5.57,5.76a28.35,28.35,0,0,0-5.75,7.82A40.3,40.3,0,0,1,308,475.4c-2.43,2.9-5.13,5.48-8.81,6.72A49.33,49.33,0,0,1,286,484.65a123.52,123.52,0,0,0-13.85,1,22.7,22.7,0,0,1-12-.8,13.33,13.33,0,0,0-1.89-.45,75.3,75.3,0,0,1-14.53-6.16c-3.15-1.83-6.7-3-9.4-5.56-.81-.78-1.63-1.55-2.45-2.32-2.39-3.07-4.73-6.17-5.88-10a49.66,49.66,0,0,1-1.46-5.89,27,27,0,0,1,3.45-1.81c2.92-1.44,6-2.47,8.79-4.23A97.26,97.26,0,0,0,252,437.05c5.66-5.43,11-11.12,14-18.57,2.37-5.93,4.32-12,3.83-18.47-.32-4.3-1.47-8.31-4.46-11.62-4.93-5.44-14.61-7.78-22-3.38A46.54,46.54,0,0,0,231,395.15c-1,1.19-1.84,2.46-2.76,3.7a24.56,24.56,0,0,1,.59-7.51c1.13-5.73,2.12-11.51,4.54-16.92a17,17,0,0,0,1.94-6,7.63,7.63,0,0,0,.77-1.23c1.69-4.31,3.88-8.4,5.75-12.63a54.23,54.23,0,0,0,3.27-8.9,9.42,9.42,0,0,0-.16-6c-.74-1.8-1.83-2.37-3.66-1.75A64.34,64.34,0,0,0,228.68,343.71Z" transform="translate(188.78 -256.04)"/><path class="cls-1" d="M258.25,484.41a13.33,13.33,0,0,1,1.89.45,22.7,22.7,0,0,0,12,.8,123.52,123.52,0,0,1,13.85-1,49.33,49.33,0,0,0,13.12-2.53c3.68-1.24,6.38-3.82,8.81-6.72a40.3,40.3,0,0,0,4.91-7.84,28.35,28.35,0,0,1,5.75-7.82c1.94-1.84,3.72-3.83,5.57-5.76a38.84,38.84,0,0,0,10.84-8.3A102.35,102.35,0,0,1,351.34,431c5-3.47,10.25-6.37,16.26-7.5a16.88,16.88,0,0,1,12.42,2,5,5,0,0,1,2.34,5.45c-.64,3.72-2.93,6.52-5.32,9.17-5.06,5.61-10.39,11-15.4,16.67a69.11,69.11,0,0,1-14.26,11.72,159.53,159.53,0,0,0-14.62,11c-3.43,2.88-5.53,6.79-8,10.42a20.76,20.76,0,0,0-2.3,4.56.88.88,0,0,0,.2,1c.84-.34,1.18-1.15,1.66-1.86,2.09-3.1,3.87-6.4,6.31-9.27a46.82,46.82,0,0,1,5.74-5.27,146.21,146.21,0,0,1,18.12-13.24,6,6,0,0,0,1.31-1c5.49-6,11.31-11.63,16.9-17.5a77.63,77.63,0,0,0,9.12-10.78,23.21,23.21,0,0,0,2.6-5.49,5.33,5.33,0,0,0-1.23-5.42,12.83,12.83,0,0,0-7.15-4.38c-.48-.1-.95-.2-1.43-.32-2.49-.61-2.55-.64-1.4-2.83,4.89-9.38,10.15-18.54,16.8-26.83a54.63,54.63,0,0,1,12.32-11.72,17.41,17.41,0,0,1,12.29-2.85,6.64,6.64,0,0,1,.94.27c2.12.63,2.48,1.43,1.9,3.62a52.47,52.47,0,0,1-6,13.27A224.06,224.06,0,0,0,397.6,421q-2.5,6-4.78,12c-1.71,4.54-4.44,8.48-7.1,12.46-5.57,8.32-11.33,16.5-16.06,25.34A87.83,87.83,0,0,0,366,479a40.67,40.67,0,0,1-10.11,14.48,175.54,175.54,0,0,1-16,12.79C330,513.52,320,520.66,310.13,528a208.11,208.11,0,0,0-19.47,15.82c-2.75,2.63-5.56,5.24-7.23,8.77a23.91,23.91,0,0,0-2.31,7.89c-.38,3.94-.38,3.94-4.23,3.94H225.05c-2.89,0-3-.16-2.59-3.06.32-2.32.49-4.67.79-7q.6-4.71,1.3-9.4c.86-5.61,1.79-11.21,3-16.76a100.66,100.66,0,0,1,6.8-21.54,29.76,29.76,0,0,1,5.51-7.43,87.24,87.24,0,0,1,16.44-13.36A7.68,7.68,0,0,0,258.25,484.41Z" transform="translate(188.78 -256.04)"/><path class="cls-2" d="M89.83,432.37c-3-2.53-5.62-5-8.78-6.77A38.4,38.4,0,0,0,68,421a4,4,0,0,1-3.44-2.57c-1.24-2.64-2.7-5.19-4.19-7.71a8.71,8.71,0,0,1-1.28-3.62c-.35-3.48-1-6.91-1.53-10.35-.7-4.23-1.29-8.49-2.12-12.7-1.12-5.71-2.22-11.44-3.81-17.05a77.71,77.71,0,0,0-4.54-12.84c-.66-1.35-.55-1.83.83-2.47,5.95-2.76,11.64-1.71,16,3.5,2.7,3.25,4.26,7.1,5.73,11A211.59,211.59,0,0,1,78,395.45c1.16,5.14,2,10.35,3.67,15.36,1.83,5.56,4.3,10.87,6.41,16.31A19.45,19.45,0,0,1,89.83,432.37Z" transform="translate(188.78 -256.04)"/><path class="cls-1" d="M345.81,429.94c1.83-2.48,3.66-5,5.5-7.44a39.88,39.88,0,0,0,5-10,104.49,104.49,0,0,0,4.18-12A40,40,0,0,0,361,385.3c-.15-1.12-.35-2.23-.53-3.35,1.65-5.19,3.06-10.45,5.07-15.52A48.27,48.27,0,0,1,370.72,356a13.2,13.2,0,0,1,9.75-5.77,12.79,12.79,0,0,1,7.46,1.9c.81.45.82,1,.4,1.82-2.68,5.16-4.08,10.75-5.56,16.33-1.58,5.95-2.64,12-3.8,18s-1.86,12-2.74,18a11.64,11.64,0,0,1-1.45,4.58,74.76,74.76,0,0,0-4.2,7.71,3.79,3.79,0,0,1-3.29,2.39A37.09,37.09,0,0,0,350,428.43c-1.46,1.14-2.81,2.42-4.33,3.73C345.43,431.29,345.82,430.62,345.81,429.94Z" transform="translate(188.78 -256.04)"/><path class="cls-2" d="M109.23,450.11a25.79,25.79,0,0,1-6.55-4.71,101.63,101.63,0,0,0-8.5-8.74,4.19,4.19,0,0,1-1.25-2c-1.42-4.41-2.88-8.82-4.7-13.08a40.38,40.38,0,0,0-2-4.43c-2.42-4.14-3.45-8.76-4.61-13.31q-2.18-8.48-3.88-17.06c-.6-3-1.35-6-2-9a55.15,55.15,0,0,0-3-9c-.86-2.19-1.74-4.37-2.55-6.58-.46-1.24-.13-1.77,1.17-2.16a6.81,6.81,0,0,1,2.91-.1c4.91.71,8.53,3.4,11.28,7.4,3.07,4.45,4.54,9.52,5.47,14.75a201.75,201.75,0,0,0,10.8,37.85,119.22,119.22,0,0,1,6.51,21.64C108.8,444.17,108.89,446.84,109.23,450.11Z" transform="translate(188.78 -256.04)"/><path class="cls-2" d="M127.57,459.86c-1.94-.28-3.49-1.55-5.27-2.24-3-1.14-5.72-2.73-8.58-4.1a3.67,3.67,0,0,1-2.3-3.12,133.69,133.69,0,0,0-9.48-35.63,14.61,14.61,0,0,1-1-7.65c.42-3.24-.23-6.33-.68-9.43-.56-3.92.16-4.93,4.12-4.74a7.37,7.37,0,0,1,6,3.59A27.27,27.27,0,0,1,114.29,408c.8,5.52,1.45,11.07,2.31,16.59A75.93,75.93,0,0,0,121,441.74c1.47,3.61,3.2,7.1,4.77,10.67a46,46,0,0,1,1.75,4.53A3.22,3.22,0,0,1,127.57,459.86Z" transform="translate(188.78 -256.04)"/><path class="cls-1" d="M329.12,426.49c-1.34,2.31-3.49,3.66-5.72,5.26a5.35,5.35,0,0,1-.26-1,124.14,124.14,0,0,0-.53-16.59c-.32-3.56-.81-7.1-.88-10.68a28.53,28.53,0,0,1,3.23-7,7.63,7.63,0,0,1,8.26-3.32c1.65.39,2.41,1.13,2.06,2.72-1.09,5-.63,10-1,15a22.53,22.53,0,0,1-1.87,6.24C331.25,420.22,329.81,423.23,329.12,426.49Z" transform="translate(188.78 -256.04)"/><path class="cls-1" d="M359.29,378.77c-2.19-4.67-6.07-7.7-10.2-10.48,2.31-3.67,5.28-6.54,9.54-7.85a11.14,11.14,0,0,1,4.54-.56c2.11.22,2.38.87,1.65,2.89-1.7,4.71-3.85,9.26-5.08,14.13C359.58,377.52,359.44,378.15,359.29,378.77Z" transform="translate(188.78 -256.04)"/><path class="cls-1" d="M343.47,386c1.29.82,1.58,2.2,1.9,3.52a19.89,19.89,0,0,1-.19,9.14,52,52,0,0,1-10,20.56,17.78,17.78,0,0,1-2.51,3.21c1.5-4.84,3.5-9.52,5-14.36A210.11,210.11,0,0,0,343.47,386Z" transform="translate(188.78 -256.04)"/><path class="cls-5" d="M339.1,438.42c.24-2,2-2.89,3.15-4.22a2.86,2.86,0,0,1-1.2,2.47C340.37,437.21,339.75,437.83,339.1,438.42Z" transform="translate(188.78 -256.04)"/><path class="cls-4" d="M228.21,398.85c.92-1.24,1.79-2.51,2.76-3.7A46.54,46.54,0,0,1,243.38,385c7.35-4.4,17-2.06,22,3.38,3,3.31,4.14,7.32,4.46,11.62.49,6.51-1.46,12.54-3.83,18.47-3,7.45-8.33,13.14-14,18.57a97.26,97.26,0,0,1-15.21,11.41c-2.76,1.76-5.87,2.79-8.79,4.23a27,27,0,0,0-3.45,1.81,25,25,0,0,1-6.21-5c-4.17-4.13-8.61-7.94-13-11.78a152.11,152.11,0,0,1-19.39-20.24c-2.79-3.53-4-7.79-6.05-11.66-4.66-8.87,1.81-19.73,9.22-22.37,6-2.13,11.85-3.54,18-.94a32.09,32.09,0,0,1,5.24,3.1c5.52,3.67,10.6,7.83,14.41,13.35C227.36,399.87,227.81,399.89,228.21,398.85Z" transform="translate(188.78 -256.04)"/><path class="cls-4" d="M232.93,301.11a77.61,77.61,0,0,0,1.55,15,59.35,59.35,0,0,0,2,7.29c.23.66.73,1.28.55,2.06-.57.49-1.08,0-1.58-.12-3-1-6-1.95-9.05-2.9a14,14,0,0,0-7.2-.54,10,10,0,0,1,.11-7.14c.27-.76.47-1.55.78-2.3a11.39,11.39,0,0,0-.19-9.44,14.94,14.94,0,0,1-1.2-7.83,2,2,0,0,1,.48-1.24c.89-.07,1.52.67,2.2,1.13a76.31,76.31,0,0,0,8.87,5.07A25.33,25.33,0,0,0,232.93,301.11Z" transform="translate(188.78 -256.04)"/><path class="cls-4" d="M228.68,343.71a64.34,64.34,0,0,1,12.57-5.77c1.83-.62,2.92-.05,3.66,1.75a9.42,9.42,0,0,1,.16,6,54.23,54.23,0,0,1-3.27,8.9c-1.87,4.23-4.06,8.32-5.75,12.63a7.63,7.63,0,0,1-.77,1.23c-1-2.15-1.84-4.34-2.89-6.44-1.62-3.21-1.74-6.73-2.17-10.16A60.24,60.24,0,0,0,228.68,343.71Z" transform="translate(188.78 -256.04)"/><path class="cls-4" d="M225.72,335.69a91.23,91.23,0,0,1,10.75-.43,33.07,33.07,0,0,1-9.1,4.47Z" transform="translate(188.78 -256.04)"/><path class="cls-4" d="M221.64,326.87l10.74,3.45a52.66,52.66,0,0,1-9,.25C222.77,329.33,222.21,328.1,221.64,326.87Z" transform="translate(188.78 -256.04)"/><path class="cls-1" d="M134.35,463.48" transform="translate(188.78 -256.04)"/><path class="cls-1" d="M134.27,464.46" transform="translate(188.78 -256.04)"/><path class="cls-2" d="M183.33,488.42a4.33,4.33,0,0,0,1.89,1.88,62.28,62.28,0,0,1,13.91,13.59c2.52,3.49,3.78,7.56,5.14,11.56a132.17,132.17,0,0,1,3.57,13.89c1.85,8.17,2.89,16.46,4,24.73.36,2.57.67,5.15,1,7.73,0,.32,0,.65,0,1,.09,1.09-.27,1.74-1.49,1.65-.49,0-1,0-1.47,0H157.33c-.41,0-.82,0-1.23,0-.83,0-1.39-.16-1.5-1.14s-.43-1.74-.52-2.63a22.76,22.76,0,0,0-6.83-14.17,153,153,0,0,0-13.59-11.86c-8.65-6.91-17.68-13.3-26.6-19.83-6.83-5-13.65-10-20.4-15.09a87.26,87.26,0,0,1-9-7.88,42,42,0,0,1-9.48-15.48,69.4,69.4,0,0,0-6.07-11.66c-4.9-8.06-10.29-15.8-15.55-23.63A58.55,58.55,0,0,1,40.83,429a228.11,228.11,0,0,0-11.14-24.58c-3-5.77-6.68-11.18-9.44-17.09a37.25,37.25,0,0,1-2.54-6.84c-.55-2.18-.15-3,2.06-3.52a16.37,16.37,0,0,1,13,2.54c5.49,3.54,9.78,8.31,13.71,13.43A155.1,155.1,0,0,1,60.9,416.06c.66,1.29,2.1,2.69,1.66,3.91s-2.53.92-3.88,1.33a13.51,13.51,0,0,0-7,4.68,5.3,5.3,0,0,0-1,4.81,22,22,0,0,0,4.39,8.09,131.65,131.65,0,0,0,9.28,10.34c4.45,4.52,9,8.95,13.16,13.74a18.32,18.32,0,0,0,3.87,3.28A158.63,158.63,0,0,1,103.26,483c2.73,2.5,4.43,5.8,6.47,8.83.84,1.25,1.39,2.73,2.82,3.84.48-1.36-.2-2.35-.69-3.24a50.35,50.35,0,0,0-15.53-17.86c-5.28-3.66-10.47-7.47-15.86-11a24.4,24.4,0,0,1-4.23-4c-5.4-5.75-10.72-11.58-16.11-17.34a47.56,47.56,0,0,1-5.27-6.4,14.6,14.6,0,0,1-2-4.66A4.78,4.78,0,0,1,55,425.63a14.43,14.43,0,0,1,8-2.41c7.09-.18,13,2.9,18.77,6.52,7,4.42,12.9,10.14,18.55,16.14A46.14,46.14,0,0,0,110.67,454c3.79,2.22,7.6,4.4,11.4,6.6a19.32,19.32,0,0,0,3.6,1.44c2.93,1,5.84,2,8.73,3" transform="translate(188.78 -256.04)"/><path class="cls-1" d="M382.6,524.45a19.63,19.63,0,0,0-4.59,1,18,18,0,0,0-4.67,2.62c-.24.19-.75.65-1.13,1a15.43,15.43,0,0,0-4.59,9.73,24,24,0,0,0,0,4c.5,4.66,2.54,8.88,6.47,13.44.75.88,2.86,3,4,4.07,2,1.81,4.13,3.6,8.29,6.86a75.57,75.57,0,0,1,8.47,7.23,18,18,0,0,1,3.2,4.15,5.21,5.21,0,0,0,.29.52,3.15,3.15,0,0,0,.3-.52,18,18,0,0,1,3.19-4.15,77,77,0,0,1,8.48-7.23,97.3,97.3,0,0,0,10.49-9,35.76,35.76,0,0,0,4-4.71,22.3,22.3,0,0,0,4.29-10.7,25.83,25.83,0,0,0,0-3.93,15.43,15.43,0,0,0-4.59-9.73c-.38-.37-.89-.83-1.13-1a18,18,0,0,0-4.68-2.62,19.78,19.78,0,0,0-3.43-.86,19.28,19.28,0,0,0-4.86,0A15.06,15.06,0,0,0,406,526a14.26,14.26,0,0,0-7.32,8.83,3.62,3.62,0,0,1-.24.66,5.7,5.7,0,0,1-.23-.66,14.27,14.27,0,0,0-7.33-8.83,14.53,14.53,0,0,0-6.64-1.56C383.47,524.43,382.76,524.43,382.6,524.45Z" transform="translate(188.78 -256.04)"/><path class="cls-2" d="M323.29,560.74a21.84,21.84,0,0,0,11.06,3.12c6.31,0,10-3.34,10-8.16,0-4.46-2.55-7-9-9.5-7.8-2.76-12.62-6.8-12.62-13.54,0-7.44,6.17-13,15.45-13A21.67,21.67,0,0,1,348.74,522l-1.7,5a19,19,0,0,0-9.08-2.27c-6.52,0-9,3.9-9,7.16,0,4.47,2.9,6.67,9.5,9.22,8.08,3.12,12.19,7,12.19,14,0,7.37-5.46,13.75-16.73,13.75-4.61,0-9.64-1.35-12.19-3.05Z" transform="translate(188.78 -256.04)"/><path class="cls-2" d="M357.38,564.57a4.2,4.2,0,0,1,4.26-4.47,4.47,4.47,0,0,1-.07,8.93A4.18,4.18,0,0,1,357.38,564.57Z" transform="translate(188.78 -256.04)"/><path class="cls-2" d="M432.17,564.57a4.19,4.19,0,0,1,4.25-4.47,4.47,4.47,0,1,1-4.25,4.47Z" transform="translate(188.78 -256.04)"/><path class="cls-2" d="M447.69,560.74a21.9,21.9,0,0,0,11.06,3.12c6.31,0,10-3.34,10-8.16,0-4.46-2.55-7-9-9.5-7.8-2.76-12.62-6.8-12.62-13.54,0-7.44,6.16-13,15.45-13A21.7,21.7,0,0,1,473.15,522l-1.71,5a19,19,0,0,0-9.07-2.27c-6.52,0-9,3.9-9,7.16,0,4.47,2.9,6.67,9.49,9.22,8.09,3.12,12.2,7,12.2,14,0,7.37-5.46,13.75-16.73,13.75-4.61,0-9.64-1.35-12.2-3.05Z" transform="translate(188.78 -256.04)"/><text class="cls-6" transform="translate(676.07 312.92) scale(1.01 1)">P<tspan class="cls-7" x="39.69" y="0">E</tspan><tspan class="cls-8" x="77.59" y="0">T</tspan></text></svg>