<?xml version="1.0" encoding="utf-8"?>
<!-- Generator: Adobe Illustrator 23.0.6, SVG Export Plug-In . SVG Version: 6.00 Build 0)  -->
<svg version="1.1" id="Camada_1" xmlns="http://www.w3.org/2000/svg" xmlns:xlink="http://www.w3.org/1999/xlink" x="0px" y="0px"
	 viewBox="0 0 612 792" style="enable-background:new 0 0 612 792;" xml:space="preserve">
<style type="text/css">
	.st0{fill:#FFFFFF;}
	.st1{fill:#C2AA66;}
	.st2{fill:#333333;}
	.st3{fill:#030303;}
</style>
<g>
	<g>
		<path class="st0" d="M490.4,412.66c1.46-1.89,2.39-4.21,4.58-5.48c0.02,0.88-0.49,1.74-0.14,2.85c1.95-1.69,3.69-3.32,5.56-4.79
			c6.55-5.12,14.01-8.23,22.2-9.54c2.04-0.33,3.32-1.07,4.24-3.07c1.57-3.41,3.43-6.71,5.39-9.92c1.14-1.86,1.57-3.82,1.87-5.89
			c1.13-7.73,2.05-15.51,3.52-23.18c1.49-7.76,2.86-15.55,4.89-23.2c1.9-7.17,3.7-14.36,7.15-20.99c0.54-1.03,0.53-1.77-0.52-2.35
			c-2.98-1.65-6.24-2.78-9.58-2.44c-5.2,0.52-9.43,3.06-12.54,7.42c-2.95,4.14-4.81,8.77-6.67,13.43
			c-2.59,6.52-4.4,13.29-6.53,19.96c-0.83-1.24-1.23-2.64-1.5-4.09c0.19-0.8,0.37-1.6,0.58-2.4c1.58-6.27,4.35-12.12,6.53-18.18
			c0.93-2.59,0.59-3.43-2.12-3.72c-1.99-0.21-3.93,0.14-5.84,0.73c-5.47,1.69-9.29,5.38-12.27,10.09c-4.47-1.79-9-3.38-13.79-4.09
			c-7.8-1.15-14.76-0.26-20.69,6c-3.37,3.56-4.82,10.91-2.62,16.11c1.07,2.54,3.44,3.39,5.96,2.3c0.67-0.29,1.32-0.64,1.91-1.07
			c3.38-2.45,7.18-3.25,11.28-3.03c4.77,0.25,8.31,2.44,10.71,6.54c-1.92,9.61-4.53,19.03-7.48,28.37
			c-1.96,6.23-4.53,12.24-6.46,18.47c-1.39,1.84-2.79,3.68-4.52,5.23c0.9-4.2,2.74-8.06,4.22-12.06c0.97-2.62,2.19-5.13,2.41-8.03
			c0.49-6.44-0.1-12.94,1.29-19.33c0.45-2.05-0.53-3-2.64-3.51c-4.11-0.99-8.22,0.65-10.62,4.28c-1.85,2.79-3.13,5.85-4.16,9.03
			c0.09-2.11-0.62-4.12-0.77-6.21c-0.34-5-0.79-10.01-1.52-14.97c-1.07-7.21-3.85-13.9-6.94-20.45c-2.77-5.87-5.57-11.75-7.49-17.97
			c-2.06-6.69-1.81-13.43,0.04-20.11c0.65-2.37,0.85-2.4,3.03-1.47c2.6,1.1,5.13,2.4,7.78,3.38c3.72,1.39,7.29,3.24,11.26,3.85
			c1.6,0.24,3.68,1.09,4.48-0.86c0.68-1.66-1.16-2.69-2.32-3.71c-3.59-3.18-8.03-4.87-12.28-6.9c-1.26-0.6-2.63-1.01-4.1-2.52
			c5.04,0,9.41-0.02,13.78,0.01c1.58,0.01,3.13-0.13,4.68-0.46c1.18-0.25,2.36-0.59,2.41-2.03c0.05-1.53-1.11-2.15-2.39-2.49
			c-0.5-0.13-1.04-0.15-1.56-0.14c-3.77,0.06-7.54-0.14-11.31,0.19c-2.56,0.22-5.13,0.08-8.46-0.56c2.5-1.18,4.47-1.65,6.43-2.13
			c4.27-1.04,8.61-1.83,12.63-3.74c1.15-0.54,2.25-1.14,3.07-2.14c1.17-1.43,0.74-2.79-1.04-3.36c-0.82-0.26-1.64-0.14-2.48,0.03
			c-1.95,0.4-3.86,0.92-5.76,1.52c-2.19,0.69-4.44,1.2-6.67,1.78c-0.4,0.1-0.85,0.22-1.19-0.13c-0.45-0.47-0.14-0.96,0.07-1.43
			c0.09-0.19,0.19-0.37,0.3-0.55c5.95-10.37,8.36-21.51,7.58-33.45c-0.46-7-1.9-13.67-5.11-19.91c-1.09-2.13-1.98-4.4-3.66-6.2
			c-0.9-0.96-1.72-1.11-2.59-0.01c-2.79,3.54-6.05,6.66-8.8,10.24c-4.34,5.64-8.91,11.1-13.27,16.73c-1.11,1.44-2.06,1.69-3.68,0.92
			c-8.12-3.86-16.78-4.22-25.53-3.6c-6.72,0.48-13.21,2.14-19.56,4.38c-2.66,0.94-2.7,0.89-3.88-1.44
			c-3.56-7.03-8.64-12.82-14.62-17.85c-1.19-1-2.62-1.72-3.65-2.93c-0.17-1.28-0.83-2.36-1.37-3.5
			c-2.99-6.33-7.83-11.09-13.15-15.41c-6.16-5-13.23-8.43-20.51-11.43c-4.79-1.97-9.79-2.78-15.02-2.45
			c-3.87,0.24-7.36,1.57-10.87,2.9c-2.21,0.84-4.47,1.25-6.76,1.09c-5.55-0.39-11.11-0.17-16.66-0.2
			c-3.48-0.02-7.09,0.24-10.07,2.01c-4.24,2.51-8.27,2.42-12.83,1.12c-7.23-2.07-14.31-1.1-20.99,2.46
			c-1.94,1.04-3.9,2.04-5.89,2.98c-9.22,4.36-17.11,10.53-24.13,17.84c-3.19,3.33-6,6.99-7.91,11.27c-4.54,10.13-4.62,20.49-1.63,31
			c1.15,4.04,3.6,7.36,6.64,10.14c4.84,4.43,13.68,2.93,17.77-2.79c3.12-4.38,3.83-9.45,4.27-14.58c0.35-4.08,0.71-8.14,2.57-11.89
			c0.83-1.66,1.56-3.4,3.45-4.53c2.13,2.95,3.18,6.21,3.98,9.57c1.28,5.4,2.2,10.87,3.12,16.34c1.03,6.1,0.7,12.11-0.3,18.11
			c-1.06,6.37-3.84,12.16-6.52,17.96c-3.65,7.9-7.06,15.9-9.42,24.3c-2.15,7.66-4.05,15.39-6.62,22.93
			c-2.46,7.21-3.68,14.67-3.93,22.2c-0.54,16.25,0.25,32.47,3.06,48.51c2.3,13.14,5.69,25.98,11.91,37.91
			c0.3,0.58,1.01,1.19,0.14,1.99c-3.72-1.26-7.46-2.56-11.23-3.8c-1.59-0.52-3.18-1.01-4.63-1.85c-4.89-2.82-9.78-5.64-14.66-8.49
			c-4.9-2.87-9.36-6.33-13.26-10.47c-7.26-7.71-14.81-15.08-23.86-20.76c-7.42-4.66-15.01-8.62-24.13-8.38
			c-3.75,0.1-7.27,0.97-10.33,3.09c-2.38,1.65-3.54,3.96-2.75,7.08c0.55,2.17,1.33,4.15,2.56,6c1.97,2.98,4.34,5.62,6.78,8.23
			c6.93,7.41,13.77,14.9,20.72,22.29c1.71,1.82,3.32,3.78,5.44,5.16c6.93,4.52,13.59,9.41,20.39,14.12
			c8.67,6.01,15.01,13.85,19.97,22.96c0.63,1.15,1.5,2.42,0.88,4.17c-1.83-1.42-2.54-3.32-3.63-4.93c-2.62-3.9-4.8-8.14-8.31-11.36
			c-8.74-8.01-18.18-15.12-28.15-21.51c-1.88-1.2-3.55-2.59-4.97-4.22c-5.37-6.16-11.21-11.85-16.93-17.66
			c-4.18-4.25-8.23-8.63-11.93-13.3c-2.46-3.11-4.63-6.44-5.65-10.4c-0.61-2.36-0.06-4.35,1.33-6.18c2.3-3,5.37-4.92,8.97-6.02
			c1.73-0.53,4.38-0.05,4.98-1.72c0.57-1.57-1.28-3.37-2.14-5.02c-5.39-10.42-11.39-20.46-18.54-29.79
			c-5.05-6.59-10.56-12.72-17.62-17.27c-5.15-3.32-10.68-4.66-16.72-3.26c-2.84,0.66-3.35,1.72-2.65,4.52
			c0.76,3.06,1.94,5.95,3.27,8.79c3.55,7.6,8.24,14.56,12.13,21.97c5.4,10.27,10.19,20.78,14.32,31.61
			c2.05,5.38,4.15,10.74,7.39,15.56c6.76,10.06,13.69,20.02,19.99,30.38c2.93,4.81,5.82,9.68,7.8,14.99
			c2.77,7.42,6.52,14.26,12.18,19.9c3.64,3.62,7.47,7.04,11.57,10.14c8.67,6.56,17.45,12.97,26.23,19.39
			c11.47,8.4,23.09,16.62,34.2,25.5c6.05,4.84,12.03,9.72,17.48,15.24c5.03,5.1,8.09,11.06,8.78,18.22
			c0.11,1.14,0.54,2.24,0.67,3.38c0.14,1.26,0.86,1.52,1.93,1.46c0.52-0.03,1.05,0,1.57,0c22.54,0,45.08,0,67.62,0
			c0.63,0,1.26-0.04,1.89,0c1.56,0.12,2.03-0.72,1.92-2.11c-0.03-0.42-0.01-0.84-0.05-1.25c-0.36-3.32-0.76-6.64-1.22-9.93
			c-1.48-10.64-2.82-21.3-5.19-31.8c-1.36-6.01-2.61-12.04-4.59-17.86c-1.75-5.14-3.37-10.37-6.61-14.86
			c-4.95-6.86-11.11-12.49-17.89-17.47c-0.85-0.63-1.89-1.11-2.43-2.42c5.73-0.32,11.12-0.91,16.5-1.65
			c2.93-0.4,5.86-1.02,8.29-2.75c3.7-2.64,7.87-3.84,12.22-4.69c2.69-0.52,5.25-1.42,7.69-2.68c6.26-3.24,11.89-7.44,17.66-11.44
			c1.05,0.99,2.11,1.98,3.15,2.98c3.46,3.33,8.03,4.8,12.08,7.15c5.88,3.41,12.23,5.81,18.68,7.92c-0.68,0.83-1.63,1.3-2.5,1.87
			c-7.65,4.98-14.88,10.48-21.14,17.18c-2.73,2.92-5.39,5.94-7.08,9.55c-4.13,8.83-6.69,18.18-8.75,27.69
			c-1.55,7.14-2.75,14.34-3.85,21.56c-0.61,4.02-1.16,8.05-1.67,12.09c-0.38,3-0.6,6.02-1.01,9.02c-0.51,3.72-0.4,3.92,3.33,3.92
			c22.22,0,44.44,0,66.65,0c4.94,0,4.95,0,5.44-5.07c0.34-3.57,1.45-6.91,2.97-10.14c2.15-4.54,5.76-7.9,9.29-11.27
			c7.8-7.44,16.41-13.92,25.03-20.34c12.66-9.44,25.51-18.62,38.23-27.98c7.07-5.21,14.14-10.43,20.58-16.44
			c5.68-5.3,10.08-11.47,13-18.62c1.46-3.59,2.9-7.17,4.73-10.58c6.08-11.37,13.5-21.89,20.65-32.57
			c3.42-5.12,6.93-10.19,9.14-16.03c1.95-5.17,4-10.3,6.15-15.4c5.08-12.07,11.15-23.62,17.81-34.88c3.19-5.4,6.13-10.93,7.74-17.07
			c0.74-2.82,0.28-3.85-2.45-4.65c-0.4-0.12-0.8-0.29-1.21-0.35c-5.72-0.75-10.95,0.46-15.8,3.66c-6.19,4.09-11.24,9.33-15.84,15.08
			c-8.54,10.66-15.31,22.43-21.6,34.49c-1.47,2.82-1.4,2.85,1.81,3.64c0.61,0.15,1.23,0.28,1.84,0.41c3.7,0.83,6.77,2.75,9.19,5.63
			c1.68,2,2.48,4.23,1.58,6.96c-0.83,2.51-1.9,4.84-3.34,7.05c-3.33,5.12-7.56,9.48-11.73,13.86c-7.19,7.55-14.67,14.82-21.73,22.5
			c-0.5,0.54-1.05,0.97-1.69,1.36c-8.21,5.06-15.96,10.77-23.3,17.01c-2.53,2.15-5.19,4.2-7.38,6.78c-3.13,3.7-5.43,7.93-8.11,11.92
			c-0.61,0.91-1.05,1.96-2.14,2.39c-0.44-0.52-0.41-0.86-0.26-1.3c0.74-2.08,1.73-4.04,2.96-5.87c3.15-4.67,5.86-9.7,10.27-13.4
			c6.02-5.04,12.24-9.83,18.8-14.14c6.66-4.38,13-9.04,18.33-15.08c6.44-7.29,13.29-14.21,19.81-21.44
			c3.07-3.41,6.02-7.01,6.83-11.78c0.51-2.99-0.51-5.45-3.01-7c-4.96-3.09-10.44-3.56-15.96-2.52c-7.72,1.46-14.53,5.17-20.91,9.64
			c-7.75,5.43-14.57,11.93-20.99,18.86c-4.03,4.36-8.65,7.96-13.94,10.68c0.68-1.54,1.83-2.73,2.97-3.93
			c2.2-2.31,4.83-4.15,7.13-6.31c3.24-3.03,6.07-6.49,9.07-9.77c0.83-0.75,1.63-1.55,2.51-2.24
			C489.91,415.02,490.43,413.99,490.4,412.66z M165.85,410.31c-0.35-2.82-1.5-4.73-2.28-6.75c-2.72-7-5.9-13.83-8.25-20.97
			c-2.12-6.44-3.23-13.15-4.71-19.75c-2.86-12.74-6.05-25.39-10.7-37.61c-1.89-4.98-3.91-9.94-7.37-14.11
			c-5.57-6.71-12.89-8.05-20.53-4.5c-1.78,0.83-1.92,1.43-1.07,3.17c2.57,5.29,4.24,10.89,5.83,16.51
			c2.05,7.22,3.46,14.58,4.91,21.93c1.06,5.41,1.82,10.88,2.72,16.32c0.74,4.42,1.51,8.84,1.97,13.31c0.17,1.65,0.76,3.18,1.64,4.66
			c1.92,3.23,3.8,6.51,5.39,9.92c0.95,2.05,2.23,2.97,4.43,3.3c5.94,0.88,11.48,2.96,16.74,5.88
			C158.62,403.86,161.94,407.05,165.85,410.31z M190.78,433.12c-0.43-4.2-0.55-7.64-1.18-10.99c-1.79-9.57-4.81-18.75-8.37-27.83
			c-6.18-15.75-10.88-31.97-13.88-48.66c-1.21-6.72-3.1-13.25-7.04-18.97c-3.53-5.13-8.2-8.6-14.5-9.51
			c-1.24-0.18-2.51-0.23-3.74,0.14c-1.68,0.5-2.1,1.18-1.51,2.78c1.05,2.83,2.18,5.64,3.28,8.45c1.48,3.79,3.09,7.56,3.9,11.56
			c0.78,3.87,1.74,7.69,2.52,11.57c1.47,7.35,3.13,14.67,4.99,21.93c1.5,5.85,2.82,11.79,5.92,17.12c1.05,1.79,1.79,3.77,2.61,5.69
			c2.35,5.49,4.22,11.15,6.05,16.83c0.33,1.01,0.76,1.89,1.61,2.62c3.97,3.42,7.4,7.38,10.93,11.24
			C184.56,429.47,187.3,431.11,190.78,433.12z M214.37,445.65c0.83-1.38,0.29-2.6-0.09-3.75c-0.65-1.98-1.41-3.92-2.25-5.83
			c-2.02-4.58-4.24-9.08-6.14-13.72c-2.89-7.08-4.45-14.5-5.63-22.05c-1.11-7.1-1.95-14.23-2.97-21.34
			c-0.75-5.2-2.07-10.26-5.03-14.74c-1.85-2.79-4.39-4.45-7.78-4.61c-5.09-0.24-6.02,1.06-5.3,6.09c0.58,4,1.41,7.97,0.87,12.13
			c-0.42,3.28-0.01,6.64,1.35,9.83c6.24,14.68,10.19,30,12.19,45.81c0.26,2.03,1.23,3.19,2.96,4.02c3.68,1.76,7.24,3.8,11.02,5.26
			C209.88,443.66,211.88,445.29,214.37,445.65z"/>
		<path class="st1" d="M348.48,459.16c-5.77,3.99-11.4,8.19-17.66,11.44c-2.44,1.26-4.99,2.16-7.69,2.68
			c-4.34,0.85-8.52,2.05-12.22,4.69c-2.42,1.73-5.36,2.35-8.29,2.75c-5.37,0.74-10.76,1.33-16.5,1.65c0.55,1.31,1.58,1.8,2.43,2.42
			c6.79,4.98,12.94,10.61,17.89,17.47c3.24,4.49,4.85,9.72,6.61,14.86c1.99,5.83,3.24,11.86,4.59,17.86
			c2.37,10.5,3.71,21.16,5.19,31.8c0.46,3.3,0.85,6.62,1.22,9.93c0.05,0.41,0.02,0.84,0.05,1.25c0.11,1.39-0.35,2.23-1.92,2.11
			c-0.63-0.05-1.26,0-1.89,0c-22.54,0-45.08,0-67.62,0c-0.52,0-1.05-0.03-1.57,0c-1.07,0.06-1.8-0.2-1.93-1.46
			c-0.12-1.14-0.56-2.24-0.67-3.38c-0.69-7.16-3.75-13.12-8.78-18.22c-5.45-5.53-11.43-10.41-17.48-15.24
			c-11.11-8.89-22.73-17.11-34.2-25.5c-8.78-6.42-17.55-12.84-26.23-19.39c-4.1-3.1-7.93-6.51-11.57-10.14
			c-5.67-5.64-9.41-12.47-12.18-19.9c-1.99-5.32-4.88-10.18-7.8-14.99c-6.3-10.36-13.23-20.32-19.99-30.38
			c-3.24-4.82-5.34-10.18-7.39-15.56c-4.13-10.83-8.93-21.34-14.32-31.61c-3.89-7.41-8.59-14.37-12.13-21.97
			c-1.33-2.85-2.51-5.73-3.27-8.79c-0.7-2.8-0.19-3.86,2.65-4.52c6.04-1.4,11.56-0.06,16.72,3.26c7.06,4.55,12.57,10.69,17.62,17.27
			c7.15,9.32,13.15,19.37,18.54,29.79c0.86,1.66,2.7,3.45,2.14,5.02c-0.6,1.67-3.25,1.19-4.98,1.72c-3.6,1.1-6.67,3.01-8.97,6.02
			c-1.4,1.82-1.94,3.81-1.33,6.18c1.02,3.96,3.19,7.29,5.65,10.4c3.7,4.67,7.75,9.05,11.93,13.3c5.72,5.81,11.56,11.51,16.93,17.66
			c1.41,1.62,3.09,3.01,4.97,4.22c9.98,6.38,19.42,13.5,28.15,21.51c3.51,3.21,5.69,7.46,8.31,11.36c1.08,1.61,1.8,3.52,3.63,4.93
			c0.61-1.74-0.26-3.01-0.88-4.17c-4.96-9.12-11.31-16.96-19.97-22.96c-6.79-4.71-13.46-9.6-20.39-14.12
			c-2.12-1.38-3.74-3.35-5.44-5.16c-6.94-7.39-13.78-14.89-20.72-22.29c-2.44-2.6-4.8-5.24-6.78-8.23c-1.23-1.86-2.01-3.83-2.56-6
			c-0.79-3.13,0.37-5.43,2.75-7.08c3.06-2.12,6.58-2.99,10.33-3.09c9.11-0.24,16.71,3.72,24.13,8.38
			c9.05,5.68,16.6,13.05,23.86,20.76c3.9,4.14,8.35,7.6,13.26,10.47c4.87,2.85,9.77,5.67,14.66,8.49c1.45,0.84,3.05,1.33,4.63,1.85
			c3.76,1.24,7.51,2.54,11.23,3.8c0,0-0.24-0.73-0.66-1.99c-2.33-7.02-10.11-30.56-11.39-37.91c-2.81-16.04-3.6-32.26-3.06-48.51
			c0.25-7.53,1.47-15,3.93-22.2c2.57-7.53,4.47-15.27,6.62-22.93c2.36-8.4,5.76-16.4,9.42-24.3c2.68-5.8,5.47-11.59,6.52-17.96
			c1-6.01,1.33-12.01,0.3-18.11c-0.92-5.47-1.84-10.94-3.12-16.34c-0.8-3.36-1.85-6.62-3.98-9.57c-1.89,1.13-2.62,2.87-3.45,4.53
			c-1.87,3.74-2.23,7.8-2.57,11.89c-0.44,5.14-1.14,10.2-4.27,14.58c-4.08,5.72-12.93,7.22-17.77,2.79
			c-3.04-2.78-5.49-6.1-6.64-10.14c-3-10.51-2.92-20.87,1.63-31c1.92-4.27,4.72-7.94,7.91-11.27c7.02-7.31,14.91-13.48,24.13-17.84
			c1.99-0.94,3.95-1.95,5.89-2.98c6.68-3.56,13.75-4.53,20.99-2.46c4.56,1.3,8.6,1.39,12.83-1.12c2.98-1.76,6.59-2.03,10.07-2.01
			c5.55,0.04,11.11-0.19,16.66,0.2c2.3,0.16,4.55-0.25,6.76-1.09c3.51-1.34,7.01-2.66,10.87-2.9c5.24-0.32,10.23,0.48,15.02,2.45
			c7.28,3,14.35,6.43,20.51,11.43c5.32,4.32,10.17,9.08,13.15,15.41c0.54,1.13,1.2,2.22,1.37,3.49c-0.95-0.15-1.74-0.65-2.57-1.08
			c-1.57-0.83-3.25-1.41-4.98-1.78c-2.03-0.44-2.25-0.22-2.6,1.82c-0.57,3.29-0.67,6.61-0.73,9.94c-0.09,5.4-0.12,10.81-0.18,16.21
			c-1.18-0.42-2.4-0.73-3.52-1.28c-3.94-1.92-7.74-4.09-11.39-6.52c-0.88-0.59-1.68-1.53-2.84-1.45c-0.5,0.55-0.55,1.07-0.61,1.59
			c-0.36,3.49,0.08,6.86,1.54,10.08c1.83,4.01,1.92,8.05,0.24,12.14c-0.39,0.96-0.65,1.98-1.01,2.96c-1.1,3.05-1.3,6.1-0.13,9.18
			c-1.15,2.13-1.18,2.67,0.26,4.09c0.88,0.88,1.96,1.56,2.94,2.33c0.73,1.59,1.46,3.17,2.18,4.76c-1.32,0.23-2.65,0.42-3.95,0.71
			c-1.25,0.28-2.47,0.72-2.45,2.31c0.02,1.56,0.95,2.41,2.41,2.81c0.9,0.25,1.81,0.42,2.75,0.38c1.45-0.07,2.88,0.13,4.31,0.39
			c0.71,1.73,1.42,3.46,2.13,5.19c-1.79,0.85-3.6,1.67-5.37,2.57c-1.02,0.52-2.06,1.06-2.8,1.98c-0.68,0.85-1.18,1.84-0.48,2.86
			c0.58,0.84,1.53,0.55,2.32,0.31c1.4-0.42,2.78-0.93,4.14-1.45c1.27-0.48,2.47-1.15,3.88-1.16c0.92,3.43,1.53,6.91,1.97,10.44
			c0.55,4.42,0.72,8.94,2.79,13.07c1.36,2.7,2.49,5.52,3.73,8.28c-0.15,2.78-1.39,5.25-2.49,7.7c-3.11,6.95-4.38,14.38-5.84,21.75
			c-0.62,3.15-1.11,6.39-0.76,9.65c-0.52,1.34-1.09,1.31-1.89,0.16c-4.9-7.1-11.43-12.45-18.53-17.17
			c-2.18-1.45-4.31-2.96-6.74-3.98c-7.93-3.34-15.49-1.53-23.17,1.21c-9.52,3.4-17.85,17.36-11.85,28.76
			c2.62,4.98,4.2,10.45,7.79,14.98c7.5,9.47,15.83,18.13,24.93,26.03c5.69,4.94,11.4,9.84,16.75,15.15c2.42,2.4,4.87,4.85,7.99,6.42
			c0.44,2.57,1.12,5.07,1.88,7.57C342.4,451.23,345.4,455.22,348.48,459.16z"/>
		<path class="st2" d="M344.38,296.31c-1.41,0.01-2.61,0.68-3.88,1.16c-1.37,0.52-2.74,1.02-4.14,1.45
			c-0.78,0.24-1.74,0.53-2.32-0.31c-0.7-1.02-0.2-2.01,0.48-2.86c0.73-0.92,1.77-1.46,2.8-1.98c1.77-0.89,3.58-1.71,5.37-2.56
			c4.14-1.42,8.14-3.13,11.7-5.75c-4.68,0.1-9.28-0.1-13.83,0.56c-1.42-0.26-2.85-0.46-4.31-0.39c-0.94,0.05-1.84-0.13-2.75-0.38
			c-1.46-0.4-2.4-1.24-2.41-2.81c-0.02-1.59,1.21-2.03,2.45-2.31c1.31-0.29,2.63-0.48,3.95-0.71c1.62,0.27,10.4,0.07,11.63-0.32
			c-4.71-1.51-9.26-2.97-13.81-4.43c-0.99-0.77-2.06-1.45-2.94-2.33c-1.43-1.43-1.41-1.96-0.26-4.09c3.15-0.67,6.23-0.26,9.26,0.69
			c3.88,1.22,7.75,2.5,11.63,3.73c0.65,0.21,1.3,0.78,2.04,0.15c0.23-1.01-0.42-1.8-0.71-2.65c-1.05-3.07-1.85-6.19-2.51-9.36
			c-1.32-6.35-1.92-12.77-1.99-19.25c0.06-5.4,0.09-10.81,0.18-16.21c0.06-3.32,0.16-6.65,0.73-9.94c0.35-2.04,0.57-2.26,2.6-1.82
			c1.73,0.37,3.41,0.96,4.98,1.78c0.83,0.44,1.62,0.94,2.57,1.08c1.03,1.21,2.46,1.93,3.65,2.93c5.99,5.03,11.06,10.82,14.62,17.85
			c1.18,2.33,1.22,2.38,3.88,1.44c6.35-2.24,12.83-3.9,19.56-4.38c8.75-0.62,17.41-0.25,25.53,3.6c1.62,0.77,2.57,0.52,3.68-0.92
			c4.36-5.63,8.93-11.09,13.27-16.73c2.75-3.58,6.02-6.7,8.8-10.24c0.87-1.1,1.69-0.95,2.59,0.01c1.68,1.8,2.57,4.07,3.66,6.2
			c3.21,6.24,4.65,12.91,5.11,19.91c0.78,11.94-1.63,23.07-7.58,33.45c-0.1,0.18-0.21,0.36-0.3,0.55c-0.21,0.47-0.52,0.96-0.07,1.43
			c0.33,0.35,0.79,0.23,1.19,0.13c2.23-0.58,4.48-1.09,6.67-1.78c1.9-0.6,3.81-1.12,5.76-1.52c0.84-0.17,1.65-0.29,2.48-0.03
			c1.78,0.57,2.21,1.93,1.04,3.36c-0.82,1-1.92,1.59-3.07,2.14c-4.02,1.91-8.36,2.7-12.63,3.74c-1.96,0.48-3.93,0.95-6.43,2.13
			c3.33,0.65,5.89,0.79,8.46,0.56c3.77-0.33,7.54-0.13,11.31-0.19c0.52-0.01,1.06,0.01,1.56,0.14c1.28,0.34,2.44,0.96,2.39,2.49
			c-0.05,1.44-1.24,1.78-2.41,2.03c-1.54,0.33-3.09,0.47-4.68,0.46c-4.37-0.04-8.75-0.01-13.78-0.01c1.47,1.51,2.84,1.92,4.1,2.52
			c4.24,2.03,8.68,3.72,12.28,6.9c1.15,1.02,3,2.05,2.32,3.71c-0.8,1.95-2.88,1.11-4.48,0.86c-3.98-0.61-7.55-2.46-11.26-3.85
			c-2.64-0.99-5.17-2.28-7.78-3.38c-2.18-0.92-2.38-0.89-3.03,1.47c-1.84,6.69-2.1,13.43-0.04,20.11c1.92,6.22,4.71,12.1,7.49,17.97
			c3.09,6.55,5.87,13.24,6.94,20.45c0.74,4.96,1.18,9.97,1.52,14.97c0.14,2.1,0.86,4.1,0.77,6.21c0.09,4.6,0.72,9.16,1.13,13.73
			c0.63,7.09,1.01,14.21,0.68,21.34c-0.01,0.27,0.14,0.55,0.34,1.3c2.86-2.06,5.63-3.78,7.35-6.76c1.72-1.55,3.12-3.39,4.52-5.23
			c1.38-1.14,2.17-2.74,3.23-4.13c6.11-7.93,10.71-16.59,12.91-26.43c0.87-3.91,1.19-7.83,0.24-11.76c-0.41-1.7-0.78-3.47-2.45-4.52
			c-2.4-4.1-5.94-6.29-10.71-6.54c-4.1-0.22-7.9,0.58-11.28,3.03c-0.59,0.43-1.25,0.78-1.91,1.07c-2.52,1.09-4.89,0.24-5.96-2.3
			c-2.2-5.19-0.75-12.55,2.62-16.11c5.92-6.26,12.88-7.15,20.69-6c4.79,0.71,9.32,2.3,13.79,4.09c5.32,3.57,10.3,7.47,13.12,13.47
			c0.27,1.45,0.68,2.85,1.5,4.09c0.23,1.44,0.48,2.87,0.69,4.31c0.93,6.57,0.97,13.06-0.61,19.6c-1.29,5.33-3.47,10.29-5.37,15.38
			c-1.69,4.51-3.57,8.93-6.47,12.84c-2.36,3.18-4.71,6.38-7.07,9.57c-2.19,1.27-3.12,3.6-4.58,5.48c-1.48,1.71-3.74,2.84-4.05,5.42
			c-3,3.28-5.84,6.74-9.07,9.77c-2.31,2.16-4.93,4-7.13,6.31c-1.14,1.2-2.29,2.39-2.97,3.93c-2.38,2.47-4.67,5.04-7.16,7.4
			c-3.08,2.92-5.48,6.28-7.39,10.05c-1.8,3.55-3.75,7.02-6.32,10.09c-3.12,3.73-6.6,7.04-11.33,8.64
			c-5.47,1.84-11.09,2.95-16.87,3.26c-5.94,0.32-11.9,0.3-17.81,1.3c-5.2,0.88-10.41,0.88-15.46-1.04
			c-0.77-0.29-1.62-0.39-2.43-0.57c-6.45-2.11-12.8-4.51-18.68-7.92c-4.05-2.35-8.62-3.82-12.08-7.15c-1.04-1-2.1-1.99-3.15-2.98
			c-3.08-3.95-6.08-7.93-7.56-12.83c-0.75-2.49-1.44-5-1.87-7.57c1.38-0.97,2.94-1.59,4.44-2.33c3.75-1.85,7.74-3.17,11.3-5.44
			c6.89-4.39,13.63-9,19.55-14.67c7.28-6.98,14.16-14.29,17.99-23.88c3.05-7.62,5.56-15.37,4.93-23.74
			c-0.41-5.53-1.89-10.69-5.74-14.94c-6.34-7-18.78-10.01-28.23-4.35c-5.9,3.53-11.52,7.63-15.95,13.05
			c-1.25,1.53-2.37,3.16-3.56,4.75c-0.35-3.26,0.13-6.5,0.76-9.65c1.46-7.37,2.73-14.8,5.84-21.75c1.1-2.46,2.34-4.92,2.49-7.7
			c0.33-0.53,0.77-1.01,0.99-1.58c2.17-5.55,4.99-10.8,7.39-16.24c1.64-3.73,3.23-7.48,4.2-11.45c0.63-2.57,0.84-5.17-0.2-7.69
			c-0.95-2.32-2.35-3.05-4.71-2.25C354.9,290.81,349.49,293.23,344.38,296.31z"/>
		<path class="st1" d="M382.39,477.22c0.81,0.19,1.66,0.28,2.43,0.57c5.05,1.92,10.26,1.91,15.46,1.04
			c5.91-0.99,11.87-0.98,17.81-1.3c5.78-0.31,11.4-1.42,16.87-3.26c4.73-1.6,8.21-4.9,11.33-8.64c2.57-3.07,4.52-6.54,6.32-10.09
			c1.91-3.77,4.31-7.13,7.39-10.05c2.49-2.36,4.78-4.93,7.16-7.4c5.29-2.72,9.9-6.32,13.94-10.68c6.41-6.93,13.23-13.43,20.99-18.86
			c6.37-4.46,13.18-8.18,20.91-9.64c5.52-1.04,11-0.57,15.96,2.52c2.5,1.56,3.52,4.01,3.01,7c-0.81,4.78-3.76,8.38-6.83,11.78
			c-6.51,7.22-13.37,14.15-19.81,21.44c-5.33,6.04-11.67,10.7-18.33,15.08c-6.56,4.31-12.78,9.1-18.8,14.14
			c-4.41,3.7-7.12,8.73-10.27,13.4c-1.23,1.82-2.22,3.78-2.96,5.87c-0.16,0.44-0.18,0.78,0.26,1.3c1.09-0.43,1.53-1.48,2.14-2.39
			c2.68-3.99,4.98-8.22,8.11-11.92c2.19-2.58,4.85-4.63,7.38-6.78c7.33-6.24,15.08-11.96,23.3-17.01c0.64-0.39,1.19-0.82,1.69-1.36
			c7.06-7.68,14.54-14.95,21.73-22.5c4.17-4.38,8.4-8.75,11.73-13.86c1.44-2.21,2.51-4.54,3.34-7.05c0.9-2.73,0.1-4.96-1.58-6.96
			c-2.42-2.88-5.49-4.8-9.19-5.63c-0.61-0.14-1.23-0.27-1.84-0.41c-3.21-0.79-3.28-0.82-1.81-3.64
			c6.29-12.06,13.06-23.83,21.6-34.49c4.61-5.75,9.66-10.99,15.84-15.08c4.84-3.2,10.08-4.41,15.8-3.66
			c0.41,0.05,0.8,0.23,1.21,0.35c2.74,0.81,3.19,1.84,2.45,4.65c-1.61,6.14-4.55,11.67-7.74,17.07
			c-6.66,11.26-12.73,22.81-17.81,34.88c-2.15,5.1-4.2,10.23-6.15,15.4c-2.2,5.84-5.71,10.91-9.14,16.03
			c-7.15,10.69-14.57,21.21-20.65,32.57c-1.83,3.42-3.27,7-4.73,10.58c-2.92,7.15-7.32,13.32-13,18.62
			c-6.45,6.01-13.51,11.24-20.58,16.44c-12.72,9.36-25.57,18.54-38.23,27.98c-8.62,6.43-17.23,12.9-25.03,20.34
			c-3.53,3.37-7.15,6.73-9.29,11.27c-1.53,3.23-2.63,6.57-2.97,10.14c-0.49,5.07-0.5,5.07-5.44,5.07c-22.22,0-44.44,0-66.65,0
			c-3.73,0-3.84-0.2-3.33-3.92c0.41-2.99,0.63-6.02,1.01-9.02c0.52-4.04,1.06-8.07,1.67-12.09c1.1-7.22,2.3-14.42,3.85-21.56
			c2.06-9.5,4.62-18.86,8.75-27.69c1.69-3.62,4.36-6.63,7.08-9.55c6.26-6.7,13.49-12.2,21.14-17.18
			C380.76,478.52,381.72,478.05,382.39,477.22z"/>
		<path class="st2" d="M165.85,410.31c-3.91-3.26-7.23-6.45-11.29-8.7c-5.26-2.92-10.8-5-16.74-5.88c-2.2-0.33-3.48-1.25-4.43-3.3
			c-1.59-3.4-3.47-6.68-5.39-9.92c-0.88-1.48-1.47-3.01-1.64-4.66c-0.45-4.47-1.23-8.88-1.97-13.31c-0.9-5.44-1.66-10.91-2.72-16.32
			c-1.45-7.35-2.86-14.71-4.91-21.93c-1.6-5.63-3.27-11.23-5.83-16.51c-0.84-1.74-0.71-2.34,1.07-3.17
			c7.64-3.55,14.96-2.2,20.53,4.5c3.46,4.17,5.48,9.13,7.37,14.11c4.65,12.22,7.83,24.87,10.7,37.61c1.48,6.6,2.6,13.31,4.71,19.75
			c2.35,7.14,5.52,13.97,8.25,20.97C164.35,405.58,165.5,407.49,165.85,410.31z"/>
		<path class="st1" d="M494.98,407.18c2.36-3.19,4.7-6.38,7.07-9.57c2.9-3.91,4.79-8.33,6.47-12.84c1.9-5.08,4.09-10.05,5.37-15.38
			c1.58-6.53,1.54-13.03,0.61-19.6c-0.2-1.44-0.46-2.88-0.69-4.31c2.12-6.67,3.94-13.44,6.52-19.96c1.85-4.66,3.72-9.3,6.67-13.43
			c3.11-4.37,7.34-6.9,12.54-7.42c3.34-0.34,6.6,0.8,9.58,2.44c1.05,0.58,1.06,1.31,0.52,2.35c-3.45,6.63-5.24,13.82-7.15,20.99
			c-2.03,7.65-3.4,15.44-4.89,23.2c-1.47,7.67-2.39,15.44-3.52,23.18c-0.3,2.08-0.74,4.03-1.87,5.89c-1.96,3.21-3.83,6.5-5.39,9.92
			c-0.92,2-2.19,2.74-4.24,3.07c-8.18,1.31-15.64,4.42-22.2,9.54c-1.87,1.46-3.61,3.1-5.56,4.79
			C494.48,408.92,495,408.06,494.98,407.18z"/>
		<path class="st2" d="M190.78,433.12c-3.48-2.01-6.22-3.65-8.42-6.06c-3.52-3.86-6.95-7.82-10.93-11.24
			c-0.84-0.73-1.28-1.6-1.61-2.62c-1.83-5.68-3.7-11.34-6.05-16.83c-0.82-1.92-1.56-3.89-2.61-5.69c-3.1-5.33-4.43-11.27-5.92-17.12
			c-1.86-7.26-3.52-14.58-4.99-21.93c-0.77-3.87-1.74-7.7-2.52-11.57c-0.81-4-2.42-7.77-3.9-11.56c-1.1-2.81-2.23-5.62-3.28-8.45
			c-0.59-1.59-0.17-2.28,1.51-2.78c1.23-0.36,2.5-0.32,3.74-0.14c6.31,0.92,10.97,4.38,14.5,9.51c3.94,5.72,5.83,12.25,7.04,18.97
			c3,16.69,7.7,32.91,13.88,48.66c3.56,9.08,6.58,18.26,8.37,27.83C190.23,425.48,190.35,428.92,190.78,433.12z"/>
		<path class="st2" d="M214.37,445.65c-2.49-0.36-4.49-1.99-6.78-2.88c-3.79-1.47-7.35-3.51-11.02-5.26
			c-1.73-0.83-2.7-1.99-2.96-4.02c-2-15.81-5.95-31.13-12.19-45.81c-1.36-3.2-1.77-6.55-1.35-9.83c0.54-4.16-0.3-8.13-0.87-12.13
			c-0.72-5.04,0.21-6.34,5.3-6.09c3.39,0.16,5.93,1.82,7.78,4.61c2.95,4.47,4.28,9.53,5.03,14.74c1.02,7.11,1.87,14.24,2.97,21.34
			c1.17,7.55,2.74,14.97,5.63,22.05c1.89,4.63,4.12,9.13,6.14,13.72c0.84,1.9,1.6,3.85,2.25,5.83
			C214.66,443.05,215.2,444.28,214.37,445.65z"/>
		<path class="st1" d="M473.51,402.75c-1.71,2.97-4.48,4.7-7.35,6.76c-0.2-0.75-0.35-1.03-0.34-1.3c0.33-7.13-0.05-14.25-0.68-21.34
			c-0.41-4.58-1.04-9.13-1.13-13.73c1.03-3.17,2.31-6.24,4.16-9.03c2.4-3.63,6.51-5.27,10.62-4.28c2.12,0.51,3.09,1.45,2.64,3.51
			c-1.4,6.39-0.8,12.89-1.29,19.33c-0.22,2.9-1.44,5.41-2.41,8.03C476.25,394.69,474.41,398.55,473.51,402.75z"/>
		<path class="st1" d="M512.31,341.39c-2.82-6-7.8-9.9-13.12-13.47c2.98-4.72,6.79-8.41,12.27-10.09c1.91-0.59,3.86-0.94,5.84-0.73
			c2.71,0.29,3.06,1.13,2.12,3.72c-2.18,6.06-4.95,11.91-6.53,18.18C512.68,339.79,512.5,340.59,512.31,341.39z"/>
		<path class="st1" d="M491.96,350.68c1.66,1.04,2.04,2.82,2.45,4.52c0.95,3.93,0.63,7.85-0.24,11.76
			c-2.2,9.84-6.8,18.5-12.91,26.43c-1.07,1.39-1.85,2.99-3.23,4.13c1.93-6.23,4.5-12.24,6.46-18.47
			C487.43,369.71,490.05,360.29,491.96,350.68z"/>
		<path class="st3" d="M486.35,418.08c0.31-2.58,2.57-3.71,4.05-5.42c0.04,1.33-0.49,2.35-1.54,3.18
			C487.98,416.53,487.18,417.33,486.35,418.08z"/>
		<path class="st0" d="M343.77,367.2c1.18-1.59,2.31-3.22,3.56-4.75c4.43-5.42,10.06-9.52,15.95-13.05
			c9.45-5.66,21.9-2.64,28.23,4.35c3.85,4.25,5.32,9.41,5.74,14.94c0.63,8.37-1.88,16.12-4.93,23.74
			c-3.83,9.58-10.71,16.9-17.99,23.88c-5.92,5.67-12.66,10.28-19.55,14.67c-3.55,2.27-7.55,3.59-11.3,5.44
			c-1.5,0.74-3.06,1.36-4.44,2.33c-3.12-1.57-5.57-4.02-7.99-6.42c-5.35-5.31-11.06-10.21-16.75-15.15
			c-9.09-7.9-17.43-16.56-24.93-26.03c-3.59-4.53-5.17-10-7.79-14.98c-6-11.41,2.33-25.37,11.85-28.76
			c7.68-2.74,15.24-4.55,23.17-1.21c2.43,1.03,4.56,2.54,6.74,3.98c7.1,4.72,13.63,10.07,18.53,17.17
			C342.68,368.52,343.25,368.54,343.77,367.2z"/>
		<path class="st0" d="M349.84,241.54c0.07,6.48,0.67,12.9,1.99,19.25c0.66,3.17,1.46,6.3,2.51,9.36c0.29,0.86,0.94,1.65,0.71,2.65
			c-0.74,0.63-1.39,0.06-2.04-0.15c-3.88-1.23-7.74-2.52-11.63-3.73c-3.03-0.95-6.11-1.36-9.26-0.69c-1.16-3.08-0.97-6.13,0.13-9.18
			c0.35-0.98,0.61-2,1.01-2.96c1.68-4.09,1.59-8.13-0.24-12.14c-1.46-3.21-1.9-6.58-1.54-10.08c0.05-0.52,0.11-1.04,0.61-1.59
			c1.15-0.09,1.95,0.86,2.84,1.45c3.66,2.43,7.45,4.61,11.39,6.52C347.44,240.81,348.67,241.12,349.84,241.54z"/>
		<path class="st0" d="M344.38,296.31c5.11-3.08,10.52-5.5,16.16-7.42c2.36-0.8,3.75-0.07,4.71,2.25c1.04,2.52,0.83,5.12,0.2,7.69
			c-0.97,3.97-2.56,7.72-4.2,11.45c-2.4,5.44-5.22,10.69-7.39,16.24c-0.22,0.57-0.66,1.05-0.99,1.58c-1.23-2.76-2.37-5.58-3.73-8.28
			c-2.07-4.13-2.24-8.65-2.79-13.07C345.91,303.22,345.3,299.74,344.38,296.31z"/>
		<path class="st0" d="M340.56,286.01c4.56-0.65,9.16-0.46,13.83-0.56c-3.57,2.62-7.56,4.33-11.7,5.75
			C341.98,289.47,341.27,287.74,340.56,286.01z"/>
		<path class="st0" d="M335.32,274.66c4.55,1.46,9.1,2.92,13.81,4.43c-1.23,0.39-10.01,0.59-11.63,0.32
			C336.78,277.83,336.05,276.24,335.32,274.66z"/>
	</g>
	<path class="st1" d="M263.66,415.26"/>
	<path class="st1" d="M263.53,416.86"/>
	<path class="st2" d="M286.06,482.37c0.55,1.31,1.58,1.8,2.43,2.42c6.79,4.98,12.94,10.61,17.89,17.47
		c3.24,4.49,4.85,9.72,6.61,14.86c1.99,5.83,3.24,11.86,4.59,17.86c2.37,10.5,3.71,21.16,5.19,31.8c0.46,3.3,0.85,6.62,1.22,9.93
		c0.05,0.41,0.02,0.84,0.05,1.25c0.11,1.39-0.35,2.23-1.92,2.11c-0.63-0.05-1.26,0-1.89,0c-22.54,0-45.08,0-67.62,0
		c-0.52,0-1.05-0.03-1.57,0c-1.07,0.06-1.8-0.2-1.93-1.46c-0.12-1.14-0.56-2.24-0.67-3.38c-0.69-7.16-3.75-13.12-8.78-18.22
		c-5.45-5.53-11.43-10.41-17.48-15.24c-11.11-8.89-22.73-17.11-34.2-25.5c-8.78-6.42-17.55-12.84-26.23-19.39
		c-4.1-3.1-7.93-6.51-11.57-10.14c-5.67-5.64-9.41-12.47-12.18-19.9c-1.99-5.32-4.88-10.18-7.8-14.99
		c-6.3-10.36-13.23-20.32-19.99-30.38c-3.24-4.82-5.34-10.19-7.39-15.56c-4.13-10.83-8.93-21.34-14.32-31.61
		c-3.89-7.41-8.59-14.37-12.13-21.97c-1.33-2.85-2.51-5.73-3.27-8.79c-0.7-2.8-0.19-3.86,2.65-4.52c6.04-1.4,11.56-0.06,16.72,3.26
		c7.06,4.55,12.57,10.69,17.62,17.27c7.15,9.32,13.15,19.37,18.54,29.79c0.86,1.66,2.7,3.45,2.14,5.02
		c-0.6,1.67-3.25,1.19-4.98,1.72c-3.6,1.1-6.67,3.01-8.97,6.02c-1.4,1.82-1.94,3.81-1.33,6.18c1.02,3.96,3.19,7.29,5.65,10.4
		c3.7,4.67,7.75,9.05,11.93,13.3c5.72,5.81,11.56,11.51,16.93,17.66c1.41,1.62,3.09,3.01,4.97,4.22
		c9.98,6.38,19.42,13.5,28.15,21.51c3.51,3.21,5.69,7.46,8.31,11.36c1.08,1.61,1.8,3.52,3.63,4.93c0.61-1.74-0.26-3.01-0.88-4.17
		c-4.96-9.12-11.31-16.96-19.97-22.96c-6.79-4.71-13.46-9.6-20.39-14.12c-2.12-1.38-3.74-3.35-5.44-5.16
		c-6.94-7.39-13.78-14.89-20.72-22.29c-2.44-2.6-4.8-5.24-6.78-8.23c-1.23-1.86-2.01-3.83-2.56-6c-0.79-3.13,0.37-5.43,2.75-7.08
		c3.06-2.12,6.58-2.99,10.33-3.09c9.11-0.24,16.71,3.72,24.13,8.38c9.05,5.68,16.6,13.05,23.86,20.76c3.9,4.14,8.35,7.6,13.26,10.47
		c4.87,2.85,9.77,5.67,14.66,8.49c1.45,0.84,3.05,1.33,4.63,1.85c3.76,1.24,7.51,2.54,11.23,3.8"/>
</g>
<g>
	<path class="st2" d="M313.15,381.75"/>
	<path class="st2" d="M315.17,387.17c0,1.64-0.42,3.11-1.27,4.42c-0.84,1.31-2.08,2.33-3.71,3.07c-1.63,0.74-3.56,1.11-5.79,1.11
		c-2.68,0-4.88-0.51-6.62-1.52c-1.23-0.73-2.24-1.7-3.01-2.91c-0.77-1.21-1.16-2.4-1.16-3.54c0-0.67,0.23-1.24,0.69-1.71
		c0.46-0.47,1.05-0.71,1.77-0.71c0.58,0,1.07,0.18,1.47,0.55c0.4,0.37,0.74,0.92,1.03,1.65c0.35,0.86,0.72,1.58,1.12,2.16
		c0.4,0.58,0.97,1.06,1.69,1.43s1.68,0.56,2.87,0.56c1.63,0,2.95-0.38,3.97-1.14c1.02-0.76,1.53-1.71,1.53-2.84
		c0-0.9-0.27-1.63-0.82-2.19s-1.26-0.99-2.13-1.29c-0.87-0.3-2.03-0.61-3.49-0.94c-1.95-0.46-3.58-0.99-4.89-1.6
		c-1.31-0.61-2.36-1.44-3.13-2.5c-0.77-1.05-1.16-2.36-1.16-3.93c0-1.49,0.41-2.82,1.22-3.98s1.99-2.05,3.53-2.67
		s3.35-0.93,5.44-0.93c1.67,0,3.1,0.21,4.32,0.62c1.21,0.41,2.22,0.96,3.02,1.65c0.8,0.68,1.39,1.4,1.76,2.16s0.55,1.49,0.55,2.2
		c0,0.65-0.23,1.24-0.69,1.77c-0.46,0.52-1.04,0.79-1.73,0.79c-0.63,0-1.11-0.16-1.43-0.47c-0.33-0.31-0.68-0.83-1.06-1.54
		c-0.49-1.02-1.09-1.82-1.78-2.4c-0.69-0.57-1.8-0.86-3.33-0.86c-1.42,0-2.56,0.31-3.43,0.93c-0.87,0.62-1.3,1.37-1.3,2.25
		c0,0.54,0.15,1.01,0.44,1.41c0.3,0.39,0.7,0.73,1.22,1.02c0.52,0.28,1.04,0.51,1.57,0.67s1.41,0.39,2.63,0.7
		c1.53,0.36,2.91,0.75,4.15,1.18c1.24,0.43,2.29,0.96,3.16,1.57c0.87,0.62,1.55,1.4,2.03,2.34
		C314.93,384.65,315.17,385.8,315.17,387.17z"/>
	<path class="st2" d="M321.39,395.78c-0.76,0-1.42-0.25-1.98-0.74s-0.83-1.18-0.83-2.07c0-0.75,0.27-1.4,0.8-1.94
		s1.18-0.81,1.96-0.81c0.78,0,1.44,0.27,1.99,0.8s0.82,1.19,0.82,1.95c0,0.88-0.27,1.56-0.82,2.06S322.13,395.78,321.39,395.78z"/>
	<path class="st2" d="M342.18,367.73c2.81,0,5.23,0.57,7.24,1.71c2.02,1.14,3.54,2.76,4.58,4.87c1.04,2.1,1.55,4.57,1.55,7.41
		c0,2.1-0.28,4-0.85,5.72s-1.42,3.2-2.55,4.46c-1.13,1.26-2.53,2.22-4.18,2.89c-1.65,0.67-3.55,1-5.68,1c-2.12,0-4.02-0.34-5.7-1.03
		c-1.68-0.68-3.08-1.65-4.2-2.9c-1.12-1.25-1.97-2.74-2.54-4.5c-0.57-1.75-0.86-3.64-0.86-5.68c0-2.08,0.3-4,0.9-5.73
		c0.6-1.74,1.46-3.22,2.6-4.44c1.13-1.22,2.52-2.16,4.14-2.8C338.26,368.05,340.11,367.73,342.18,367.73z M349.99,381.68
		c0-1.99-0.32-3.71-0.96-5.16s-1.56-2.56-2.75-3.3c-1.19-0.75-2.56-1.12-4.1-1.12c-1.1,0-2.11,0.21-3.04,0.62
		c-0.93,0.41-1.73,1.01-2.4,1.8c-0.67,0.79-1.2,1.8-1.59,3.02s-0.58,2.61-0.58,4.13c0,1.54,0.19,2.94,0.58,4.18
		c0.39,1.25,0.94,2.28,1.65,3.1s1.52,1.43,2.44,1.84c0.92,0.41,1.93,0.61,3.02,0.61c1.41,0,2.7-0.35,3.88-1.05s2.12-1.79,2.81-3.26
		S349.99,383.83,349.99,381.68z"/>
	<path class="st2" d="M361.33,395.78c-0.76,0-1.42-0.25-1.98-0.74s-0.83-1.18-0.83-2.07c0-0.75,0.27-1.4,0.8-1.94
		c0.53-0.54,1.18-0.81,1.96-0.81c0.78,0,1.44,0.27,1.99,0.8s0.82,1.19,0.82,1.95c0,0.88-0.27,1.56-0.82,2.06
		S362.07,395.78,361.33,395.78z"/>
	<path class="st2" d="M390.8,387.17c0,1.64-0.42,3.11-1.27,4.42c-0.84,1.31-2.08,2.33-3.71,3.07s-3.56,1.11-5.79,1.11
		c-2.68,0-4.88-0.51-6.62-1.52c-1.23-0.73-2.24-1.7-3.01-2.91c-0.77-1.21-1.16-2.4-1.16-3.54c0-0.67,0.23-1.24,0.69-1.71
		c0.46-0.47,1.05-0.71,1.77-0.71c0.58,0,1.07,0.18,1.47,0.55c0.4,0.37,0.74,0.92,1.03,1.65c0.35,0.86,0.72,1.58,1.12,2.16
		c0.4,0.58,0.97,1.06,1.69,1.43s1.68,0.56,2.87,0.56c1.63,0,2.95-0.38,3.97-1.14c1.02-0.76,1.53-1.71,1.53-2.84
		c0-0.9-0.27-1.63-0.82-2.19s-1.26-0.99-2.13-1.29c-0.87-0.3-2.03-0.61-3.49-0.94c-1.95-0.46-3.58-0.99-4.89-1.6
		c-1.31-0.61-2.36-1.44-3.13-2.5c-0.77-1.05-1.16-2.36-1.16-3.93c0-1.49,0.41-2.82,1.22-3.98s1.99-2.05,3.53-2.67
		c1.54-0.62,3.35-0.93,5.44-0.93c1.66,0,3.1,0.21,4.32,0.62c1.21,0.41,2.22,0.96,3.02,1.65c0.8,0.68,1.39,1.4,1.76,2.16
		s0.55,1.49,0.55,2.2c0,0.65-0.23,1.24-0.69,1.77c-0.46,0.52-1.04,0.79-1.73,0.79c-0.63,0-1.11-0.16-1.43-0.47
		c-0.33-0.31-0.68-0.83-1.06-1.54c-0.49-1.02-1.09-1.82-1.78-2.4c-0.69-0.57-1.8-0.86-3.33-0.86c-1.42,0-2.56,0.31-3.43,0.93
		c-0.87,0.62-1.3,1.37-1.3,2.25c0,0.54,0.15,1.01,0.44,1.41c0.3,0.39,0.7,0.73,1.22,1.02c0.52,0.28,1.04,0.51,1.57,0.67
		c0.53,0.16,1.41,0.39,2.63,0.7c1.53,0.36,2.91,0.75,4.15,1.18c1.24,0.43,2.29,0.96,3.16,1.57c0.87,0.62,1.55,1.4,2.03,2.34
		C390.55,384.65,390.8,385.8,390.8,387.17z"/>
</g>
<path class="st2" d="M328.31,414.02h-2.47v3.77c0,0.54-0.13,0.95-0.38,1.23c-0.25,0.28-0.58,0.42-0.96,0.42
	c-0.41,0-0.73-0.14-0.98-0.41c-0.25-0.28-0.37-0.68-0.37-1.21v-10.27c0-0.59,0.14-1.02,0.41-1.27c0.27-0.25,0.71-0.38,1.3-0.38h3.46
	c1.02,0,1.81,0.08,2.36,0.24c0.55,0.15,1.02,0.4,1.41,0.75c0.4,0.35,0.7,0.78,0.9,1.29c0.21,0.51,0.31,1.08,0.31,1.72
	c0,1.36-0.42,2.38-1.25,3.08C331.21,413.67,329.96,414.02,328.31,414.02z M327.65,407.92h-1.82v4.07h1.82c0.64,0,1.17-0.07,1.59-0.2
	c0.43-0.13,0.75-0.35,0.98-0.65s0.34-0.7,0.34-1.19c0-0.59-0.17-1.07-0.52-1.44C329.66,408.11,328.86,407.92,327.65,407.92z"/>
<path class="st2" d="M344.32,407.97h-6.08v3.27h5.6c0.41,0,0.72,0.09,0.92,0.28c0.2,0.18,0.3,0.43,0.3,0.73c0,0.3-0.1,0.55-0.3,0.74
	s-0.51,0.29-0.93,0.29h-5.6v3.79h6.29c0.42,0,0.74,0.1,0.96,0.3c0.21,0.2,0.32,0.46,0.32,0.79c0,0.31-0.11,0.57-0.32,0.77
	s-0.53,0.3-0.96,0.3h-7.33c-0.59,0-1.01-0.13-1.27-0.39c-0.26-0.26-0.39-0.68-0.39-1.26v-10.01c0-0.39,0.06-0.7,0.17-0.95
	c0.12-0.25,0.3-0.42,0.54-0.54c0.25-0.11,0.56-0.17,0.94-0.17h7.12c0.43,0,0.75,0.1,0.96,0.29c0.21,0.19,0.31,0.44,0.31,0.75
	c0,0.31-0.1,0.57-0.31,0.76C345.07,407.88,344.75,407.97,344.32,407.97z"/>
<path class="st2" d="M356.61,408.12h-2.94v9.68c0,0.56-0.12,0.97-0.37,1.24c-0.25,0.27-0.57,0.4-0.96,0.4
	c-0.4,0-0.73-0.14-0.98-0.41s-0.38-0.68-0.38-1.24v-9.68h-2.94c-0.46,0-0.8-0.1-1.03-0.3c-0.22-0.2-0.34-0.47-0.34-0.8
	c0-0.35,0.12-0.62,0.35-0.82c0.23-0.2,0.57-0.3,1.01-0.3h8.58c0.47,0,0.81,0.1,1.04,0.31c0.23,0.21,0.34,0.48,0.34,0.81
	s-0.12,0.6-0.35,0.8C357.41,408.01,357.07,408.12,356.61,408.12z"/>
</svg>
